<svg xmlns="http://www.w3.org/2000/svg" width="235.207" height="282.388" viewBox="0 0 235.207 282.388"><defs><style>.cls-1{fill:#e2704a;}.cls-2{fill:#d9d9d9;}.cls-3{fill:#fff;}.cls-4{fill:#211715;}.cls-5{fill:#645d5c;}.cls-6{fill:#d0d0d0;}</style></defs><g id="color"><g id="woman"><path class="cls-3" d="M118.129,279.712c7.356-17.095,9.242-22.734,14.988-39.363,5.974-17.3,11.625-35.927,16.427-54.123-8.887,5.064-19.441,7.804-29.998,7.724-12.67-.096-25.259-4.255-34.906-11.573,5.011,19.427,11.033,39.376,17.449,57.97,5.746,16.627,7.632,22.275,14.988,39.366h1.052Z"/><path class="cls-6" d="M232.603,279.708c-1.609-36.731-7-65.145-27.577-83.561-11.068-9.904-23.509-15.459-42.081-20.674-3.468-.974-8.509-2.75-9.864-3.232-5.442,22.473-12.448,46.34-19.964,68.107-5.746,16.629-7.632,22.269-14.988,39.363l114.474-.004Z"/><path class="cls-6" d="M2.603,279.713c1.609-36.739,7-65.146,27.577-83.57,11.068-9.903,23.509-15.452,42.081-20.665,3.455-.974,8.131-2.07,10.034-2.486,5.419,22.323,12.34,45.754,19.794,67.355,5.746,16.627,7.632,22.275,14.988,39.366H2.603Z"/><path class="cls-5" d="M193.282,108.091c-2.062-11.437-5.054-20.728-7.914-34.304-2.404-11.437-3.616-26.093-8.389-35.992-3.576-7.402-10.988-18.828-22.384-24.081-4.318-2.482-7.238-4.161-7.238-4.161l-1.582-.91c-8.711-3.584-17.784-5.963-30.672-5.963-21.13,0-38.616,9.82-46.961,17.93-9.345,10.096-13.187,20.173-17.567,39.189-2.863,12.429-5.696,27.55-7.937,40.109-1.929,11.35-2.129,22.757,3.178,32.809,6.078,11.511,17.437,17.019,34.567,19.061l73.552.99c16.22.743,27.925-6.105,34.634-17.947,4.955-8.747,6.059-18.453,4.714-26.321v-.409Z"/><path class="cls-3" d="M148.584,57.021c-1.663-2.693-3.415-5.417-5.268-8.174-11.691,9.755-18.04,13.859-39.164,23.893-11.512,5.468-19.582,7.858-29.98,11.04l-7.632,4.402c-1.679-1.613-3.94-2.219-5.875-2.151-4.211.148-6.003,2.426-6.775,3.764-2.302,3.992-2.205,11.348-.659,15.9,1.094,3.223,2.887,8.154,7.208,11.69,1.873,1.532,4.675,2.515,7.294,1.91,1.985,6.415,5.455,14.005,11.36,21.073,4.888,5.851,10.463,10.543,16.501,13.44-.062,2.663.031,3.517-.206,6.731-.109,1.405-.218,2.919-.739,4.287-.69,1.792-1.635,3.355-3.137,4.578-2.776,2.224-5.59,3.436-8.94,4.723.669,2.737,1.361,5.489,2.073,8.252,9.646,7.317,22.233,11.475,34.901,11.571,10.555.08,21.109-2.66,29.995-7.723,1.11-4.207,2.174-8.391,3.186-12.53-2.855-1.151-5.37-2.32-7.818-4.291-1.502-1.223-2.446-2.786-3.137-4.578-.521-1.369-.63-2.882-.739-4.287-.241-3.501-.139-4.202-.183-7.491,12.589-6.086,22.641-23.355,24.423-28.193.345-1.048,1.368-3.17,2.186-5.557l.476.08c2.506.423,5.127-.537,6.907-1.994,4.321-3.536,6.114-8.467,7.208-11.69,1.545-4.552,1.642-11.908-.659-15.9-.771-1.337-2.563-3.615-6.775-3.764-1.935-.068-4.197.538-5.875,2.151l-6.995-7.357c-3.833-7.661-8.088-15.587-13.164-23.805Z"/><path class="cls-4" d="M147.915,184.16c-19.178,10.382-42.618,9.303-60.627-3.049-2.767-1.898-5.37,2.607-2.625,4.49,19.538,13.401,45.15,14.269,65.876,3.049,2.944-1.594.322-6.085-2.625-4.49h0Z"/><path class="cls-4" d="M5.203,279.713c1.085-23.794,3.049-50.011,16.821-70.33s37.973-28.761,60.963-33.884l-3.198-1.816c8.919,36.519,20.206,72.773,35.044,107.342,1.316,3.066,5.797.42,4.49-2.625-14.654-34.141-25.712-70.039-34.52-106.1-.345-1.413-1.858-2.115-3.198-1.816-24.037,5.356-48.615,14.349-63.354,35.237C3.325,226.873,1.145,254.671.003,279.713c-.153,3.346,5.048,3.338,5.2,0h0Z"/><path class="cls-4" d="M70.566,174.143c-4.707,3.652-12.548,9.077-14.403,15.197-.59,1.948-.226,3.171,1.297,4.5,2.856,2.492,7.427,4.051,10.768,5.851l-.526-4.084c-3.441,3.043-6.955,6.067-10.148,9.375-1.653,1.713-3.062,3.191-2.804,5.714.373,3.643,3.613,7.569,5.351,10.706,2.115,3.819,4.253,7.625,6.412,11.419,9.243,16.244,18.885,32.255,28.626,48.203,1.742,2.852,6.241.242,4.49-2.625-8.294-13.579-16.518-27.201-24.48-40.977-3.889-6.729-7.718-13.494-11.472-20.3-.813-1.475-2.228-3.407-2.745-5.008-1.314-1.225-1.214-2.377.299-3.456l1.229-1.209c2.738-2.919,5.926-5.52,8.919-8.166,1.234-1.091.886-3.323-.526-4.084-2.27-1.223-4.542-2.444-6.813-3.666-.428-.23-3.347-1.435-3.406-1.834.251,1.695,2.232-1.298,2.426-1.544,3.149-3.98,7.194-7.243,11.183-10.338,2.64-2.049-1.064-5.705-3.677-3.677h0Z"/><path class="cls-4" d="M235.203,279.708c-1.151-25.225-3.355-53.312-18.61-74.5-6.734-9.353-15.774-16.819-25.968-22.144-11.69-6.107-24.504-8.956-36.852-13.33-1.297-.46-2.884.525-3.198,1.816-8.847,36.319-19.936,72.468-34.69,106.85-1.305,3.042,3.173,5.694,4.49,2.625,14.938-34.81,26.256-71.315,35.215-108.092l-3.198,1.816c11.478,4.066,23.412,6.694,34.364,12.17,10.258,5.129,19.519,12.464,26.075,21.944,14.089,20.373,16.08,46.863,17.174,70.846.152,3.332,5.353,3.351,5.2,0h0Z"/><path class="cls-4" d="M143.313,48.846c1.39,2.08,2.73,4.14,4.02,6.18-6.03.33-11.98,1.96-17.41,4.88l-.36-.67c4.67-3.03,8.71-6.18,13.75-10.39Z"/><path class="cls-4" d="M116.827,107.223c.288,1.107.554,2.222.789,3.341.073.35.077,1.14.261,1.384-.333-.442.751-1.181.778-1.124l.168.029c-.151-.032-.303-.059-.456-.082-1.384-.224-2.798.359-3.198,1.816-.341,1.24.422,2.972,1.816,3.198,1.152.187,2.211.346,3.346-.044,1.641-.564,2.72-1.871,2.74-3.639.023-2.054-.717-4.288-1.23-6.263-.841-3.236-5.858-1.864-5.014,1.382h0Z"/><path class="cls-4" d="M89.966,92.84c-.848,2.756-.295,9.097,4.927,9.637,6.902-.041,7.269-7.707,4.946-11.312-1.902-2.951-7.496-4.179-9.872,1.675Z"/><path class="cls-4" d="M145.236,92.84c.848,2.756.296,9.097-4.926,9.637-6.902-.042-7.269-7.708-4.946-11.312,1.902-2.951,7.496-4.178,9.872,1.675Z"/><path class="cls-4" d="M40.129,99.216c-2.732,16.905-1.336,35.862,13.834,46.561,10.674,7.528,23.754,8.6,36.357,8.6,3.346,0,3.351-5.2,0-5.2-10.58,0-21.101-.619-30.606-5.926-15.462-8.633-17.141-26.755-14.571-42.653.529-3.274-4.481-4.683-5.014-1.382h0Z"/><path class="cls-4" d="M148.669,7.308C136.575.356,119.82-1.037,106.286.648s-27.12,7.127-37.639,16.008c-9.335,7.881-14.433,19.683-17.719,31.162-4.81,16.799-7.724,34.219-10.798,51.399-.585,3.272,4.425,4.676,5.014,1.382,2.707-15.132,5.445-30.306,9.16-45.229,2.945-11.831,6.883-24.035,15.676-32.921,9.076-9.171,22.752-14.568,35.296-16.453,12.887-1.936,29.193-.851,40.768,5.803,2.906,1.671,5.528-2.821,2.625-4.49h0Z"/><path class="cls-4" d="M190.775,109.191c2.183,14.522-4.41,30.556-17.834,37.372-8.869,4.503-18.861,3.604-28.486,3.604-3.346,0-3.351,5.2,0,5.2,11.914,0,23.981.693,34.385-6.231,13.435-8.942,19.294-25.734,16.949-41.329-.496-3.298-5.507-1.897-5.014,1.382h0Z"/><path class="cls-4" d="M156.834,17.86c14.233,9.167,20.297,24.454,23.157,40.426,3.04,16.976,7.639,33.561,10.784,50.495.61,3.286,5.623,1.894,5.014-1.382-1.687-9.084-4.155-17.981-6.273-26.968-2.206-9.36-3.48-18.86-5.414-28.27-3.193-15.539-11.022-30.017-24.643-38.791-2.822-1.817-5.432,2.682-2.625,4.49h0Z"/><path class="cls-4" d="M141.477,47.008c-19.792,16.456-43.542,26.785-67.996,34.264-3.191.976-1.83,5.997,1.382,5.014,25.367-7.758,49.776-18.545,70.291-35.602,2.576-2.142-1.12-5.803-3.677-3.677h0Z"/><path class="cls-4" d="M141.071,50.159c6.842,10.26,12.895,20.965,18.432,31.979,1.504,2.99,5.991.36,4.49-2.625-5.538-11.014-11.59-21.719-18.432-31.979-1.848-2.771-6.354-.17-4.49,2.625h0Z"/><path class="cls-4" d="M166.001,114.335c-1.214,7.211-5.01,14.126-9.133,20.077-5.245,7.571-12.29,15.493-21.541,17.841-3.241.823-1.868,5.839,1.382,5.014,9.873-2.506,17.403-10.343,23.259-18.288,4.956-6.725,9.642-14.924,11.047-23.262.551-3.273-4.459-4.68-5.014-1.382h0Z"/><path class="cls-4" d="M64.022,115.514c4.682,19.534,19.385,40.23,40.379,43.737,3.273.547,4.681-4.463,1.382-5.014-19.305-3.225-32.449-22.171-36.747-40.105-.78-3.253-5.795-1.876-5.014,1.382h0Z"/><path class="cls-4" d="M68.379,86.343c-3.91-3.105-9.332-4.074-13.703-1.121-3.779,2.552-4.887,7.299-5.119,11.591-.549,10.132,5.593,25.934,17.79,25.166,3.324-.209,3.347-5.411,0-5.2-7.495.472-11.523-9.028-12.399-15.299-.724-5.179,1.406-18.089,9.755-11.459,2.594,2.06,6.298-1.596,3.677-3.677h0Z"/><path class="cls-4" d="M170.582,90.02c2.691-2.137,6.646-1.767,8.566,1.087,1.839,2.734,1.617,7.304,1.188,10.373-.877,6.275-4.908,15.771-12.399,15.299-3.342-.21-3.329,4.99,0,5.2,12.199.768,18.339-15.032,17.79-25.166-.231-4.266-1.334-9.067-5.119-11.591-4.397-2.932-9.775-1.999-13.703,1.121-2.62,2.08,1.082,5.738,3.677,3.677h0Z"/><path class="cls-3" d="M170.717,117.49c-4.12,0-6.968,2.898-6.968,6.289,0,3.794,2.909,6.407,6.968,6.407,4.215,0,6.968-2.637,6.968-6.407,0-3.414-2.863-6.289-6.968-6.289Z"/><path class="cls-4" d="M170.717,114.89c-4.972.234-9.545,3.549-9.568,8.889-.023,5.44,4.72,9.202,9.955,8.992,4.882-.196,9.005-3.577,9.166-8.645.174-5.488-4.423-8.996-9.552-9.236-3.345-.157-3.337,5.044,0,5.2,5.268.247,5.82,7.135.387,7.481-5.784.368-6.219-7.207-.387-7.481,3.332-.157,3.351-5.358,0-5.2Z"/><path class="cls-4" d="M118.056,121.443c-5.133.237-8.828,3.907-8.845,9.121-.015,4.441,2.76,8.57,7.308,9.248,12.186,1.816,13.551-17.566,1.537-18.369-3.341-.223-3.327,4.978,0,5.2,5.307.355,3.866,10.038-1.497,7.879-3.76-1.514-2.418-7.698,1.497-7.879,3.332-.154,3.351-5.355,0-5.2Z"/><path class="cls-4" d="M85.728,175.646c4.254-1.8,8.604-4.143,10.719-8.46,1.761-3.593,1.696-7.826,1.723-11.745.023-3.347-5.177-3.35-5.2,0-.02,2.909.217,6.43-1.013,9.121-1.601,3.501-5.508,5.179-8.854,6.595-3.072,1.3-.424,5.78,2.625,4.49h0Z"/><path class="cls-4" d="M138.265,155.441c.004,3.847-.066,8.039,1.631,11.575,1.886,3.931,5.498,6.205,9.333,8.001,3.013,1.411,5.656-3.07,2.625-4.49s-6.316-3.08-7.574-6.391c-1.005-2.646-.813-5.898-.815-8.695-.004-3.346-5.204-3.352-5.2,0h0Z"/><g id="hand"><path class="cls-1" d="M159.803,135.024l1.018,28.979c.072,2.063-.7,3.973-2.011,5.379-1.306,1.401-3.152,2.298-5.22,2.376-4.138.144-7.61-3.094-7.755-7.231l-.993-28.441"/><path class="cls-4" d="M157.203,135.024l.543,15.477c.148,4.223,2.75,17.144-3.344,18.543-7.956,1.826-6.266-13.05-6.413-17.252l-.548-15.707c-.117-3.337-5.317-3.352-5.2,0l.746,21.36c.254,7.262.58,17.153,10.602,16.913,10.44-.25,9.816-10.792,9.557-18.162-.248-7.057-.496-14.114-.743-21.172-.117-3.337-5.318-3.352-5.2,0h0Z"/><path class="cls-3" d="M171.138,116.979c-11.088,11.934-29.718,12.584-41.611,1.453-11.893-11.131-12.546-29.829-1.458-41.763,11.088-11.934,29.718-12.584,41.611-1.453,11.893,11.131,12.546,29.829,1.458,41.763Z"/><path class="cls-1" d="M178.045,66.213c-16.849-15.769-43.241-14.848-58.949,2.058-15.708,16.906-14.783,43.395,2.066,59.164,16.849,15.769,43.242,14.848,58.95-2.059,15.707-16.906,14.783-43.395-2.066-59.164ZM171.138,116.979c-11.088,11.934-29.718,12.584-41.611,1.453-11.894-11.131-12.546-29.829-1.459-41.763,11.088-11.934,29.718-12.584,41.611-1.453,11.893,11.131,12.546,29.829,1.458,41.763Z"/><path class="cls-4" d="M178.273,123.539c-11.391,11.853-28.943,15.985-44.208,9.341-14.857-6.467-24.238-21.826-23.523-37.947.725-16.333,12.072-31.022,27.766-35.706,15.84-4.727,33.432,1.172,43.063,14.675,10.827,15.18,9.257,35.881-3.098,49.637-2.231,2.484,1.435,6.173,3.677,3.677,12.302-13.697,15.503-33.335,7.407-50.029-8.151-16.806-26.722-26.759-45.203-24.467-18.285,2.268-33.73,16.189-37.755,34.209-4.074,18.241,3.811,37.462,19.59,47.511,17.901,11.4,41.428,7.897,55.96-7.224,2.319-2.413-1.353-6.095-3.677-3.677Z"/><path class="cls-4" d="M169.3,115.141c-10.225,10.492-26.983,11.642-37.934,1.453-10.736-9.989-11.411-27.306-1.458-38.086,9.917-10.742,27.231-11.477,37.934-1.453,10.871,10.181,11.211,27.075,1.458,38.086-2.212,2.497,1.453,6.188,3.677,3.677,8.777-9.909,11.259-23.891,5.47-35.986-5.886-12.298-19.379-19.582-32.871-17.879-13.242,1.671-24.429,11.822-27.248,24.903-2.799,12.994,2.68,26.525,13.761,33.877,12.995,8.622,30.189,6.062,40.887-4.916,2.337-2.398-1.336-6.079-3.677-3.677Z"/><path class="cls-2" d="M164.873,100.254c-1.038,6.393-5.505,10.894-11.899,11.917-3.295.527-1.897,5.539,1.382,5.014,7.99-1.278,14.235-7.571,15.531-15.549.532-3.274-4.478-4.682-5.014-1.382h0Z"/><path class="cls-4" d="M149.087,92.447c1.003,3.258.35,10.753-5.823,11.39-8.158-.049-8.592-9.11-5.846-13.371,2.248-3.488,8.86-4.939,11.669,1.98Z"/><path class="cls-3" d="M138.527,173.394c-.277-1.401-.11-2.839.588-4.164.79-1.499,2.517-2.991,3.988-3.381,0,0,3.379-.895,5.717-1.513l-1.784-.996c-1.166-.65-1.546-2.232-1.185-3.517.361-1.285.853-2.431,1.818-3.353,1.894-1.811,2.91-2.647,5.106-4.076,2.35-1.529,4.742-2.772,7.254-2.63,1.886.107,6.899,1.298,8.682,1.925,2.399.844,4.603,1.653,6.502,2.511,3.412,1.542,5.784,4.729,6.345,8.431,1.18,7.787,2.586,20.183,2.898,24.645.447,6.393.116,8.134.94,14.49.429,3.307,4.357,8.37,7.267,13.139l.555.91c-7.608,4.275-17.441,9.838-26.154,14.83-1.312-2.291-5.083-8.252-7.198-10.035-1.716-1.446-2.072-2.052-3.717-3.749-1.768-1.824-2.463-4.116-2.78-6.275-.228-1.548-.43-3.055-.589-4.556-.213-2.02-1.612-3.721-3.57-4.261-1.698-.469-3.489-1.088-4.095-1.814-1.277-1.532-1.668-2.954-1.73-4.102-.149-2.734,1.585-5.24,5.024-6.092l1.195-.296c-.809.017-1.619.035-1.619.035-2.316.05-4.982-.214-6.232-1.188-2.784-2.171-2.642-5.207-1.774-7.506.754-1.998,2.16-2.613,4.426-3.384,0,0,.095-.032.19-.065l-1.589.166c-.984.103-2.884-.441-3.745-2.079-.347-.661-.595-1.35-.733-2.048Z"/><path class="cls-4" d="M165.868,159.605c-7.049.557-14.085,1.489-20.972,3.119-4.789,1.133-9.21,4.1-9.092,9.611.093,4.299,2.931,7.538,7.201,7.786,3.357.195,7.233-.768,10.575-1.134,4.2-.46,8.399-.929,12.598-1.397,3.289-.367,3.326-5.571,0-5.2-4.199.468-8.398.938-12.598,1.397-3.231.353-9.031,2.129-11.499.284-6.088-4.551,7.925-7.168,10.229-7.582,4.489-.807,9.012-1.324,13.558-1.684,3.314-.262,3.342-5.464,0-5.2h0Z"/><path class="cls-4" d="M143.713,174.912c-3.853,1.397-6.577,3.621-6.85,8.005-.281,4.51,2.6,7.972,6.93,8.862,7.078,1.455,15.456-.18,22.623-.622,3.324-.205,3.348-5.407,0-5.2-3.598.222-7.196.429-10.796.615-2.287.118-4.578.259-6.868.305-1.266.026-3.027.243-4.243-.222-4.233-1.616-2.462-5.624.585-6.729,3.122-1.132,1.774-6.159-1.382-5.014h0Z"/><path class="cls-4" d="M147.717,187.252c-3.901,1.318-7.101,4.155-6.933,8.599.078,2.056.992,4.488,2.492,5.941,2.692,2.607,5.788,1.291,7.075,5.741.74,2.558.518,5.131,1.638,7.643.95,2.13,2.518,3.847,4.152,5.491,3.451,3.473,6.19,7.043,8.677,11.29,1.69,2.886,6.186.272,4.49-2.625-1.63-2.784-3.384-5.531-5.385-8.066-2.473-3.135-6.367-5.463-7.624-9.411-1.033-3.245-.282-7.053-2.466-9.882-.777-1.007-1.697-1.7-2.83-2.256-1.601-.786-2.669-.652-3.852-2.149-1.713-2.168-.87-4.35,1.948-5.302,3.154-1.065,1.801-6.089-1.382-5.014h0Z"/><path class="cls-4" d="M176.388,267.493c-3.484-6.834-6.98-13.662-10.464-20.495-.974-1.911-1.948-3.822-2.92-5.733-1.387-2.727-1.939-3.728.846-5.776,3.961-2.913,8.824-5.061,13.1-7.493,4.389-2.496,8.783-4.983,13.181-7.462,1.729-.975,3.669-2.581,5.56-3.128,3.069-.888,3.687,1.808,4.851,4.014,3.773,7.147,7.429,14.355,11.185,21.511,1.556,2.964,6.046.339,4.49-2.625-2.238-4.264-4.433-8.55-6.65-12.825-2.282-4.4-4.282-10.049-7.441-13.894-3.295-4.011-7.151-1.745-10.835.326-5.663,3.184-11.319,6.381-16.966,9.593-5.156,2.932-11.606,5.529-16.143,9.353-3.562,3.002-1.979,6.483-.194,9.996,4.621,9.096,9.277,18.173,13.911,27.263,1.52,2.982,6.008.354,4.49-2.625h0Z"/><path class="cls-4" d="M148.874,161.501c-3.293-3.329,9.578-9.146,11.154-9.138,3.187.016,6.787,1.385,9.751,2.46,5.311,1.925,8.508,3.912,9.458,9.764.624,3.847,1.043,7.738,1.493,11.609.759,6.531,1.154,13.004,1.506,19.564.173,3.215.313,6.496,1.554,9.496,1.62,3.916,4.391,7.387,6.626,10.96,1.771,2.831,6.272.224,4.49-2.625-3.424-5.474-6.931-9.905-7.394-16.551-.314-4.508-.348-9.019-.788-13.521-.506-5.168-1.124-10.327-1.805-15.475-.57-4.31-.803-8.75-3.628-12.278-3.058-3.82-8.17-5.468-12.698-6.844-3.808-1.157-8.282-2.436-12.219-1.243-6.072,1.84-18.014,10.587-11.178,17.498,2.357,2.383,6.034-1.294,3.677-3.677h0Z"/><path class="cls-4" d="M211.464,99.915c2.89,0,5.781,0,8.671,0,3.346,0,3.351-5.2,0-5.2-2.89,0-5.781,0-8.671,0-3.346,0-3.351,5.2,0,5.2h0Z"/><path class="cls-4" d="M208.723,113.801c2.757,1.356,5.616,2.505,8.468,3.643,1.305.52,2.856-.569,3.198-1.816.407-1.481-.506-2.676-1.816-3.198-2.437-.972-4.87-1.96-7.226-3.118-2.992-1.472-5.631,3.012-2.625,4.49h0Z"/><path class="cls-4" d="M211.347,85.319c2.356-1.159,4.789-2.146,7.226-3.118,1.303-.52,2.218-1.737,1.816-3.198-.341-1.239-1.887-2.339-3.198-1.816-2.852,1.138-5.711,2.287-8.468,3.643-3.003,1.477-.371,5.963,2.625,4.49h0Z"/></g></g></g></svg>