<svg id="b" xmlns="http://www.w3.org/2000/svg" width="370.647" height="316.042" viewBox="0 0 370.647 316.042"><defs><style>.e{fill:#bdbdbd;}.f{fill:#fff;}.g{fill:#7fd4cd;}.h{fill:#211715;}.i{fill:#b3b3b3;}.j{fill:#645d5c;}</style></defs><g id="c"><g id="d"><path class="f" d="M267.046,116.138c-3.563-3.841-6.298-8.453-7.912-13.438-1.182,3.55-1.903,7.614-2.035,12.275-.626,5.986-1.472,14.291-7.181,16.854-1.134.509-2.155,1.278-2.738,2.369-1.536,2.888.937,4.419,2.403,6.258.972,1.214,1.503,2.587,1.796,4.048-.041,1.964.084,5.412.574,8.735.325,2.189.811,4.331,1.522,5.942,1.504,3.446,3.619,5.267,5.872,6.287,4.418,2,10.589,3.056,14.694,2.267.984-.19,1.957.397,2.268,1.351.048.155,1.605,3.097,2.766,6.683l2.2,6.464c2.844-2.269,9.856-6.145,15.712-7.755,5.316-1.462,12.21-2.869,16.27-3.429-.202-1.17-.301-2.177-.282-2.888.017-.646.073-1.41.154-2.231-.169-.034-.25-.05-.25-.05-4.055-.811-10.66-3.116-13.138-5.795-2.336-2.525-4.528-7.431-5.108-10.627,0,0,0-.79.006-1.788,3.191-2.234,5.234-5.471,5.989-9.863.421-2.449-.117-5.551-1.906-7.22-1.202-1.121-2.898-1.558-4.723-1.328-1.037.13-1.896.468-2.673.951-4.05-2.205-7.354-5.313-10.26-8.825-3.11-.003-7.929-.003-7.929-.003-2.222-1.51-4.265-3.275-6.091-5.244Z"/><path class="f" d="M89.678,187.449c-.117-.103-.231-.21-.342-.321-2.157-2.136-5.031-4.974-6.662-6.675-.946-.986-.968-1.803-.638-3.129.488-1.96,1.456-5.774,1.817-7.334,18.787-1.115,38.188-2.277,55.947-3.36-.006.019-.009.028-.009.028l-1.628,6.298c-.211.817.084,1.679.754,2.192,3.088,2.363,6.482,4.959,8.506,6.669,1.294,1.038,1.166,4.2-1.02,4.407-2.207.21-32.691,2.145-50.508,3.347-2.282.154-4.516-.613-6.217-2.122Z"/><path class="h" d="M137.862,166.126c-.51,1.971-1.044,3.938-1.529,5.915-.409,1.667-.176,3.33,1.17,4.52,1.822,1.612,3.907,2.986,5.82,4.494.822.648,1.648,1.296,2.447,1.974.494.42.468.352.48.944.005.246-.242.324,0,.268.239-.056-.297.02-.409.029-1.697.131-3.396.239-5.095.352-14.355.96-28.714,1.866-43.069,2.828-2.272.152-4.406.274-6.325-1.195-1.954-1.495-3.648-3.551-5.38-5.295-.593-.597-1.653-1.338-2.032-2.094-.304-.606.188-1.663.346-2.294.508-2.027,1.03-4.052,1.504-6.088.583-2.504-3.272-3.573-3.857-1.063-.436,1.873-.914,3.737-1.382,5.602-.522,2.082-1.231,4.227.14,6.148,1.286,1.801,3.15,3.323,4.715,4.878,1.705,1.694,3.331,3.591,5.568,4.587,2.249,1.001,4.458.966,6.855.805,1.92-.129,3.84-.256,5.76-.383,4.178-.276,8.356-.55,12.533-.823,7.56-.494,15.12-.982,22.679-1.483,2.174-.144,4.347-.285,6.52-.443.694-.051,1.454-.056,2.117-.266,1.885-.599,2.888-2.532,2.807-4.429-.104-2.427-1.879-3.628-3.617-5.008-1.144-.908-2.299-1.801-3.455-2.693-.601-.464-1.204-.926-1.806-1.388-.282-.216-1.218-.754-1.279-1.056-.024-.119.168-.621.213-.794l.543-2.1.875-3.385c.645-2.494-3.212-3.558-3.857-1.063h0Z"/><path class="f" d="M194.007,44.609c-28.136.561-132.389,2.76-168.982,3.586-2.251.051-4.042,1.883-4.042,4.134-.002,18.785-.002,97.47,0,117.01,0,2.39,2.013,4.271,4.398,4.129,49.036-2.917,134.734-7.951,168.984-10.288,2.173-.148,3.852-1.947,3.852-4.125.001-17.781.007-91.766.008-110.31,0-2.32-1.9-4.181-4.22-4.135Z"/><path class="h" d="M194.007,42.609c-6.674.133-13.349.271-20.023.409-9.622.199-19.243.4-28.865.602-11.247.236-22.495.473-33.742.711-11.385.241-22.77.483-34.154.727-10.196.218-20.393.438-30.589.66-4.241.092-8.481.185-12.722.279-1.791.04-3.581.079-5.372.119-2.056.046-4.372-.189-6.248.772-3.988,2.045-3.31,6.714-3.31,10.461,0,3.561,0,7.122,0,10.684,0,9.707,0,19.415,0,29.122,0,10.795,0,21.59,0,32.386,0,9.28,0,18.56,0,27.841,0,3.234,0,6.468,0,9.702,0,1.968-.132,3.987,1.059,5.691.943,1.349,2.351,2.294,3.975,2.586,1.343.241,2.757.024,4.109-.056,11.509-.684,23.019-1.366,34.528-2.049,12.933-.768,25.866-1.537,38.798-2.311s25.817-1.55,38.725-2.337c11.251-.686,22.501-1.379,33.751-2.093,4.537-.288,9.073-.579,13.609-.878,1.939-.128,3.879-.257,5.818-.388,1.365-.093,2.693-.204,3.893-.936,1.403-.856,2.454-2.282,2.81-3.89.322-1.455.159-3.082.159-4.568,0-1.53,0-3.06,0-4.59,0-4.003,0-8.006,0-12.009,0-10.187.001-20.374.002-30.561,0-10.642.002-21.283.002-31.925,0-8.128.001-16.257.002-24.385,0-1.211.043-2.43,0-3.64-.123-3.451-2.762-6.063-6.22-6.135-2.575-.054-2.575,3.946,0,4,2.239.047,2.22,2.079,2.219,3.758,0,1.398,0,2.797,0,4.195,0,3.747,0,7.493,0,11.24,0,9.742-.001,19.485-.002,29.227,0,10.548-.002,21.096-.002,31.644,0,8.453-.001,16.906-.002,25.359,0,1.48,0,2.96,0,4.439,0,1.224.326,3.012-.528,3.99-.687.787-1.687.742-2.643.807-.927.063-1.853.125-2.78.187-1.992.133-3.985.264-5.977.393-10.058.655-20.118,1.282-30.178,1.903-12.096.746-24.194,1.48-36.291,2.209-12.836.773-25.672,1.54-38.508,2.304-12.044.717-24.087,1.431-36.131,2.145-5.358.318-10.716.636-16.074.954-1.064.063-2.369.376-3.288-.321-.762-.578-.835-1.401-.835-2.279,0-1.304,0-2.608,0-3.912,0-7.839,0-15.678-.001-23.517,0-10.313,0-20.627,0-30.94,0-10.22,0-20.439,0-30.659,0-7.741,0-15.482,0-23.222,0-1.253-.006-2.505,0-3.758.004-.871.145-1.65.915-2.184.736-.511,1.71-.39,2.564-.409,3.57-.08,7.139-.159,10.709-.238,9.221-.203,18.442-.402,27.664-.601,10.819-.233,21.638-.464,32.458-.694,11.228-.239,22.455-.476,33.683-.713,10.242-.216,20.483-.43,30.725-.644,8.061-.168,16.122-.335,24.182-.5,2.708-.055,5.417-.11,8.125-.164,2.571-.051,2.579-4.051,0-4Z"/><path class="g" d="M138.497,150.85c-22.202,1.266-48.524,2.776-75.179,4.353,3.706-16.494,7.557-35.695,11.081-49.117.669-2.549,1.953-4.743,3.665-6.746,1.684-1.97,3.716-3.547,6.048-4.678,3.758-1.824,8.875-3.778,12.09-5.495,5.386,4.8,15.37,8.939,21.449,9.12,6.079.181,11.785-.923,17.249-3.259,1.868-.799,6.291-3.927,7.295-5.59,5.124,1.169,9.124,2.78,13.499,5.715,1.49.999,2.876,2.152,3.987,3.708.702.983,2.701,4.322,3.083,5.468,2.5,7.5,7.479,33.81,7.479,41.778,0,0,0,1.111.004,2.936-8.986.513-19.768,1.125-31.75,1.808Z"/><path class="j" d="M98.662,85.688c-5.039-.643-10.426-3.406-12.35-6.902-2.529-4.595-2.647-10.393-1.513-15.499,1.133-5.107,3.056-10.056,3.645-15.251.299-2.638.25-5.311.656-7.936.402-2.6,1.218-24.295,17.395-28.99,4.097-1.455,8.142-2.931,12.486-2.627,2.076.145,5.304.3,7.291.911,5.311,1.634,9.482,3.866,13.12,8.016,2.392,2.728,4.473,6.108,5.75,9.487,3.937,10.422,5.902,21.815,6.593,32.915.229,3.68.271,7.415-.569,11.008-.841,3.593-2.638,7.462-5.557,9.768-4.353,3.441-6.35,4.234-11.927,4.431l-35.019.669Z"/><path class="f" d="M95.294,62.629l.769.118c.832,2.939,2.25,6.277,4.759,9.277,2.391,2.857,5.091,4.972,8.046,6.161-.095,1.308-.355,2.456-.865,3.76-.59,1.51-1.68,3.21-3.92,4.17-1.14.48-6.86,2.88-7.41,3.05l-.35.108c5.411,4.755,15.294,8.834,21.328,9.014,6.079.181,11.785-.923,17.249-3.259,1.81-.774,6.019-3.735,7.193-5.428-1.483-.561-3.913-1.771-5.329-2.716-.73-.5-1.33-1.06-1.81-1.64-1.1-1.33-1.63-2.8-1.88-4.09-.323-1.575-.378-3.102-.53-4.974,2.855-2.115,5.278-5.172,6.906-7.682l2.176-3.355c1.031-7.51-.541-15.146-4.003-22.037-2.065-4.111-4.934-7.933-8.738-10.782-3.804-2.849-8.536-6.05-14.146-4.669-1.484,1.785-17.424,17.238-19.467,18.836l-1.209.946c-.745-.572-1.767-.836-2.728-.692-1.051.158-2.008.792-2.488,1.657-.34.606-.449,1.296-.511,1.97-.228,2.654.296,5.358,1.501,7.775.587,1.178,1.351,2.305,2.413,3.163.816.65,1.814,1.132,2.875,1.294l.169.026Z"/><path class="h" d="M128.262,80.459c2.896-.672,5.436-2.436,7.578-4.439,2.049-1.916,3.808-4.165,5.337-6.512.572-.878.206-2.249-.718-2.736-.997-.527-2.126-.22-2.736.718-.317.486-.643.966-.981,1.437-.179.25-.362.497-.547.743-.098.13-.228.292-.054.072-.108.137-.216.274-.325.409-.828,1.027-1.715,2.008-2.672,2.917-.482.458-.984.893-1.502,1.31-.286.23.09-.055-.093.07-.122.084-.24.176-.361.262-.289.204-.583.399-.884.584-.518.318-1.054.587-1.601.848-.214.102.289-.1-.069.025-.158.055-.315.117-.474.17-.316.104-.636.191-.96.266-1.02.237-1.72,1.461-1.397,2.46.345,1.066,1.367,1.65,2.46,1.397h0Z"/><path class="h" d="M95.684,46.188c-2.023-1.689-4.92-2.023-7.102-.394-2.227,1.662-2.479,4.56-2.235,7.141.451,4.771,2.974,10.655,8.247,11.596,1.062.19,2.156-.288,2.46-1.397.266-.968-.328-2.269-1.397-2.46-3.192-.57-4.622-3.975-5.179-6.858-.147-.759-.198-1.532-.194-2.305.004-.707-.027-1.498.284-2.104.373-.728,1.636-.936,2.288-.391.828.692,2.017.812,2.828,0,.712-.712.833-2.133,0-2.828h0Z"/><path class="h" d="M93.342,59.759c.886,5.057,2.843,9.866,6.178,13.81,3.49,4.126,8.112,7.065,13.541,7.648,1.076.115,2-1.002,2-2,0-1.177-.921-1.884-2-2-4.448-.477-8.19-3.38-10.938-6.745s-4.184-7.551-4.925-11.776c-.187-1.065-1.49-1.664-2.46-1.397-1.124.309-1.584,1.393-1.397,2.46h0Z"/><path class="h" d="M113.324,26.241c-2.007,2.387-4.413,4.505-6.639,6.681-3.221,3.149-6.459,6.282-9.745,9.364-1.007.944-1.999,1.934-3.083,2.791-.848.67-.701,2.127,0,2.828.838.838,1.978.672,2.828,0,2.498-1.975,4.743-4.347,7.037-6.548,3.238-3.105,6.46-6.23,9.635-9.401.943-.942,1.936-1.866,2.794-2.888.695-.826.81-2.018,0-2.828-.714-.714-2.13-.831-2.828,0h0Z"/><path class="h" d="M115.27,29.584c3.979-.901,7.592.93,10.783,3.146,3.262,2.264,6.016,5.001,8.14,8.368,4.26,6.753,6.387,14.96,5.568,22.925-.484,4.705-2.163,9.2-4.625,13.216-1.349,2.2,2.109,4.212,3.454,2.019,4.987-8.133,6.454-17.751,4.413-27.045-1.973-8.986-6.802-17.112-14.309-22.497-4.292-3.078-9.134-5.2-14.487-3.988-2.51.568-1.448,4.425,1.063,3.857h0Z"/><path class="h" d="M99.193,83.759c-3.31-.457-6.823-1.618-9.369-3.867-2.492-2.201-3.439-5.649-3.657-8.875-.546-8.065,3.535-15.518,4.325-23.449.272-2.732.399-5.47.693-8.201.056-.515.107-1.03.165-1.544.036-.318.076-.636.115-.954.05-.402-.003.011.014-.115.032-.229.064-.459.098-.688.577-3.866,1.51-7.82,3.116-11.354,1.909-4.204,4.736-7.996,8.846-10.247,1.073-.588,2.177-1.006,3.337-1.386,1.952-.64,3.866-1.381,5.856-1.904,3.592-.944,7.29-.827,10.947-.295,6.771.985,12.811,5.283,16.548,10.893,2.232,3.35,3.587,7.04,4.768,10.865,1.229,3.978,2.194,8.035,2.943,12.13.73,3.995,1.243,8.023,1.578,12.07.342,4.124.703,8.413-.082,12.507-.634,3.303-1.935,6.714-4.4,9.089-1.901,1.832-4.361,3.485-6.951,4.106-1.444.346-2.925.419-4.404.476-2.566.099-2.579,4.1,0,4,3.231-.125,6.372-.514,9.235-2.117,3.148-1.764,5.994-4.211,7.789-7.367,4.37-7.684,3.325-17.099,2.329-25.509-1.047-8.838-2.821-17.77-6.123-26.066-2.984-7.497-8.461-13.786-15.94-16.971-1.708-.727-3.489-1.44-5.315-1.804-1.865-.372-3.778-.507-5.673-.634-4.455-.3-8.527.697-12.706,2.164-2.917,1.024-5.715,2.007-8.206,3.898-2.204,1.673-4.049,3.697-5.582,6-2.666,4.006-4.277,8.708-5.24,13.397-.376,1.83-.648,3.68-.866,5.535-.066.561-.124,1.123-.183,1.685-.02.192-.049.385-.063.578-.027.372.048-.321.037-.265-.111.562-.163,1.148-.226,1.717-.249,2.252-.241,4.524-.504,6.775-.256,2.185-.793,4.338-1.365,6.458-1.133,4.204-2.521,8.358-2.877,12.723-.334,4.098.247,8.328,2.096,12.028,1.648,3.299,4.894,5.44,8.209,6.823,1.81.755,3.68,1.28,5.624,1.549,1.069.148,2.148-.259,2.46-1.397.257-.934-.32-2.311-1.397-2.46h0Z"/><path class="h" d="M115.288,67.876c1.567.826,3.251,1.184,5.024,1.171,1.874-.013,3.69-.416,5.181-1.579.338-.263.527-.868.527-1.273,0-.441-.196-.969-.527-1.273-.791-.726-1.75-.621-2.546,0,.625-.487.006-.029-.19.074-.151.08-.549.207.029.005-.135.047-.267.103-.404.147-.37.119-.763.148-1.13.259.185-.056.32-.038.044-.011-.111.011-.222.02-.333.028-.267.017-.535.024-.803.023-.24-.001-.48-.009-.719-.025-.11-.007-.22-.016-.33-.027-.063-.006-.125-.013-.188-.021-.142-.017-.082-.009.18.024-.07-.07-.435-.077-.541-.1-.173-.038-.345-.083-.515-.133-.148-.044-.294-.093-.438-.147-.047-.018-.094-.038-.141-.055-.289-.102.431.202.174.072-.179-.09-.36-.174-.537-.268-.832-.439-1.995-.239-2.463.646-.439.831-.244,1.994.646,2.463h0Z"/><path class="h" d="M119.13,56.376c.207.787.406,1.587.525,2.393l-.064-.479c.014.11.02.219.009.33l.064-.479c-.008.051-.019.099-.036.149l.181-.43c-.015.035-.031.064-.052.096l.281-.364c-.025.03-.048.053-.078.077l.364-.281c-.06.039-.124.07-.189.1l.43-.181c-.104.044-.208.076-.319.093l.479-.064c-.101.012-.199.011-.3,0l.479.064c-.273-.038-.542-.086-.816-.123-.248-.009-.479.042-.694.155-.223.073-.416.197-.579.372-.312.312-.547.824-.527,1.273.021.466.174.948.527,1.273l.364.281c.281.163.584.245.908.246l.028.004-.479-.064c.309.049.616.126.93.129.513.005.984-.145,1.436-.373.552-.278.995-.827,1.127-1.435.113-.526.069-.922-.023-1.448-.133-.764-.307-1.521-.505-2.271-.114-.435-.441-.85-.827-1.076s-.954-.321-1.387-.181c-.436.141-.856.411-1.076.827-.228.431-.308.907-.181,1.387h0Z"/><path class="h" d="M106.898,49.392c-.419,1.364-.143,4.5,2.44,4.765,3.414-.023,3.593-3.815,2.443-5.597-.942-1.459-3.709-2.065-4.883.832Z"/><path class="h" d="M133.192,49.374c.421,1.363.149,4.5-2.434,4.769-3.414-.018-3.599-3.81-2.45-5.594.94-1.46,3.707-2.069,4.884.826Z"/><path class="h" d="M95.193,87.44c-4.495,2.368-9.56,3.776-13.868,6.48-4.515,2.834-7.723,7.255-9.053,12.399-2.827,10.935-4.906,22.054-7.244,33.1-.612,2.891-1.458,5.805-1.543,8.775-.067,2.363.134,5.267,1.608,7.228.648.862,1.728,1.307,2.736.718.85-.497,1.37-1.868.718-2.736-1.077-1.434-1.111-3.488-1.062-5.209.07-2.447.793-4.85,1.299-7.234,1.157-5.455,2.267-10.92,3.416-16.377,1.046-4.972,2.122-9.939,3.341-14.871.576-2.331,1.082-4.636,2.33-6.717,1.174-1.959,2.771-3.733,4.634-5.059,2.215-1.577,4.815-2.58,7.296-3.655s5.008-2.12,7.412-3.386c2.278-1.2.259-4.654-2.019-3.454h0Z"/><path class="h" d="M87.443,153.905c1.071-11.817,1.775-23.665,2.27-35.52.108-2.574-3.893-2.569-4,0-.495,11.855-1.199,23.703-2.27,35.52-.098,1.077.989,2,2,2,1.163,0,1.902-.92,2-2h0Z"/><path class="h" d="M152.852,150.677c2.391-12.161,3.757-24.456,3.261-36.862-.102-2.565-4.103-2.578-4,0,.481,12.056-.795,23.978-3.119,35.798-.494,2.514,3.36,3.591,3.857,1.063h0Z"/><path class="h" d="M141.664,91.366c3.003.697,5.954,1.601,8.716,2.987,2.626,1.317,5.493,2.9,7.356,5.231,2.275,2.847,3.288,5.594,4.16,8.979,2.215,8.595,3.827,17.39,5.157,26.162.569,3.752,1.176,7.577,1.19,11.381.01,2.573,4.01,2.578,4,0-.014-3.671-.591-7.362-1.117-10.987-.691-4.766-1.524-9.512-2.44-14.24-.847-4.37-1.751-8.735-2.849-13.05-.356-1.4-.694-2.833-1.201-4.188-.74-1.98-1.931-3.927-3.134-5.657-2.08-2.99-5.214-5.038-8.39-6.719-3.277-1.735-6.781-2.922-10.386-3.758-2.505-.581-3.574,3.275-1.063,3.857h0Z"/><path class="h" d="M140.468,88.428c-1.02,1.574-3.706,3.312-5.573,4.363-2.921,1.643-6.502,2.488-9.783,3.036-3.144.526-6.569.78-9.726.224-3.013-.53-5.976-1.525-8.762-2.779-3.201-1.44-6.36-3.195-9.008-5.52-1.927-1.692-4.767,1.126-2.828,2.828,5.164,4.535,12.019,7.785,18.739,9.175,3.743.774,7.575.644,11.345.124,3.912-.54,7.96-1.564,11.505-3.347,1.46-.734,2.812-1.711,4.103-2.705,1.274-.981,2.558-2.017,3.443-3.381,1.404-2.167-2.057-4.174-3.454-2.019h0Z"/><path class="h" d="M110.336,21.887c.561.821.921,1.827,1.305,2.738l-.202-.478c.466,1.108.921,2.228,1.275,3.378.308.999,1.411,1.736,2.46,1.397,1.006-.326,1.727-1.389,1.397-2.46-.409-1.328-.951-2.615-1.493-3.893-.381-.898-.735-1.89-1.289-2.7-.297-.434-.675-.776-1.195-.919-.479-.132-1.116-.072-1.541.202-.858.553-1.349,1.813-.718,2.736h0Z"/><path class="h" d="M142.205,87.506c.274.114-.008-.004-.131-.058-.155-.068-.309-.138-.463-.209-.292-.135-.582-.273-.87-.416-.616-.304-1.225-.624-1.821-.964-1.063-.607-1.996-1.233-2.677-2.201-.199-.282-.375-.581-.536-.886-.086-.163-.169-.328-.242-.497.08.186-.021-.062-.04-.117-.21-.612-.37-1.227-.487-1.864-.109-.597-.154-1.027-.219-1.798-.069-.813-.121-1.628-.187-2.442-.084-1.04-.859-2.051-2-2-1.011.045-2.091.883-2,2,.274,3.375.325,6.958,2.394,9.816,1.984,2.741,5.166,4.229,8.214,5.493.969.402,2.241-.433,2.46-1.397.266-1.167-.359-2.03-1.397-2.46h0Z"/><path class="h" d="M97.205,91.093c1.765-.569,3.476-1.403,5.185-2.117.901-.376,1.808-.743,2.703-1.134,1.643-.717,3.016-1.982,3.954-3.502,1.12-1.818,1.636-3.98,1.817-6.085.09-1.045-.984-2.045-2-2-1.161.052-1.904.88-2,2-.012.149-.026.298-.042.446.027-.167.021-.127-.018.12-.05.286-.105.571-.173.853-.144.596-.359,1.159-.555,1.739-.081.202-.069.173.038-.086-.039.089-.08.177-.122.264-.087.18-.18.357-.28.531-.077.134-.159.267-.244.396-.058.088-.118.175-.18.261.152-.19.157-.196.014-.02-.304.343-.614.678-.978.959.32-.248-.294.178-.357.216-.193.116-.479.333-.702.37.381-.062.276-.114.135-.053-.088.038-.176.074-.264.111-.233.098-.466.195-.698.293-1.25.524-2.5,1.046-3.752,1.563-.839.346-1.677.74-2.542,1.019-.994.32-1.739,1.402-1.397,2.46.322.995,1.394,1.741,2.46,1.397h0Z"/><path class="h" d="M182.211,146.356c-15.21.878-30.421,1.735-45.631,2.603-20.739,1.183-41.478,2.375-62.216,3.592-12.522.735-25.044,1.479-37.564,2.236-2.558.155-2.575,4.156,0,4,22.02-1.332,44.043-2.623,66.066-3.894,18.836-1.088,37.672-2.159,56.508-3.231,7.612-.433,15.225-.866,22.837-1.305,2.559-.148,2.576-4.149,0-4h0Z"/><path class="e" d="M352.315,288.947c2.021-15.139,1.425-59.002.187-68.338-.757-5.739-1.683-11.503-3.59-16.907-4.31-12.219-13.773-22.032-24.969-25.503-3.348-5.894-5.401-7.486-8.188-7.399-2.904.09-12.083,1.842-18.767,3.68-6.089,1.674-13.429,5.799-16.047,8.023-1.407,1.196-2.814,4.888-3.597,6.753l-1.073,2.557c-.915.431-1.845.877-2.794,1.341-8.574,4.187-13.978,9.173-17.991,18.01-4.688,10.322-8.757,28.83-12.083,43.417-1.766,7.746-3.052,12.642-5.966,21.273,0,0,11.882,16.811,49.549,18.144s65.329-5.048,65.329-5.048Z"/><path class="h" d="M2,235.132c12.064-1.072,24.136-2.054,36.208-3.032,16.163-1.309,32.328-2.588,48.493-3.859,17.452-1.372,34.906-2.733,52.359-4.093,15.551-1.212,31.102-2.421,46.652-3.641,10.835-.85,21.671-1.696,32.503-2.593.841-.07,1.681-.14,2.522-.21,2.546-.214,2.569-4.216,0-4-10.042.845-20.089,1.628-30.135,2.419-15.128,1.19-30.257,2.367-45.386,3.546-17.393,1.355-34.787,2.71-52.18,4.075-16.469,1.292-32.937,2.592-49.403,3.919-12.742,1.027-25.483,2.059-38.218,3.169-1.139.099-2.277.199-3.416.301-1.076.096-2,.851-2,2,0,1.008.918,2.096,2,2h0Z"/><path class="j" d="M284.211,78.394c-13.354,3.905-20.046,12.723-21.248,14.745-1.848,3.11-3.135,5.68-4.021,8.962,2.369,7.783,7.467,14.707,14.196,19.28,0,0,4.819,0,7.929.003,2.906,3.512,6.21,6.62,10.26,8.825.777-.483,1.636-.821,2.673-.951,1.825-.23,3.521.207,4.723,1.328,1.789,1.669,2.327,4.772,1.906,7.22-.755,4.393-2.798,7.629-5.989,9.863-.006.998-.006,1.788-.006,1.788.58,3.196,2.772,8.102,5.108,10.627,2.478,2.679,9.083,4.984,13.138,5.795l2.787.539c2.047-4.268,7.44-8.101,10.652-11.118,5.79-5.438,14.431-16.244,15.171-32.113.409-8.769-2.253-17.86-5.972-24.316-9.567-16.611-21.487-20.24-28.89-21.726-7.403-1.486-14.731-.819-21.421.969-.336.09-.669.183-.997.279Z"/><path class="h" d="M291.461,132.577c1.799-1.525,4.941-2.179,6.43.126,1.364,2.11.916,4.871.188,7.113-1.527,4.706-5.513,7.403-10.109,8.687-2.476.692-1.424,4.552,1.063,3.857,4.957-1.385,9.56-4.229,11.886-8.98,1.16-2.369,1.983-5.148,1.825-7.807-.173-2.93-1.376-6.092-4.138-7.497-3.422-1.741-7.182-.696-9.975,1.671-.825.699-.719,2.109,0,2.828.817.817,2.002.7,2.828,0h0Z"/><path class="h" d="M259.813,123.164c-.81,1.677-1.152,5.785,1.96,6.649,4.194.661,5.236-4.202,4.212-6.737-.839-2.075-4.103-3.417-6.171.088Z"/><path class="h" d="M281.004,175.238c-.557-1.684-1.212-3.331-1.933-4.951-.226-.507-.46-1.01-.7-1.51-.073-.152-.14-.31-.222-.457-.216-.388.268.657-.039-.068-.67-1.586-2.162-2.607-3.906-2.533-1.493.064-2.914.326-4.428.248-3.181-.165-6.514-.902-9.419-2.225-2.637-1.2-4.449-3.47-5.38-6.196-1.198-3.506-1.493-7.351-1.588-11.032-.046-1.783-.127-3.281-.849-4.949-.64-1.477-1.621-2.638-2.698-3.811-.692-.753-1.458-1.493-.934-2.545.627-1.26,2.118-1.584,3.206-2.31,2.329-1.556,3.8-3.899,4.801-6.467,2.566-6.581,1.724-13.833,3.392-20.602.616-2.499-3.24-3.565-3.857-1.063-1.535,6.228-.991,12.755-2.819,18.922-.66,2.227-1.722,4.656-3.786,5.918-1.315.804-2.664,1.331-3.678,2.563-1.105,1.343-1.742,3.132-1.344,4.869.663,2.897,3.722,4.31,4.444,7.212.368,1.48.138,3.248.243,4.776.135,1.979.358,3.959.707,5.912.627,3.51,1.878,6.967,4.382,9.589,2.159,2.261,5.14,3.434,8.094,4.263,3.671,1.03,7.449,1.425,11.234.982.673-.079.375-.298.671.359.165.366.35.724.521,1.087.78,1.654,1.455,3.347,2.03,5.084.805,2.432,4.669,1.39,3.857-1.063h0Z"/><path class="h" d="M259.94,107.345c.687-5.169,2.497-10.208,5.598-14.435.218-.298-.193.237.054-.072.104-.13.207-.26.312-.388.277-.338.562-.67.853-.995.654-.731,1.341-1.433,2.053-2.108,1.843-1.744,3.857-3.276,6.014-4.611,10.989-6.797,25.215-8.238,37.396-4.033,11.183,3.861,19.986,13.757,24.198,24.673,2.759,7.151,3.839,14.946,2.594,22.541-1.034,6.31-3.443,12.269-6.983,17.584-2.747,4.124-6.139,7.601-9.882,10.82-2.51,2.159-5.009,4.348-6.965,7.041-1.777,2.448-2.424,4.99-2.269,7.972.08,1.533.24,3.063.48,4.579.17,1.068,1.502,1.66,2.46,1.397,1.137-.313,1.567-1.389,1.397-2.46-.236-1.487-.345-3.009-.375-4.513-.006-.289-.001-.577-.001-.866,0-.12.007-.241.015-.361.027-.396-.083.391.007-.1.121-.666.347-1.302.659-1.901,1.51-2.905,4.158-5.134,6.594-7.245,4.09-3.544,7.808-7.214,10.894-11.691,8.478-12.302,10.71-27.905,5.884-42.067-4.221-12.387-13.438-23.54-25.697-28.527-12.486-5.08-27.409-4.074-39.368,1.99-9.077,4.603-16.291,12.242-18.908,22.229-.478,1.825-.766,3.683-1.015,5.55-.143,1.073,1.021,2,2,2,1.199,0,1.857-.924,2-2h0Z"/><path class="h" d="M258.122,145.256c-1.064.336-2.146.606-3.252.76l.532-.071c-1.016.133-2.038.165-3.057.041l.532.071c-.248-.033-.494-.075-.74-.125-1.022-.209-2.209.295-2.46,1.397-.227.998.301,2.236,1.397,2.46,2.723.557,5.487.153,8.112-.676.996-.315,1.738-1.406,1.397-2.46-.323-1-1.392-1.735-2.46-1.397h0Z"/><path class="h" d="M267.777,291.631c2.346-2.913,4.232-6.032,5.464-9.576,1.128-3.244,1.738-6.671,2.424-10.029,1.358-6.646,2.656-13.356,3.338-20.111.109-1.076-.997-2-2-2-1.172,0-1.891.921-2,2-.632,6.263-1.861,12.485-3.113,18.648-.647,3.186-1.231,6.426-2.209,9.53-1.006,3.195-2.633,6.102-4.732,8.709-.677.841-.821,2.007,0,2.828.701.701,2.147.846,2.828,0h0Z"/><path class="h" d="M318.798,178.762c-9.373.964-18.764,2.29-27.79,5.073-3.915,1.207-7.735,2.687-11.491,4.32-4.099,1.782-8.257,3.632-12.035,6.034-3.64,2.314-6.819,5.17-9.421,8.612-2.623,3.469-4.468,7.422-6.01,11.47-3.495,9.179-5.739,18.846-7.969,28.393-2.568,10.995-4.965,21.94-8.574,32.656-.823,2.445,3.039,3.494,3.857,1.063,3.094-9.188,5.328-18.518,7.489-27.959,2.211-9.66,4.426-19.369,7.534-28.788,2.555-7.743,5.986-15.204,12.629-20.277,3.465-2.647,7.442-4.521,11.381-6.341,3.563-1.646,7.187-3.152,10.901-4.423,9.535-3.263,19.504-4.804,29.499-5.832,1.074-.11,2-.84,2-2,0-.996-.919-2.111-2-2h0Z"/><path class="h" d="M324.767,175.651c-1.93-3.122-4.347-6.56-8.336-6.838-1.347-.094-2.742.168-4.069.359-1.896.273-3.781.619-5.659.991-4.291.85-8.682,1.727-12.808,3.203-4.022,1.439-7.946,3.349-11.538,5.663-1.569,1.011-3.063,2.047-4.101,3.628-1.223,1.861-1.986,4.02-2.839,6.065-.416.997.449,2.2,1.397,2.46,1.152.317,2.043-.396,2.46-1.397.621-1.49,1.217-2.998,2.011-4.407.7-1.242,1.452-1.807,2.583-2.563,3.101-2.072,6.496-3.824,9.971-5.174,3.626-1.408,7.465-2.253,11.259-3.069,3.178-.684,6.424-1.39,9.648-1.702.555-.054,1.128-.113,1.685-.057.233.023.809.198,1.218.445,1.616.978,2.699,2.85,3.665,4.412,1.351,2.185,4.813.179,3.454-2.019h0Z"/><path class="h" d="M261.844,214.69c2.185.451,4.283,1.226,6.233,2.31,1.821,1.013,3.183,2.272,4.567,3.85,2.574,2.936,3.884,6.13,4.58,9.931.195,1.063,1.484,1.665,2.46,1.397,1.118-.307,1.592-1.394,1.397-2.46-.811-4.426-2.638-8.308-5.609-11.696-3.282-3.742-7.685-6.182-12.565-7.189-1.057-.218-2.161.308-2.46,1.397-.272.99.334,2.241,1.397,2.46h0Z"/><path class="h" d="M326.87,181.437c8.599,4.006,15.164,11.356,18.996,19.961,3.272,7.347,4.521,15.743,5.037,23.732.917,14.18.903,28.479.611,42.68-.145,7.036-.276,14.151-1.198,21.138-.142,1.073,1.021,2,2,2,1.198,0,1.858-.924,2-2,.823-6.237.987-12.576,1.146-18.858.203-8.029.219-16.064.115-24.095-.086-6.667-.224-13.343-.62-20-.48-8.06-1.633-16.382-4.527-23.944-3.929-10.268-11.471-19.377-21.541-24.068-.979-.456-2.156-.275-2.736.718-.506.866-.266,2.278.718,2.736h0Z"/><path class="h" d="M256.975,102.51c2.558,8.38,7.934,15.647,15.153,20.598.891.611,2.219.167,2.736-.718.579-.991.176-2.124-.718-2.736-6.338-4.347-11.074-10.864-13.315-18.208-.749-2.455-4.611-1.408-3.857,1.063h0Z"/><path class="h" d="M271.841,111.728c4.619,7.173,9.471,14.481,16.767,19.198,2.168,1.402,4.176-2.06,2.019-3.454-6.689-4.325-11.103-11.195-15.332-17.763-1.389-2.157-4.853-.154-3.454,2.019h0Z"/><path class="h" d="M292.705,149.99c.46,2.415,1.421,4.761,2.539,6.941,1.037,2.023,2.324,4.084,4.129,5.505,1.93,1.518,4.17,2.542,6.446,3.429,2.116.824,4.304,1.49,6.529,1.945,1.057.216,2.161-.306,2.46-1.397.272-.988-.334-2.243-1.397-2.46-3.898-.796-8.225-2.097-11.441-4.527.195.148-.262-.22-.255-.214-.148-.129-.292-.263-.429-.404-.261-.266-.531-.584-.74-.859-.714-.942-1.31-1.987-1.848-3.037-.968-1.886-1.738-3.899-2.135-5.985-.202-1.062-1.479-1.667-2.46-1.397-1.112.306-1.6,1.396-1.397,2.46h0Z"/><path class="j" d="M329.902,144.2c5.33.643,10.048,2.438,13.15,6.261,3.78,4.658,3.951,11.097,1.754,16.364-3.345,8.021-9.267,19.363-3.92,26.045-4.091,3.58-12.831-.072-15.747-1.729-3.709-2.107-5.952-5.364-8.111-8.907-2.375-3.898-4.125-11.272-4.051-14.072.054-2.025.485-5.206.9-7.691"/><path class="h" d="M329.902,146.2c3.637.46,7.463,1.579,10.234,4.089,2.852,2.583,4.196,6.223,4.085,10.033-.112,3.833-1.898,7.219-3.362,10.676-1.527,3.605-3.037,7.293-3.722,11.168-.71,4.014-.565,8.359,2.023,11.714l.313-2.424c-1.962,1.625-5.279.908-7.487.31-2.57-.697-5.214-1.735-7.362-3.34-2.723-2.035-4.829-5.143-6.387-8.128-1.475-2.825-2.356-6.041-2.942-9.161-.635-3.376-.041-6.781.513-10.134.176-1.064-.278-2.153-1.397-2.46-.957-.263-2.283.325-2.46,1.397-.605,3.664-1.265,7.381-.711,11.085.549,3.676,1.644,7.369,3.258,10.72,1.72,3.572,4.301,7.17,7.433,9.621,2.569,2.01,5.707,3.344,8.836,4.214,3.863,1.074,8.267,1.413,11.536-1.294.606-.502.812-1.777.313-2.424-2.231-2.892-2.137-6.474-1.364-9.891.904-3.999,2.552-7.788,4.174-11.537,1.652-3.821,3.076-7.577,2.763-11.828-.316-4.289-2.105-8.387-5.356-11.264-3.617-3.202-8.226-4.546-12.927-5.141-1.073-.136-2,1.016-2,2,0,1.194.923,1.864,2,2h0Z"/><path class="f" d="M297.653,314.115c.611-12.889,2.017-25.733,2.866-37.867.346-4.951,3.307-9.319,8.076-10.695,14.162-4.086,34.787-10.105,49.034-14.246,5.558-1.615,11.514,2.599,11.069,8.37-1.379,17.874-1.563,24.754-2.463,37.859"/><path class="h" d="M299.653,314.115c.602-12.49,1.91-24.932,2.833-37.4.323-4.359,2.655-8.064,6.971-9.329,4.64-1.359,9.289-2.687,13.931-4.035,10.096-2.932,20.189-5.874,30.284-8.811,2.052-.597,4.304-1.594,6.462-1.58,1.901.013,3.759.824,5.047,2.226,1.467,1.597,1.6,3.408,1.442,5.472-.212,2.774-.415,5.549-.607,8.324-.659,9.514-1.129,19.039-1.78,28.553-.176,2.569,3.825,2.558,4,0,.607-8.87,1.051-17.75,1.648-26.621.193-2.864.398-5.728.613-8.591.206-2.743.405-5.244-.903-7.767-2.243-4.326-7.522-6.397-12.162-5.269-4.991,1.214-9.915,2.877-14.847,4.313-5.43,1.581-10.859,3.161-16.29,4.739-5.174,1.504-10.349,3.006-15.526,4.502-2.405.695-4.781,1.301-6.81,2.839-1.944,1.473-3.389,3.427-4.32,5.676-1.198,2.896-1.194,6.037-1.435,9.118-.287,3.675-.605,7.347-.919,11.019-.644,7.533-1.269,15.068-1.633,22.62-.124,2.573,3.876,2.567,4,0h0Z"/><path class="f" d="M151.498,126.271c-1.278-3.796-4.249-13.761-7.679-24.802-.159-.512-.69-.811-1.208-.674-8.297,2.198-26.534,6.94-35.354,9.566-.53.158-.829.711-.672,1.241,2.404,8.119,10.422,36.341,12.758,44.284.15.509.664.811,1.18.689,5.791-1.361,20.219-5.223,24.351-6.412"/><path class="h" d="M153.427,125.74c-1.65-4.92-3.101-9.91-4.62-14.871-.493-1.61-.987-3.219-1.482-4.829-.554-1.8-.937-3.896-1.78-5.584-1.383-2.769-4.692-1.263-6.931-.674-10.155,2.676-20.335,5.288-30.42,8.219-1.176.342-2.466.593-3.174,1.703-.724,1.134-.398,2.306-.052,3.485.451,1.535.896,3.072,1.34,4.609,1.269,4.389,2.528,8.781,3.787,13.173,2.363,8.244,4.701,16.495,7.108,24.726.389,1.329.99,2.51,2.482,2.831,1.143.246,2.478-.286,3.594-.563,2.666-.661,5.325-1.351,7.982-2.048,4.723-1.239,9.451-2.477,14.145-3.825,2.47-.709,1.42-4.57-1.063-3.857-3.729,1.07-7.481,2.062-11.23,3.056-2.333.619-4.667,1.231-7.004,1.832-.952.245-1.905.488-2.858.727-.507.127-1.015.254-1.523.379-.326.08-1.096.11-1.337.324l-.202.048,1.044.617c.023-.018-.123-.392-.127-.433-.021-.25-.162-.554-.232-.795-.209-.716-.417-1.433-.624-2.15-.485-1.675-.967-3.351-1.449-5.027-1.223-4.255-2.442-8.512-3.662-12.768-1.243-4.338-2.486-8.676-3.733-13.012-.511-1.775-1.022-3.55-1.536-5.324-.372-1.283-.593-2.86-1.184-4.06-.049-.1-.049-.368-.13-.441.675.615-1.281,1.229-.05.868.424-.125.849-.248,1.274-.371,1.038-.3,2.077-.594,3.116-.885,2.385-.669,4.775-1.322,7.166-1.97,5.042-1.366,10.092-2.702,15.143-4.034,2.265-.597,4.531-1.193,6.796-1.791.156-.041.583-.08.702-.185.375-.054.302-.126-.22-.216-.499-.309-.599-.204-.299.315-.014.833.614,1.983.864,2.793.593,1.924,1.184,3.849,1.774,5.774,1.563,5.102,3.054,10.235,4.75,15.296.814,2.428,4.679,1.387,3.857-1.063h0Z"/><path class="f" d="M155.284,157.844c-1.157.031-2.32-.242-3.38-.714-.84-.374-1.63-.877-2.275-1.533-1.066-1.085-1.69-2.547-1.968-4.043-.289-1.556-.534-1.937-.367-3.612-1.539-.687-2.548-1.264-3.248-1.572-1.008-.443-2.009-1.007-2.654-1.899-.51-.705-.763-1.59-.704-2.458.049-.711.355-1.81.629-2.344,0,0-1.596-1.16-1.734-1.449-.861-1.806.166-4.89.976-6.172.586-.928,1.097-1.234,2.171-1.458.603-.126,1.51.027,2.093.224,3.267,1.106,5.944,2.391,8.943,4.033-.673-1.919-1.769-4.999-2.338-6.929-.108-.367-.234-1.27-.162-1.646.126-.66.64-.825,1.126-.863s1.722.076,2.157.296c1.607.814,3.432,3.054,4.639,5.031,1.505,2.465,2.55,4.904,2.958,7.763.164,2.062.35,5.17.028,7.001-.457,2.605-.498,4.16-1.19,6.95-.31,1.25-.71,2.521-1.54,3.506-.88,1.044-2.197,1.676-3.552,1.842-.203.025-.407.04-.61.045Z"/><path class="h" d="M154.326,132.873c-2.508-1.352-5.081-2.574-7.756-3.56-2.397-.884-5.323-1.279-7.157.933-1.447,1.745-2.282,4.409-2.144,6.666.069,1.13.35,2.249,1.2,3.043.566.529,1.214.984,1.839,1.44l-.718-2.736c-1.208,2.568-1.317,5.62.836,7.741.864.852,1.904,1.352,2.98,1.868,1.029.494,2.036,1.024,3.079,1.488.986.439,2.149.287,2.736-.718.499-.852.274-2.295-.718-2.736-1.517-.675-3.129-1.374-4.56-2.222-.575-.341-1.101-.783-1.238-1.47-.08-.404-.03-.577.045-.916.048-.217.104-.432.169-.644.019-.063.26-.662.124-.373.497-1.056.223-2.05-.718-2.736-.134-.098-.267-.197-.399-.297-.056-.042-.355-.28-.085-.064-.119-.095-.239-.19-.356-.289-.097-.082-.19-.195-.297-.263-.347-.217.247.224.166.254-.064.023-.098-.773-.097-.852.013-.73.219-1.51.491-2.271.137-.382.489-1.119.763-1.394.198-.198-.018-.053.292-.137.337-.091.427-.117.729-.078,1.018.134,2.051.637,2.998,1.011,1.987.785,3.897,1.753,5.776,2.765,2.266,1.222,4.288-2.231,2.019-3.454h0Z"/><path class="h" d="M155.245,133.036c-.618-1.768-1.263-3.535-1.791-5.333-.078-.266-.092-.628-.201-.872-.02-.045.032-.314-.006-.333l-.427.455c-.541.363-.612.512-.212.448.476.228.993.033,1.476.352,1.417.936,2.505,2.572,3.379,3.992,1.006,1.635,1.835,3.354,2.333,5.213.906,3.379.568,6.941.093,10.35-.398,2.853-.519,7.953-4.159,8.505-4.475.678-6.708-3.913-6.454-7.681.173-2.57-3.827-2.559-4,0-.348,5.159,2.539,10.381,7.826,11.488,2.637.552,5.569.006,7.507-1.975,1.829-1.87,2.396-4.638,2.82-7.126.806-4.736,1.482-9.685.276-14.422-.635-2.494-1.795-4.895-3.212-7.037-1.299-1.963-3.097-4.448-5.41-5.284-2.243-.81-5.583-.437-5.815,2.495-.097,1.217.291,2.404.66,3.545.464,1.435.963,2.859,1.461,4.283.844,2.414,4.71,1.376,3.857-1.063h0Z"/><path class="f" d="M94.518,155.672c-2.692,1.823-5.686,3.441-8.978,3.554-5.177.178-10.009-3.878-10.818-8.712-.809-4.834,2.101-8.921,7.266-10.808,2.861-.624,7.751-1.823,10.158-1.943,2.096-.104,4.498.175,5.507,1.913.78,1.343.503,3.105-.488,4.317-.991,1.212-2.596,1.896-4.211,2.026,1.299.744,2.624,1.509,3.586,2.619.962,1.11,1.507,2.652,1.009,4.007-.421,1.146-1.487,1.957-2.522,2.676-.168.117-.338.234-.509.349Z"/><path class="h" d="M93.509,153.946c-3.316,2.225-7.247,4.271-11.274,2.718-3-1.157-5.51-4.076-5.639-7.366s2.008-5.77,4.832-7.189c1.518-.763,3.322-.979,4.972-1.34,1.699-.372,3.423-.788,5.157-.959,1.181-.116,3.726-.38,4.404.938.93,1.808-1.602,3.126-3.006,3.273-1.856.195-2.868,2.66-1.009,3.727,1.328.762,3.103,1.62,3.663,3.163.533,1.468-1.071,2.334-2.099,3.035-2.114,1.442-.115,4.909,2.019,3.454,2.417-1.648,4.659-3.629,4.099-6.855-.528-3.039-3.18-4.826-5.664-6.251l-1.009,3.727c2.742-.288,5.429-1.519,6.605-4.168,1.14-2.569.371-5.666-2.135-7.102-2.114-1.211-4.729-1.117-7.059-.793-2.415.336-4.796.896-7.173,1.432-4.608,1.039-8.98,3.981-10.246,8.783-1.306,4.954,1.13,9.926,5.181,12.791,2.348,1.66,5.335,2.487,8.199,2.206,3.385-.332,6.418-1.903,9.203-3.772,2.127-1.427.127-4.893-2.019-3.454Z"/><path class="i" d="M57.762,82.513c0-2.719-1.729-5.21-4.662-5.193.475-.143,2.614-2.327,2.614-4.893,0-1.82-1.512-4.78-5.299-4.65-3.787.134-5.299,3.2-5.299,5.02,0,2.567,2.139,4.601,2.614,4.711-1.988.025-4.409,2.79-4.409,5.51l14.441-.504Z"/><path class="h" d="M63.382,61.485c-8.559.192-17.128.315-25.681.7-1.079.049-2.001.877-2,2,.006,6.391.008,12.781.008,19.172,0,1.062.916,2.025,2,2,8.557-.2,17.113-.528,25.667-.842,1.08-.04,2-.884,2-2,0-6.343-.029-12.687.006-19.029.014-2.574-3.986-2.577-4,0-.036,6.343-.006,12.687-.006,19.029l2-2c-8.553.314-17.11.642-25.667.842l2,2c0-6.391-.002-12.781-.008-19.172l-2,2c8.553-.385,17.122-.508,25.681-.7,2.57-.058,2.579-4.058,0-4Z"/><path class="h" d="M158.073,7.033l3.04-3.617c.349-.415.586-.855.586-1.414,0-.491-.218-1.076-.586-1.414-.381-.35-.882-.61-1.414-.586-.503.023-1.077.185-1.414.586l-3.04,3.617c-.349.415-.586.855-.586,1.414,0,.491.218,1.076.586,1.414.381.35.882.61,1.414.586.503-.023,1.077-.185,1.414-.586h0Z"/><path class="h" d="M164.682,23.096l5.201-.115c.52-.012,1.044-.215,1.414-.586.347-.347.608-.916.586-1.414-.048-1.064-.879-2.025-2-2l-5.201.115c-.52.012-1.044.215-1.414.586-.347.347-.608.916-.586,1.414.048,1.064.879,2.025,2,2h0Z"/><path class="h" d="M162.663,14.446c2.034-1.206,4.133-2.297,6.206-3.433.918-.503,1.292-1.846.718-2.736-.6-.931-1.754-1.256-2.736-.718-2.073,1.136-4.173,2.227-6.206,3.433-.9.534-1.305,1.824-.718,2.736.584.906,1.773,1.289,2.736.718h0Z"/></g></g></svg>