<svg xmlns="http://www.w3.org/2000/svg" width="141.745" height="284.837" viewBox="0 0 141.745 284.837"><defs><style>.cls-1{fill:#e2704a;}.cls-2{fill:#fff;}.cls-3{fill:#211715;}.cls-4{fill:#c6c6c6;}</style></defs><g id="color"><g id="magnifying_glass"><path class="cls-1" d="M138.935,71.016c.337-36.443-27.17-67.844-67.381-68.216C31.485,2.43,3.259,33.068,2.92,69.76c-.339,36.655,21.409,63.546,56.026,68.618-.003,0-.006.002-.008.003-.246,26.865-.494,53.744-.743,80.623l22.718.21c.249-26.897.497-53.795.749-80.668-.008-.003-.018-.004-.026-.007,33.627-4.534,56.96-30.756,57.3-67.523ZM70.463,120.663c-29.937-.276-49.295-21.08-49.023-50.56.247-26.699,20.785-48.992,49.942-48.723,29.26.27,49.275,23.119,49.03,49.637-.274,29.67-21.123,49.912-49.949,49.645Z"/><path class="cls-3" d="M71.554,5.601c28.35.53,53.614,18.022,61.81,45.596,7.584,25.514-.173,56.008-21.77,72.389-21.049,15.966-52.989,17.202-75.725,4.059C12.574,114.179,2.448,85.87,6.5,59.961,11.551,27.671,39.322,5.606,71.554,5.601,75.158,5.6,75.164,0,71.554,0,40.912.006,13.375,18.344,3.684,47.806c-8.905,27.073-1.571,60.582,20.981,78.878,22.273,18.07,56.547,20.312,81.65,6.897,26.352-14.083,38.816-44.888,34.638-73.808C135.926,24.979,106.225.649,71.554,0c-3.605-.067-3.605,5.533,0,5.6Z"/><path class="cls-3" d="M71.382,24.18c20.645.457,38.875,13.267,44.49,33.483,5.05,18.181-.66,39.732-16.094,51.212-15.14,11.261-37.936,12.056-54.145,2.588-16.595-9.692-23.763-29.972-20.821-48.475,3.68-23.144,23.515-38.725,46.571-38.808,3.603-.013,3.61-5.613,0-5.6-22.675.082-43.021,13.573-50.153,35.433-6.466,19.82-1.146,44.336,15.243,57.84,16.468,13.569,41.895,15.327,60.573,5.351,19.421-10.373,28.648-33.069,25.593-54.386-3.697-25.795-25.6-43.67-51.257-44.239-3.605-.08-3.604,5.52,0,5.6Z"/><path class="cls-3" d="M78.842,140.241c-.243,26.324-.486,52.648-.729,78.972-.033,3.604,5.567,3.608,5.6,0,.243-26.324.486-52.648.729-78.972.033-3.604-5.567-3.608-5.6,0h0Z"/><path class="cls-3" d="M56.124,140.031c-.243,26.324-.486,52.648-.729,78.972-.033,3.604,5.567,3.608,5.6,0,.243-26.324.486-52.648.729-78.972.033-3.604-5.567-3.608-5.6,0h0Z"/><path class="cls-4" d="M100.357,72.614c-.925,10.453-7.614,19.121-17.157,23.238-3.3,1.424-.451,6.25,2.826,4.835,11.437-4.935,18.841-15.76,19.931-28.074.317-3.589-5.284-3.568-5.6,0h0Z"/><g id="hand"><path class="cls-2" d="M108.469,206.873c.623-7.501,1.183-16.302.839-24.6-.251-6.044-7.039-11.723-12.363-14.596-2.976-1.606-6.452-3.165-10.242-4.803-2.807-1.214-10.767-3.704-13.801-4.089-4.041-.513-8.044,1.224-12.011,3.428-3.708,2.06-5.442,3.295-8.705,6.005-1.662,1.381-2.586,3.175-3.314,5.209-.728,2.034-.292,4.631,1.517,5.813l3.146,2.056c-3.348.43-6.625.948-9.779,1.552-2.42.463-5.377,2.677-6.822,5.009-1.913,3.088-1.928,6.722-.467,10.048,1.204,2.742,4.211,3.835,5.812,3.78l2.585-.089c-.157.041-.314.083-.314.083-3.746.989-6.086,1.824-7.529,4.965-1.661,3.615-2.232,8.501,2.018,12.321,1.908,1.715,6.184,2.442,9.929,2.622l2.618.126c-.981.172-1.963.343-1.963.343-5.649.988-8.732,4.838-8.8,9.27-.029,1.862.442,4.202,2.331,6.82.895,1.24,3.718,2.443,6.407,3.391,3.064,1.081,5.166,3.935,5.279,7.182.086,2.476.244,4.965.44,7.525.269,3.521,1.236,7.215,3.78,10.446,2.277,2.892,6.523,7.091,11.141,11.15,1.682,1.478,4.606,3.612,6.841,3.746,12.637.756,19.075-.364,29.992-6.032,3.767-1.956,5.365-7.032,4.549-11.197-1.33-6.788-2.729-14.626-3.592-18.738-2.13-10.153-1.307-16.119-.572-26.467.231-3.256.654-7.505,1.051-12.28Z"/><path class="cls-3" d="M80.926,176.735c-10.708.071-21.402.79-31.992,2.402-8.063,1.227-16.511,4.698-16.3,14.389.181,8.268,5.996,11.091,13.271,10.832,11.361-.405,22.72-.874,34.078-1.343,3.591-.148,3.61-5.749,0-5.6-7.53.311-15.06.623-22.59.915-3.829.149-7.658.292-11.488.428-4.085.146-7.465.089-7.671-5.232-.36-9.325,13.038-9.23,19.345-9.917,7.755-.844,15.547-1.223,23.346-1.275,3.602-.024,3.61-5.624,0-5.6h0Z"/><path class="cls-3" d="M43.805,198.979c-6.466,1.778-10.971,5.892-10.804,13.105.191,8.259,7.087,11.532,14.337,12.19,10.41.945,21.052.593,31.499.675,3.604.028,3.608-5.572,0-5.6-6.677-.053-13.354-.138-20.029-.274-4.551-.093-9.505.192-13.976-.757-4.044-.859-6.725-3.477-6.095-7.752.59-4.005,2.964-5.199,6.557-6.187,3.47-.955,1.997-6.359-1.489-5.4h0Z"/><path class="cls-3" d="M48.877,219.357c-8.638,1.982-13.652,10.427-9.113,18.667,2.847,5.169,11.136,4.883,12.275,10.696,1.108,5.655.022,11.131,2.787,16.517,2.426,4.725,6.835,8.599,10.68,12.144,3.394,3.128,6.818,6.286,11.535,7.007,10.122,1.546,20.904-1.029,29.875-5.635,10.525-5.404,7.184-16.003,5.395-25.511-1.105-5.871-2.577-11.741-2.832-17.729-.248-5.829.37-11.683.824-17.488.922-11.792,2.763-23.91,1.805-35.751-.817-10.096-11.089-15.967-19.306-19.744-9.34-4.293-19.884-9-29.914-4.467-7.057,3.189-24.248,14.014-14.478,23.158,2.629,2.461,6.598-1.491,3.96-3.96-4.416-4.133,5.789-10.226,8.457-11.791,4.458-2.615,8.894-4.678,14.095-3.423,6.949,1.676,13.651,4.357,19.958,7.706,3.576,1.898,7.229,4.356,9.605,7.709,2.962,4.18,2.195,9.803,2.061,14.676-.227,8.256-1.071,16.462-1.745,24.688-.66,8.052-1.496,16.162-.417,24.213,1.107,8.258,4.243,16.671,4.55,24.98.331,8.969-13.083,12.002-20.242,12.734-3.657.374-8.52.897-12.071-.087-4.108-1.138-7.972-5.897-10.888-8.817-3.986-3.991-7.016-7.777-7.653-13.604-.459-4.202.298-9.005-1.982-12.788-2.049-3.397-5.283-4.006-8.534-5.744-7.094-3.793-3.618-11.483,2.804-12.956,3.511-.805,2.025-6.206-1.489-5.4h0Z"/></g></g></g></svg>