<svg id="b" xmlns="http://www.w3.org/2000/svg" width="413.976" height="291.39" viewBox="0 0 413.976 291.39"><defs><style>.e{fill:#e2704a;}.f{fill:#fff;}.g{fill:#bcbcbc;}.h{fill:#211715;}.i{fill:#645d5c;}.j{fill:#febe69;}</style></defs><g id="c"><g id="d"><path class="f" d="M64.326,223.606c-7.757,2.094-19.758,2.217-30.161,2.034-.474-.008-3.197.025-6.07.065.949,5.402,1.828,10.185,2.584,13.94l.711,1.008c4.542,5.585,8.594,7.463,14.062,8.814,10.27,1.914,41.901,3.321,58.899,3.996h5.461c0-6.987,0-14.165,0-18.696,0-10.586,0-21.115,0-29.693l-6.049-2.404c-4.741-1.793-8.584-3.177-14.271-5.44l-7.055-2.958c-.067,4.328-.375,6.943-1.666,13.106-2.249,10.734-7.424,12.777-13.577,15.279-.871.354-1.832.669-2.868.949Z"/><path class="f" d="M124.821,124.415c-.674.837-1.859,1.156-2.981,1.434-3.499.866-7.011,1.702-10.561,2.437-2.926-2.763-6.965-6.622-9.884-9.341l3.307-3.628c-.43-2.659.295-5.389,2.035-7.232,1.74-1.842,4.44-2.846,7.059-3.539,1.209-.32,2.504-.565,3.413-1.317.596-.494.979-1.17,1.394-1.811,1.277-1.976,2.828-3.643,5.275-5.108.718-.43,2.032-.62,3.021-.321.824.249,1.062.819,1.137,1.841.073.997-.26,1.884-.632,2.745-.743,1.723-1.681,3.351-2.796,4.854l3.964,3.723c.363-.265.762-.547,1.201-.85,1.05-.725,1.936-1.062,3.418-.101.547.355.838.998.918,1.647,2.871-.784,4.683-1.033,7.439-.799,1.957.166,2.961.599,3.115,2.157.089.899-.365,1.949-1.318,2.52-.341.204-1.129.491-1.514.642-4.192,1.644-8.839,3.345-11.648,4.346l-.981.35c-.391.591-.722,1.079-.947,1.401-.797,1.139-2.279,3.127-3.435,3.952"/><path class="f" d="M93.742,32.78c-.035-1.908-.18-3.519-.436-4.992-4.479.003-7.803.003-7.803.003-3.187,4.281-5.506,6.442-8.431,8.839-5.633,4.614-9.772,6.764-13.225,7.671,0,0-3.311.87-6.623,1.739-.431-.276-.911-.499-1.466-.659-1.505-.433-2.988-.289-4.146.496-1.724,1.168-2.584,3.706-2.552,5.82.052,3.392,1.091,6.142,3.019,8.33-.103.275-.165.436-.165.436-1.785,4.605-8.386,11.786-13.694,14.525.899,1.423,1.517,2.882,1.604,4.329.025.416-.06,1.207-.201,2.105.446-.211.956-.287,1.474-.196,10.423,1.839,22.115,10.238,26.406,14.803,1.307-3.365,2.392-6.038,2.762-6.663,1.631-2.762,2.139-5.938,2.194-6.065.352-.778,1.23-1.184,2.045-.932,3.399,1.049,8.718.73,12.641-.551,2.001-.653,3.959-1.997,5.553-4.772.751-1.296,1.362-3.063,1.841-4.885.724-2.766,1.151-5.671,1.298-7.336.384-1.208.961-2.32,1.896-3.257,1.411-1.419,3.646-2.484,2.615-5.071-.392-.978-1.184-1.723-2.096-2.259-4.591-2.699-4.534-9.804-4.506-14.925.246-3.023.168-5.784-.181-8.307"/><path class="f" d="M329.741,38.334c-2.15-1.629-4.235-3.345-6.247-5.143-.898,3.262-1.319,6.986-1.125,11.249-.156,5.162-.352,12.324-5.076,14.879-.938.508-1.763,1.23-2.193,2.201-1.131,2.569,1.082,3.723,2.454,5.203.909.978,1.45,2.119,1.794,3.35.089,1.683.415,4.626,1.046,7.439.417,1.853.969,3.655,1.68,4.988,1.506,2.853,3.431,4.278,5.425,5.008,3.908,1.431,9.256,1.943,12.719,1.008.83-.225,1.7.216,2.027,1.012.051.13,1.342,2.779,2.077,5.307l.841,2.96c4.098-1.947,9.363-4.159,13.776-5.907,2.434-2.482,3.323-6.511,3.189-9.262-.208-4.279-1.862-8.406-3.417-12.45,5.072-2.301,7.961-6.065,8.245-11.658.108-2.129-.668-4.718-2.363-5.957-1.139-.832-2.628-1.03-4.16-.648-.36.09-.69.207-.996.349l-2.955-.132c-2.171-.097-4.239-.912-6.231-1.782-7.279-3.177-14.178-7.223-20.508-12.018Z"/><path class="e" d="M358.457,92.082c-5.528,2.201-12.249,5.072-16.354,7.236-1.478.78-2.347,2.368-2.229,4.035.056.791.113,1.677.24,3.015l-4.043,2.13c-.266,1.421-.274,2.879-.289,4.322-.022,3.723-.081,11.176-.081,11.176l.041,2.121c1.097-2.472,2.572-5.579,4.232-8.622,1.167-2.642,3.09-4.693,3.968-5.679,6.001-6.725,14.739-12.583,21.925-17.069l-.198-5.396c-.145.05-.297.103-.455.159-1.685.596-4.082,1.505-6.758,2.571Z"/><path class="h" d="M342.114,106.368c-.111-1.191-.538-2.884-.128-4.041.404-1.14,1.617-1.546,2.617-2.043,2.455-1.219,4.96-2.335,7.477-3.419,4.644-2,9.344-3.923,14.122-5.585,2.416-.841,1.377-4.706-1.063-3.857-5.442,1.893-10.788,4.115-16.067,6.417-2.637,1.15-5.348,2.277-7.859,3.689-1.513.851-2.682,2.199-3.134,3.899-.421,1.583-.112,3.335.037,4.939.1,1.076.848,2,2,2,1.004,0,2.101-.918,2-2h0Z"/><path class="h" d="M337.701,123.996c0-2.517.04-5.035.058-7.552.017-2.437-.181-5.005.241-7.414.186-1.063-.286-2.155-1.397-2.46-.965-.265-2.273.327-2.46,1.397-.473,2.695-.363,5.45-.382,8.176-.018,2.618-.06,5.236-.06,7.854,0,2.574,4,2.578,4,0h0Z"/><path class="h" d="M327.745,51.8c-.586,1.487-.619,5.024,2.099,5.566,3.631.299,4.215-3.929,3.177-6.033-.85-1.723-3.728-2.664-5.276.467Z"/><path class="h" d="M319.798,75.263c2.399.039,4.835-.3,6.972-1.446.923-.495,1.288-1.852.718-2.736-.605-.938-1.749-1.247-2.736-.718-.236.126-.476.241-.722.347l.478-.202c-.857.354-1.755.57-2.672.696l.532-.071c-.852.11-1.71.144-2.568.13-1.047-.017-2.048.932-2,2,.049,1.098.879,1.982,2,2h0Z"/><path class="h" d="M346.251,94.306c-.449-1.487-1.017-2.926-1.634-4.351-.348-.804-.672-1.726-1.296-2.365-.972-.996-2.307-1.26-3.635-1.001-1.246.243-2.413.407-3.693.401-2.718-.011-5.742-.4-8.246-1.518-2.243-1.001-3.748-3.12-4.551-5.382-1.033-2.91-1.54-6.058-1.787-9.129-.222-2.761-1.52-4.811-3.506-6.676-.573-.538-1.298-1.03-1.012-1.874.343-1.013,1.642-1.443,2.425-2.032,1.906-1.434,3.088-3.501,3.811-5.744,1.889-5.853.647-12.063,1.651-18.027.179-1.064-.281-2.154-1.397-2.46-.959-.264-2.28.326-2.46,1.397-.537,3.191-.468,6.287-.57,9.5-.074,2.328-.154,4.68-.662,6.962-.434,1.951-1.163,4.081-2.88,5.271-1.113.772-2.18,1.338-2.989,2.484-.831,1.176-1.268,2.764-.896,4.187.643,2.465,3.217,3.457,4.179,5.706.417.975.363,2.069.489,3.113.213,1.77.481,3.538.874,5.278.705,3.12,1.839,6.192,4.079,8.55,1.838,1.935,4.251,2.935,6.799,3.558,3.171.776,6.527,1.077,9.766.612.338-.049.675-.1,1.009-.17l.32-.071c.36-.073.415-.095.167-.068-.213-.212.09.467.11.513.612,1.454,1.221,2.884,1.678,4.399.742,2.458,4.604,1.41,3.857-1.063h0Z"/><path class="f" d="M343.371,112.456c-.981,1.111-2.442,2.877-3.397,5.039-2.103,3.853-3.906,7.808-5.035,10.448-2.691,6.294-3.706,15.196-3.25,20.177.938,8.447,3.775,19.214,5.005,28.036-.516.568-1.075,1.075-1.67,1.513-8.121,5.966-16.209,10.637-26.161,17.387-.662.449-.979,1.252-.59,1.951,2.804,5.038,11.177,18.493,13.912,22.656.573.872,1.715,1.154,2.643.665,4.184-2.206,13.234-7.541,22.389-13.578,8.379,4.092,19.085,8.331,28.455,10.744,5.403,1.391,10.362,2.175,14.173,1.973.856-5.139,1.726-10.441,2.578-15.668.863.03-2.958-11.57-5.361-32.536-.655-5.713,2.585-19.597,3.252-23.47,2.996-17.391.744-29.098-6.122-39.912-1.371-2.31-2.986-4.768-4.732-6.982l-1.037-1.408c-4.336.113-9.652-.589-15.032-3.172-6.637,4.243-14.121,9.529-19.447,15.499-.16.179-.354.393-.571.64Z"/><path class="j" d="M14.557,38.105c1.714.185,4.47.179,6.776-.192l.322-.289c-.023.261-.05.522-.066.783-.851,13.493,5.454,23.438,9.846,28.577,1.921,2.248,4.943,5.052,6.79,8,5.307-2.741,11.904-9.919,13.689-14.522,0,0,.063-.161.165-.436-1.929-2.187-2.968-4.937-3.019-8.33-.032-2.114.828-4.652,2.552-5.82,1.158-.785,2.641-.929,4.146-.496.555.16,1.035.383,1.466.659,3.312-.868,6.623-1.739,6.623-1.739,3.453-.908,7.592-3.057,13.225-7.671,2.926-2.396,5.245-4.558,8.431-8.839h7.799c-.457-2.649-1.282-4.845-2.487-7.496-.775-1.704-5.057-8.879-14.545-13.521-.91-.445-1.867-.867-2.874-1.258-5.493-2.135-11.63-3.382-18.031-2.813-4.489.399-10.956,1.488-17.744,6.64l-1.206-1.92c-7.497-9.558-19.618-5.152-21.512,2.497-1.255,5.071-1.723,8.219-4.314,12.724-2.462,4.279-4.399,5.026-8.069,6.49-.508.203-.69.823-.386,1.278,2.781,4.162,6.728,6.966,12.157,7.662.086.011.175.021.267.031Z"/><path class="h" d="M83.654,26.945c-2.842,3.774-6.21,7.003-9.983,9.838-3.163,2.376-6.564,4.571-10.357,5.591-2.483.668-1.43,4.528,1.063,3.857,4.28-1.151,8.125-3.568,11.621-6.227,4.244-3.228,7.898-6.775,11.11-11.04.65-.863.138-2.236-.718-2.736-1.024-.599-2.084-.148-2.736.718h0Z"/><path class="h" d="M37.828,6.009C34.392,1.725,29.208-.682,23.709.17c-4.308.668-8.396,3.481-10.142,7.537-1.145,2.661-1.451,5.66-2.301,8.426-.819,2.665-2.022,5.395-3.772,7.586-1.451,1.818-3.415,2.626-5.506,3.487-1.58.651-2.478,2.302-1.707,3.928.642,1.353,1.811,2.618,2.869,3.67,5.012,4.99,11.955,6.052,18.715,5.039,1.069-.16,1.658-1.508,1.397-2.46-.315-1.144-1.388-1.558-2.46-1.397-3.38.506-7.089.397-10.278-.935-2.56-1.07-5.647-3.311-6.789-5.936l.273,1.009-.026.187-.718.718c1.287-.813,2.874-1.157,4.189-1.98,1.439-.901,2.591-2.077,3.595-3.437,2.321-3.143,3.745-6.909,4.697-10.669.759-3,1.022-6.038,3.342-8.261,1.814-1.739,4.333-2.695,6.834-2.713,3.736-.027,6.807,2.036,9.079,4.868.676.843,2.123.705,2.828,0,.833-.833.678-1.983,0-2.828h0Z"/><path class="h" d="M71.99,90.375c.659-1.494,1.256-3.01,1.772-4.56.154-.463.3-.927.443-1.393.012-.039.169-.428.142-.468-.068-.101-.215.225-.225.322l-.151.021c.211.065.424.124.638.176.224.055.45.103.676.146.777.148,1.57.248,2.359.311,1.468.117,2.951.078,4.415-.071,2.728-.278,5.695-.76,8.068-2.225,2.504-1.546,4.2-4.003,5.283-6.693,1.211-3.01,1.816-6.266,2.237-9.471.163-1.244.374-2.204,1.228-3.202.72-.841,1.681-1.436,2.405-2.275,1.921-2.227,1.58-5.301-.495-7.328-.778-.76-1.797-1.191-2.555-1.966-.762-.779-1.258-1.787-1.59-2.815-1.855-5.746-.299-11.989-1.077-17.878-.141-1.071-.818-2-2-2-.971,0-2.142.921-2,2,.72,5.456-.245,10.938.626,16.392.377,2.364,1.182,4.7,2.718,6.567.762.926,1.679,1.494,2.633,2.187.623.453,1.321,1.194.927,1.971-.375.739-1.35,1.266-1.943,1.831-1.072,1.021-1.822,2.259-2.362,3.628-.482,1.221-.47,2.675-.688,3.968-.283,1.678-.637,3.351-1.116,4.985-.745,2.542-1.901,5.197-4.249,6.646-2.141,1.322-5.017,1.667-7.482,1.786-1.477.071-2.995.057-4.449-.239-1.583-.322-2.905-.749-4.345.299-.944.688-1.265,1.631-1.592,2.682-.49,1.575-1.037,3.138-1.704,4.648-.436.988-.289,2.148.718,2.736.85.497,2.298.276,2.736-.718h0Z"/><path class="h" d="M95.742,32.78c-.117-5.021-1.193-10.123-3.738-14.511-1.88-3.241-4.52-6.122-7.409-8.485C75.353,2.224,62.763-.832,51.054,1.267c-10.596,1.9-19.488,9.047-25.17,18.016-7,11.05-8.302,24.994-3.267,37.078,2.041,4.9,4.918,9.373,8.512,13.279,2.159,2.347,4.579,4.628,6.026,7.514,1.172,2.337.44,4.909-.213,7.308-.677,2.487,3.18,3.548,3.857,1.063.614-2.255,1.286-4.875.904-7.216-.443-2.717-2.109-5.053-3.813-7.137-2.912-3.561-6.205-6.621-8.636-10.565-6.101-9.895-7.427-21.859-3.23-32.754,3.769-9.784,12.046-18.689,22.225-21.8,4.137-1.264,8.029-1.686,12.432-1.42,6.21.376,12.509,2.358,17.793,5.646,3.752,2.334,7.187,5.522,9.508,9.086,2.586,3.97,3.652,8.732,3.761,13.414.06,2.57,4.06,2.579,4,0h0Z"/><path class="h" d="M88.156,46.418c.529,1.494.436,5.001-2.277,5.443-3.609.169-4.039-4.042-2.936-6.091.903-1.678,3.789-2.508,5.212.649Z"/><path class="h" d="M95.277,65.969c-.7-.013-1.398-.059-2.092-.151l.532.071c-.966-.135-1.914-.363-2.816-.739l.478.202c-.33-.142-.65-.302-.96-.483-.904-.527-2.231-.238-2.736.718s-.248,2.173.718,2.736c2.077,1.211,4.505,1.6,6.877,1.645,1.047.02,2.048-.934,2-2-.049-1.101-.879-1.979-2-2h0Z"/><path class="h" d="M49.985,59.932c-.164.414.15-.304-.031.078-.068.143-.133.288-.203.431-.149.303-.307.6-.474.894-.366.647-.769,1.273-1.193,1.884-.888,1.277-1.807,2.388-2.994,3.668-2.323,2.505-4.592,4.551-7.478,6.161-.943.526-1.255,1.818-.718,2.736.556.95,1.79,1.246,2.736.718,3.174-1.77,5.988-4.28,8.436-6.947,2.324-2.533,4.5-5.339,5.774-8.558.398-1.005-.435-2.196-1.397-2.46-1.137-.312-2.061.388-2.46,1.397h0Z"/><path class="h" d="M60.244,46.089c-1.852-2.143-4.536-3.286-7.371-2.823-2.736.447-4.565,2.753-5.354,5.274-1.35,4.313.16,9.413,3.027,12.765,1.621,1.895,3.787,3.302,6.04,4.33.982.448,2.153.28,2.736-.718.503-.86.27-2.286-.718-2.736-3.873-1.766-6.653-4.398-7.392-8.577-.307-1.738-.282-4.042.967-5.558,1.52-1.845,3.968-.597,5.236.871.707.818,2.104.725,2.828,0,.811-.811.708-2.009,0-2.828h0Z"/><path class="h" d="M49.985,59.932c-.164.414.15-.304-.031.078-.068.143-.133.288-.203.431-.149.303-.307.6-.474.894-.366.647-.769,1.273-1.193,1.884-.888,1.277-1.807,2.388-2.994,3.668-2.323,2.505-4.592,4.551-7.478,6.161-.943.526-1.255,1.818-.718,2.736.556.95,1.79,1.246,2.736.718,3.174-1.77,5.988-4.28,8.436-6.947,2.324-2.533,4.5-5.339,5.774-8.558.398-1.005-.435-2.196-1.397-2.46-1.137-.312-2.061.388-2.46,1.397h0Z"/><path class="g" d="M34.165,225.64c11.793.208,25.64.021,33.029-2.983,6.153-2.502,11.328-4.545,13.577-15.279,1.556-7.428,1.684-9.702,1.684-16.033l-.868-35.526c1.347-6.646,2.553-13.9,2.594-16.159.041-2.3,0-4.458-.365-6.818-.74-6.504-3.299-11.808-5.103-16.792-1.838-5.067-5.076-12.955-10.038-19.496-3.399-4.239-16.397-13.356-27.578-15.329-1.291-.228-2.533.587-2.898,1.846-.479,1.653-.901,3.672-.901,3.672l-2.767,5.91c-.934,1.129-2.862,3.521-4.024,5.462-6.867,10.814-9.118,22.521-6.122,39.912.667,3.873,3.906,17.757,3.252,23.47-1.446,12.619-3.406,21.845-4.55,27.184l-.825,2.103c1.945,11.976,4.015,24.579,5.831,34.921,2.873-.04,5.597-.074,6.071-.065Z"/><path class="e" d="M375.671,217.494c-9.369-2.413-20.075-6.652-28.454-10.744-9.155,6.037-18.205,11.372-22.389,13.578-.928.489-2.07.208-2.643-.665-.424-.646-.984-1.515-1.638-2.541-5.087,2.917-10.441,5.33-16.014,7.195,0,15.608,0,29.651,0,39.651,3.159-.188,6.266-.373,6.266-.373,16.997-.675,48.628-2.082,58.899-3.996,5.468-1.351,9.52-3.229,14.062-8.814,0,0,.224-.186.611-.502,1.472-7.237,3.435-18.571,5.477-30.816-3.812.202-8.771-.582-14.175-1.973Z"/><path class="g" d="M83.686,126.736c4.169-3.503,9.398-7.702,12.581-10.258.738-.592,1.787-.567,2.496.059,2.842,2.509,10.351,9.732,14.093,13.232.689.645.887,1.743.299,2.482-2.908,3.658-5.566,7-8.758,10.667l-10.068,12.901h-17.155l6.51-29.084Z"/><path class="h" d="M106.631,114.785c-.445-3.154,1.248-5.649,3.986-7.015,2.923-1.458,6.746-1.286,8.854-4.078.887-1.175,1.582-2.427,2.624-3.484.851-.862,2.124-2.167,3.374-2.35.139-.02.906.048.898.059-.156-.051-.263-.148-.321-.293-.115-.222-.121-.182-.017.121-.079.806-.175,1.415-.513,2.188-.697,1.592-1.612,3.085-2.634,4.486-.637.873-.148,2.23.718,2.736,1.012.592,2.098.158,2.736-.718,1.905-2.612,4.343-6.373,3.551-9.756-.882-3.77-5.569-3.151-8.013-1.458-1.301.901-2.5,1.938-3.508,3.16-.497.603-.966,1.233-1.397,1.885-.396.6-.711,1.265-1.356,1.628-1.36.765-3.189.902-4.663,1.43-1.56.56-3.064,1.253-4.385,2.262-3.235,2.471-4.344,6.335-3.79,10.259.151,1.071,1.515,1.657,2.46,1.397,1.151-.316,1.548-1.386,1.397-2.46h0Z"/><path class="h" d="M112.562,117.434c.255-.193.528-.351.821-.477l-.478.202c.319-.13.649-.218.99-.267l-.532.071c.402-.051.803-.047,1.205.004l-.532-.071c.355.051.699.137,1.038.255.471.164,1.122.044,1.541-.202.415-.243.811-.718.919-1.195.117-.512.091-1.087-.202-1.541s-.682-.741-1.195-.919c-.524-.182-1.053-.263-1.604-.33-.379-.046-.759-.05-1.138-.004-1.018.123-2.021.39-2.853,1.02-.233.126-.42.297-.561.515-.177.193-.296.42-.358.68-.132.479-.072,1.116.202,1.541.275.427.685.803,1.195.919.488.111,1.122.116,1.541-.202h0Z"/><path class="h" d="M114.518,122.227c1.354-3.113,2.972-6.056,4.901-8.848.499-.723.993-1.462,1.533-2.155-.25.321.21-.083.002.022-.295.15.406-.138.144-.058-.279.086.304-.077.027-.009-.202.049.081-.005.117-.006.02,0,.316.043.136.003-.169-.037.377.249-.019,0,.121.077.392.309.17.086.054.054.123.136.186.178.201.135-.075-.238-.003-.026.009.026.133.169.119.193-.006.011-.129-.374-.071-.165.061.219-.045-.249-.03-.245.014.004-.02.5-.023.563-.035.854-.073,1.708-.13,2.561-.054.812-.128,1.622-.226,2.429-.014.117-.101.742-.039.318-.036.243-.069.487-.106.73-.083.554-.173,1.108-.265,1.661-.17,1.028.268,2.203,1.397,2.46.965.22,2.277-.293,2.46-1.397.327-1.974.619-3.955.762-5.952.072-1.01.116-2.021.157-3.032.049-1.21-.455-2.299-1.359-3.107-1.121-1.002-2.547-1.449-4.034-1.154-1.262.25-2.155,1-2.888,2.009-1.145,1.577-2.266,3.173-3.276,4.84-1.181,1.949-2.189,3.991-3.097,6.079-.416.957-.314,2.191.718,2.736.864.456,2.291.307,2.736-.718h0Z"/><path class="h" d="M125.147,115.258c1.269-1.564,2.717-3.109,4.25-4.244.514-.38,1.032-.764,1.57-1.111.176-.113.356-.213.54-.312-.26.14-.01.011.065.002-.256.03-.072-.035.039.015-.296-.131.303.155.316.161.301.159.19.231.096.02.158.356.099.166.051.084.01.018.056.323.051.139-.007-.22.005.198.007.243.013.307.075-.232.006.047-.17.686.022-.005.037.008.017.015-.132.282-.152.323-.146.298-.306.589-.467.878-.415.743-.855,1.472-1.3,2.197-.934,1.522-1.9,3.025-2.889,4.511-.446.67-.898,1.336-1.375,1.984-.342.464-.654.858-1.055,1.319-.212.244-.429.482-.656.711-.08.081-.161.161-.244.239-.001.001-.504.423-.223.213-.864.646-1.306,1.729-.718,2.736.498.851,1.866,1.368,2.736.718,1.957-1.463,3.391-3.521,4.742-5.532,1.167-1.738,2.299-3.501,3.385-5.29.967-1.592,2.289-3.418,2.163-5.368-.227-3.521-4.131-5.399-7.082-3.559-2.594,1.618-4.802,3.674-6.72,6.037-.68.838-.819,2.009,0,2.828.703.703,2.144.843,2.828,0h0Z"/><path class="h" d="M123.407,123.001c-.075.093-.156.179-.243.26.179-.12.172-.116-.02.015-.159.095-.316.183-.483.263.348-.166-.34.107-.415.13-.186.057-.374.107-.562.156-1.067.279-2.142.53-3.215.789-2.216.534-4.436,1.046-6.665,1.523-1.024.219-1.716,1.474-1.397,2.46.35,1.08,1.363,1.632,2.46,1.397,2.387-.511,4.766-1.063,7.139-1.637,2.087-.505,4.738-.809,6.229-2.527.685-.79.834-2.062,0-2.828-.752-.69-2.096-.844-2.828,0h0Z"/><path class="h" d="M135.309,111.597c.66-.167,1.322-.323,1.992-.442.464-.082.723-.117,1.305-.156.55-.037,1.101-.043,1.651-.028.341.01.682.029,1.022.054.065.005.932.108.573.049.181.03.362.064.54.11.107.027.214.059.319.095-.235-.109-.255-.116-.061-.021.288.226-.302-.254.13.11-.157-.212-.197-.254-.12-.126.069.128.05.078-.056-.15.033.099.06.2.081.302-.024-.252-.028-.256-.01-.01-.012.237-.006.246.017.026-.027.126-.063.25-.107.372.161-.372-.212.256.003-.02-.093.106-.193.204-.301.295.088-.09.062-.087-.079.011-.195.089-.207.099-.038.03-.127.052-.254.102-.381.152-.162.064-.325.125-.488.188-.653.253-1.305.509-1.959.76-1.142.439-2.286.872-3.432,1.3-2.08.777-4.165,1.54-6.256,2.286-1.017.363-1.698,1.364-1.397,2.46.27.984,1.438,1.761,2.46,1.397,4.099-1.462,8.181-2.976,12.23-4.571,1.174-.463,2.171-.982,2.911-2.043.724-1.037.931-2.3.713-3.529-.405-2.287-2.416-3.141-4.485-3.394-2.647-.324-5.266-.016-7.84.636-1.047.265-1.679,1.434-1.397,2.46.292,1.062,1.41,1.663,2.46,1.397h0Z"/><path class="h" d="M132.098,104.997c.463-.083.928-.154,1.395-.217l-.532.071c1.563-.206,3.139-.323,4.716-.326,1.046-.002,2.048-.918,2-2s-.879-2.002-2-2c-2.222.005-4.456.223-6.643.614-.468.084-.964.524-1.195.919-.251.429-.357,1.061-.202,1.541.157.484.457.951.919,1.195.5.264.985.301,1.541.202h0Z"/><path class="h" d="M376.37,278.966l2.529,10.947c.236,1.02,1.462,1.72,2.46,1.397,1.066-.345,1.649-1.367,1.397-2.46-.843-3.649-1.686-7.298-2.529-10.947-.236-1.02-1.462-1.72-2.46-1.397-1.066.345-1.649,1.367-1.397,2.46h0Z"/><path class="h" d="M379.264,135.007c-.492,7.773-1.276,15.538-2.322,23.256-.875,6.464-1.789,13.047-3.815,19.269-1.199,3.68-2.846,7.147-5.16,10.264-2.116,2.85-4.77,5.023-7.552,7.186-5.69,4.424-11.696,8.455-17.756,12.35-5.219,3.354-10.51,6.611-15.912,9.661-.867.489-1.736,1.049-2.645,1.457-.347.156-.158.228-.368-.069-.3-.424-.567-.874-.847-1.311-1.585-2.471-3.142-4.961-4.691-7.456-1.733-2.792-3.454-5.592-5.147-8.409-.715-1.19-1.426-2.383-2.123-3.583-.098-.169-.631-1.361-.79-1.381-.441-.057.041-.096-.059-.07l-.061.512.265-.176c.458-.033,1.416-.952,1.81-1.215,7.285-4.858,14.8-9.376,21.94-14.449,1.633-1.16,3.298-2.283,4.573-3.85,1.328-1.631,2.257-3.442,2.981-5.409,1.268-3.446,1.9-7.024,2.452-10.639,1.116-7.318,2.142-14.65,3.329-21.957.253-1.558.515-3.115.794-4.669.191-1.062-.289-2.156-1.397-2.46-.968-.266-2.269.328-2.46,1.397-1.339,7.467-2.385,14.986-3.501,22.488-.53,3.559-.943,7.179-1.819,10.673-.971,3.873-2.289,7.584-5.635,10.013-7.339,5.329-15.129,9.997-22.68,15.013-1.773,1.178-4.629,2.43-4.563,4.951.037,1.391,1.05,2.707,1.733,3.872,1.628,2.781,3.307,5.532,4.995,8.277,1.744,2.837,3.503,5.664,5.284,8.478,1.507,2.381,3.145,6.21,6.602,5.45,1.123-.247,2.204-.993,3.202-1.549,1.093-.609,2.179-1.231,3.261-1.86,2.77-1.611,5.514-3.268,8.237-4.956,6.45-3.999,12.812-8.162,18.951-12.626,2.863-2.082,5.688-4.228,8.391-6.516,3.103-2.626,5.64-6.092,7.498-9.701,3.192-6.201,4.559-13.077,5.653-19.903,1.308-8.157,2.247-16.383,2.932-24.616.159-1.911.3-3.824.421-5.738.163-2.571-3.838-2.561-4,0h0Z"/><path class="h" d="M382.344,249.371c-3.536,4.297-7.839,7.217-13.342,8.33-3.359.679-6.877.921-10.524,1.242-10.402.914-20.84,1.449-31.269,1.943-5.469.259-10.939.492-16.41.71-2.565.102-2.578,4.103,0,4,10.483-.417,20.965-.883,31.438-1.502,9.088-.537,18.329-.917,27.319-2.446,6.286-1.069,11.612-4.581,15.617-9.448,1.623-1.973-1.191-4.818-2.828-2.828h0Z"/><path class="h" d="M384.881,257.027c1.567-5.64,2.469-11.504,3.499-17.258,1.656-9.248,3.193-18.517,4.715-27.788,1.56-9.503,3.089-19.011,4.634-28.517,1.078-6.632,2.124-13.273,3.331-19.883.612-3.352,1.361-7.686,4.254-9.889.732-.557,1.614-.895,2.526-.98.516-.048,1.075-.035,1.585.048.246.04.475.122.713.186-.216-.058-.159-.239-.183-.132-.002.009.036.552.005.891-.081.859-.263,1.719-.395,2.573-.271,1.748-.538,3.498-.8,5.247-2.155,14.352-4.062,28.74-5.93,43.131-1.628,12.543-3.192,25.095-4.953,37.62-.662,4.706-1.348,9.41-2.147,14.095-.707,4.143-1.573,8.211-3.963,11.719-5.708,8.378-17.695,8.243-26.895,8.243h-49.48c-2.574,0-2.578,4,0,4h41.455c6.533,0,13.188.366,19.685-.445,4.967-.619,10.021-1.909,14.087-4.961,7.677-5.763,8.7-15.344,10.037-24.165,1.846-12.182,3.373-24.412,4.951-36.631,1.889-14.635,3.78-29.271,5.885-43.877.52-3.61,1.054-7.218,1.606-10.823.278-1.819.634-3.642.832-5.472.145-1.34-.051-2.785-1.004-3.807-1.728-1.854-5.345-1.763-7.541-.968-2.416.874-4.252,2.697-5.496,4.912-1.762,3.137-2.389,6.689-3.004,10.185-.568,3.228-1.104,6.461-1.638,9.694-1.509,9.149-2.975,18.305-4.463,27.457-1.621,9.975-3.253,19.949-4.971,29.908-1.252,7.258-2.466,14.545-4.082,21.734-.218.968-.445,1.935-.71,2.891-.69,2.484,3.168,3.544,3.857,1.063h0Z"/><path class="h" d="M34.921,267.771c-.843,3.649-1.686,7.298-2.529,10.947-.235,1.017.314,2.214,1.397,2.46,1.02.232,2.208-.307,2.46-1.397.843-3.649,1.686-7.298,2.529-10.947.235-1.017-.314-2.214-1.397-2.46-1.02-.232-2.208.307-2.46,1.397h0Z"/><path class="h" d="M34.124,245.832c-1.643-5.915-2.576-12.07-3.651-18.106-1.711-9.609-3.303-19.239-4.88-28.87-1.589-9.705-3.148-19.414-4.73-29.12-1.06-6.507-1.91-13.119-3.354-19.555-1.013-4.519-3.133-9.566-7.877-11.173-2.276-.771-5.909-.811-7.57,1.214-.897,1.094-.981,2.518-.812,3.87.227,1.811.553,3.613.829,5.416,2.246,14.697,4.209,29.435,6.125,44.177,1.705,13.123,3.342,26.255,5.182,39.36.68,4.839,1.384,9.677,2.211,14.494.754,4.395,1.819,8.808,4.393,12.535,6.379,9.234,18.22,10.126,28.485,10.126,13.171,0,26.342,0,39.513,0h11.764c2.574,0,2.578-4,0-4h-40.16c-6.392,0-12.882.324-19.252-.258-4.651-.425-9.443-1.503-13.308-4.245-6.839-4.851-7.502-14.324-8.685-22.131-1.762-11.627-3.224-23.299-4.73-34.961-1.832-14.188-3.663-28.377-5.676-42.541-.516-3.63-1.044-7.257-1.589-10.883-.263-1.749-.53-3.497-.801-5.244-.122-.784-.288-1.575-.363-2.364-.048-.515-.035-.768.055-.976-.05.117-.113.184-.234.217.239-.064.468-.146.713-.186.556-.09,1.173-.103,1.733-.035.858.105,1.692.443,2.381.968,1.597,1.218,2.505,3.232,3.113,5.091.902,2.756,1.305,5.673,1.796,8.525.58,3.372,1.136,6.747,1.69,10.123,1.49,9.091,2.949,18.187,4.43,27.279,1.569,9.634,3.149,19.267,4.817,28.884,1.197,6.906,2.36,13.84,3.906,20.678.209.923.427,1.844.68,2.755.688,2.477,4.548,1.425,3.857-1.063h0Z"/><path class="h" d="M331.66,167.345c-.5,1.203-1.282,2.235-2.07,3.081-1.196,1.285-2.397,2.566-3.595,3.848-2.397,2.566-4.794,5.131-7.191,7.697-1.756,1.88,1.067,4.714,2.828,2.828,2.538-2.717,5.076-5.433,7.614-8.15,2.401-2.57,4.9-4.94,6.271-8.242.415-.998-.448-2.199-1.397-2.46-1.151-.316-2.044.395-2.46,1.397h0Z"/><path class="h" d="M352.197,122.441c1.675-2.413,3.839-4.499,6.519-5.756,2.646-1.241,5.976-1.311,8.821-.764,1.918.369,3.298.912,4.914,1.937,2.039,1.293,4.447,3.776,4.765,6.301.135,1.071.823,2,2,2,.976,0,2.136-.921,2-2-.784-6.224-6.695-10.957-12.616-12.095-3.765-.724-7.845-.621-11.38.931s-6.303,4.294-8.478,7.427c-1.471,2.12,1.994,4.121,3.454,2.019h0Z"/><path class="h" d="M111.811,279.394v-85.9c0-2.574-4-2.578-4,0v85.9c0,2.574,4,2.578,4,0h0Z"/><path class="h" d="M302.532,193.493v85.901c0,2.574,4,2.578,4,0v-85.901c0-2.574-4-2.578-4,0h0Z"/><path class="f" d="M312.376,183.566v13.171H101.965v-13.171h210.411Z"/><path class="h" d="M310.376,183.566v13.171l2-2H101.965l2,2v-13.171l-2,2h210.411c2.574,0,2.578-4,0-4H101.965c-1.081,0-2,.916-2,2v13.171c0,1.081.916,2,2,2h210.411c1.081,0,2-.916,2-2v-13.171c0-2.574-4-2.578-4,0Z"/><path class="h" d="M160.442,179.306h58.276c2.574,0,2.578-4,0-4h-58.276c-2.574,0-2.578,4,0,4h0Z"/><path class="h" d="M318.266,216.112c-3.858,2.123-7.676,3.881-11.689,5.37-.978.363-1.75,1.371-1.397,2.46.31.958,1.41,1.787,2.46,1.397,4.349-1.614,8.581-3.537,12.645-5.774.918-.505,1.292-1.845.718-2.736-.599-.93-1.755-1.258-2.736-.718h0Z"/><path class="h" d="M135.182,138.997c8.416,13.179,16.988,26.257,25.631,39.287,1.416,2.136,4.882.135,3.454-2.019-8.643-13.031-17.215-26.108-25.631-39.287-1.381-2.163-4.845-.159-3.454,2.019h0Z"/><path class="h" d="M347.147,208.931c10.634,5.085,21.955,9.584,33.586,11.734,2.516.465,3.595-3.389,1.063-3.857-11.296-2.088-22.3-6.391-32.63-11.331-2.311-1.105-4.343,2.343-2.019,3.454h0Z"/><path class="h" d="M378.044,102.313c4.185,5.357,7.834,11.578,9.747,18.132,1.984,6.796,2.143,13.92,1.417,20.925-.598,5.767-1.988,11.396-2.973,17.1-.523,3.028-1.002,6.085-1.195,9.155-.212,3.373.375,6.711.832,10.045.982,7.155,2.299,14.249,3.81,21.31.539,2.516,4.395,1.451,3.857-1.063-1.311-6.125-2.486-12.273-3.405-18.47-.523-3.524-1.257-7.163-1.147-10.738.09-2.914.534-5.815,1.02-8.685.995-5.873,2.394-11.659,3.083-17.583.836-7.191.756-14.559-1.045-21.606-1.999-7.82-6.236-15.029-11.173-21.349-.665-.852-2.13-.698-2.828,0-.841.841-.667,1.974,0,2.828h0Z"/><path class="f" d="M103.886,158.619c.575-.881,2.15-2.111,3.601-2.912,2.222-1.226,8.891-4.231,12.557-5.938.637-.296,1.657-.575,2.623-.428.694.106,1.24.415,1.604,1.015.493.813.349,1.691-.087,2.537-1.206,2.34-2.94,4.405-5.039,5.994,6.401,1.615,13.275,3.054,19.596,4.733,1.115.296,2.052.981,2.244,2.337.106.75-.119,1.62-.403,2.012-.367.507-1.293.882-1.897.843,2.828-1.396,4.162.409,4.315,1.072.225.971.285,2.019-.425,2.718-.696.684-1.605.934-2.58.972l-2.655.102c.641.422,1.281.845,1.281.845.497.328,1.162,1.246,1.085,2.175-.115,1.398-1.058,1.718-1.552,1.751-.992.066-2.133.126-3.356.179.369,3.21-1.502,3.416-3.086,3.497-4.446.228-15.143.3-16.659.268-5.473-.115-13.91-.865-18.233-4.125"/><path class="h" d="M105.613,159.629c1.013-1.43,3.266-2.425,4.942-3.241,2.11-1.028,4.244-2.007,6.376-2.989,1.011-.466,2.023-.93,3.033-1.397.433-.2.857-.423,1.311-.562.171-.052,1.052-.303,1.226-.114.423.459-1.006,2.212-1.293,2.621-.825,1.178-1.86,2.202-2.961,3.12-.83.693-.716,2.113,0,2.828.821.821,1.997.694,2.828,0,1.458-1.217,2.72-2.639,3.782-4.214,1.092-1.62,2.175-3.55,1.498-5.548-.645-1.904-2.485-2.873-4.416-2.828-1.706.04-3.197.876-4.707,1.572-2.682,1.236-5.371,2.458-8.033,3.736-2.595,1.246-5.331,2.584-7.04,4.997-.625.882-.157,2.225.718,2.736,1.002.586,2.11.167,2.736-.718h0Z"/><path class="h" d="M119.059,160.923c3.328.832,6.67,1.601,10.01,2.382,1.64.384,3.279.77,4.914,1.171,1.434.351,3.139.557,4.485,1.143.395.172.785.862.516,1.121-.347.334-2.14.013-2.718-.018-2.538-.138-5.073-.353-7.604-.58-2.568-.231-5.133-.486-7.699-.737-1.077-.105-2,.994-2,2,0,1.169.92,1.895,2,2,5.509.537,11.03,1.162,16.563,1.377,1.522.059,3.039-.027,4.218-1.139,1.274-1.201,1.567-3.32.978-4.923-.582-1.585-1.865-2.554-3.448-3.027-1.902-.568-3.861-.99-5.79-1.453-4.451-1.068-8.92-2.063-13.361-3.174-2.498-.625-3.563,3.232-1.063,3.857h0Z"/><path class="h" d="M140.828,170.317c.083.028.411.271.244.13.126.229.126.219,0-.03.046.147.072.297.076.449.054.459.02.303-.076.405-.16.169-.542.248-.754.284-1.901.323-4.049.112-5.973.109-4.373-.006-8.745-.125-13.118-.128-2.574-.002-2.578,3.998,0,4,5.813.005,11.629.233,17.442.082,2.559-.066,5.587-.501,6.345-3.433.655-2.534-.702-4.908-3.123-5.724-2.445-.824-3.494,3.038-1.063,3.857h0Z"/><path class="h" d="M137.613,176.248c-.224-.169.08.298.131.428-.033-.084-.196.085-.022-.061.289-.243-.122.004.132-.105.232-.1-.33-.082.303-.063-.366-.011-.746.048-1.111.068-1.689.096-3.379.162-5.07.216-3.416.108-6.835.175-10.253.14-2.575-.027-2.577,3.973,0,4,4.321.045,8.648-.056,12.965-.24,1.825-.078,4.273.212,5.737-1.084,2.193-1.941,1.298-5.178-.793-6.753-.863-.65-2.236-.138-2.736.718-.599,1.024-.148,2.084.718,2.736h0Z"/><path class="h" d="M132.805,179.933c-.37.321-1.281.202-1.745.222-.688.03-1.377.052-2.066.072-1.543.045-3.086.075-4.629.099-2.759.044-5.519.077-8.278.073-2.803-.004-5.628-.156-8.404-.55-3.403-.483-7.028-1.244-9.852-3.309-.873-.638-2.23-.147-2.736.718-.593,1.013-.157,2.097.718,2.736,4.873,3.563,11.851,4.109,17.682,4.35,4.41.182,8.85.032,13.26-.062,2.805-.06,6.637.426,8.879-1.521,1.947-1.691-.892-4.51-2.828-2.828h0Z"/><path class="h" d="M85.101,128.151c2.521-2.116,5.07-4.198,7.628-6.269,1.143-.925,2.288-1.848,3.434-2.769.326-.262.89-.947,1.283-1.03.383-.081.014-.028.029-.024.115.029.298.27.392.355,3.688,3.323,7.25,6.789,10.853,10.203.784.743,1.569,1.485,2.356,2.224-.008-.007.399.372.387.34.066.175-.017-.423-.01.022.003.207-.724.91-.862,1.083-.378.475-.757.949-1.136,1.423-2.113,2.639-4.342,5.179-6.473,7.8-1.588,1.953-3.101,3.974-4.65,5.958-1.805,2.313-3.61,4.626-5.415,6.939-.664.851-.83,1.999,0,2.828.691.691,2.16.856,2.828,0,3.645-4.671,7.154-9.493,11.01-13.992,2.48-2.894,4.865-5.866,7.237-8.849,1.231-1.547,2.051-3.151,1.012-5.077-.586-1.087-1.768-1.932-2.654-2.77-3.922-3.708-7.761-7.532-11.811-11.102-1.403-1.236-3.225-1.906-4.991-.886-1.407.812-2.675,2.095-3.938,3.114-3.133,2.526-6.256,5.063-9.338,7.65-1.974,1.657.868,4.474,2.828,2.828h0Z"/><path class="g" d="M38.698,107.927c1.787-2.68,6.173-4.696,9.786-4.633,7.458.13,11.834,2.752,14.595,7.896,2.013,3.749,2.366,8.722,2.743,12.865.746,8.222,2.631,23.321,3.237,25.937.722,3.117,4.887,5.537,7.08,5.621,9.303.357,16.849.727,25.696.451.704-.022,1.373.251,1.438,1.203.586,8.603.351,16.208.211,24.846-.012.748-.695,1.33-1.176,1.377-14.557,1.413-26.058,1.88-41.292.276-4.033-.425-11.538-1.844-15.798-5.851-2.534-2.384-5.182-4.641-6.871-9.357-4.587-12.801-5.193-28.556-5.364-43.006"/><path class="h" d="M40.425,108.936c2.043-2.905,6.13-3.797,9.445-3.587,2.976.189,6.083.95,8.404,2.919,5.499,4.665,5.214,12.749,5.893,19.312.675,6.528,1.444,13.055,2.395,19.549.347,2.367.619,4.524,2.186,6.459,1.032,1.274,2.436,2.335,3.914,3.039,1.646.785,3.151.973,4.958,1.044,4.586.179,9.172.373,13.761.452,2.321.04,4.642.05,6.963.019.538-.007,1.077-.016,1.615-.028.389-.008,1.308.159,1.641-.042.251-.152.435.226-.044-.316-.468-.53-.253-.092-.233.254.037.652.078,1.304.111,1.957.241,4.799.246,9.605.181,14.408-.015,1.112-.034,2.224-.053,3.337-.01.565-.02,1.13-.03,1.694-.008.465-.265,1.822-.038,2.211l.01.137c-.013.25.066.2.238-.153-.042-.21.559.242-.141-.042-.341-.138-1.237.117-1.638.154-1.219.112-2.439.218-3.659.317-8.817.716-17.657.977-26.493.462-7.111-.415-15.201-.672-21.408-4.632-2.606-1.663-5.166-4.298-6.751-6.949-2.13-3.563-3.07-7.998-3.925-12.02-1.864-8.763-2.387-17.761-2.621-26.696-.058-2.214-.093-4.429-.12-6.643-.031-2.572-4.031-2.579-4,0,.118,9.705.426,19.435,1.907,29.042.695,4.511,1.671,8.993,3.123,13.324,1.372,4.094,3.511,7.367,6.636,10.327,2.847,2.697,5.943,4.55,9.686,5.761,3.538,1.145,7.202,1.633,10.891,1.981,9.529.899,19.083.985,28.632.368,2.472-.16,4.942-.358,7.409-.58,2.184-.196,4.802.015,5.891-2.299.509-1.081.344-2.417.364-3.583.024-1.365.049-2.731.071-4.096.04-2.508.068-5.016.055-7.524-.012-2.528-.065-5.055-.181-7.581-.099-2.156.298-5.308-2.114-6.336-.931-.397-1.943-.277-2.929-.253-1.3.031-2.601.049-3.901.055-2.455.011-4.911-.022-7.365-.082-2.417-.059-4.834-.146-7.25-.238-1.267-.048-2.534-.099-3.801-.148-.935-.037-1.889-.009-2.588-.209-1.426-.408-2.86-1.356-3.781-2.522-.636-.806-.81-1.707-.977-2.687-1.084-6.365-1.756-12.823-2.442-19.24-.813-7.602-.551-16.17-5.879-22.263-4.949-5.659-14.492-7.066-21.051-3.663-1.762.914-3.277,2.189-4.418,3.812-1.484,2.11,1.983,4.111,3.454,2.019h0Z"/><path class="h" d="M29.975,242.068c1.985,2.412,4.254,4.603,6.944,6.221,2.257,1.358,4.77,2.265,7.31,2.931,3.629.952,7.557,1.145,11.281,1.486,10.669.978,21.38,1.521,32.079,2.031,5.586.266,11.173.504,16.761.726,2.574.102,2.57-3.898,0-4-10.245-.408-20.489-.862-30.725-1.46-5.156-.301-10.312-.635-15.459-1.065-3.688-.308-7.621-.657-10.97-1.191-2.44-.389-4.894-1.128-7.094-2.263-2.913-1.502-5.23-3.731-7.299-6.245-1.637-1.989-4.453.855-2.828,2.828h0Z"/><path class="h" d="M104.294,200.742c-4.762-1.8-9.539-3.559-14.271-5.44-1.004-.399-2.196.437-2.46,1.397-.313,1.138.389,2.059,1.397,2.46,4.731,1.881,9.508,3.64,14.271,5.44,1.011.382,2.193-.424,2.46-1.397.309-1.124-.383-2.077-1.397-2.46h0Z"/><path class="h" d="M80.454,191.008c-.003,5.403-.477,10.548-1.612,15.839-.937,4.368-2.631,8.64-6.483,11.133-8.356,5.407-19.262,5.75-28.886,5.829-4.668.038-9.32-.169-13.979-.412-2.573-.134-2.565,3.866,0,4,10.567.552,21.332.909,31.787-1.038,4.372-.814,8.861-2.336,12.678-4.662,4.236-2.581,6.79-6.666,8.146-11.373,1.809-6.28,2.347-12.814,2.35-19.316.001-2.574-3.999-2.578-4,0h0Z"/><path class="h" d="M338.444,174.408c-.992-6.433-2.475-12.777-3.652-19.177-.499-2.713-1.055-5.475-1.179-8.236-.116-2.579.063-5.191.421-7.745.825-5.895,2.868-11.18,5.472-16.494,1.355-2.764,2.645-5.733,4.621-8.119,1.805-2.18,3.825-4.189,5.938-6.069,5.167-4.596,10.959-8.435,16.811-12.093,2.178-1.361.172-4.824-2.019-3.454-5.546,3.466-11.001,7.115-16.013,11.329-2.349,1.975-4.567,4.089-6.61,6.38s-3.487,4.755-4.902,7.471c-2.959,5.681-5.64,11.499-6.805,17.834-.53,2.881-.876,5.816-.937,8.746-.057,2.763.329,5.474.768,8.197,1.214,7.534,3.065,14.95,4.228,22.493.165,1.068,1.505,1.659,2.46,1.397,1.141-.314,1.562-1.389,1.397-2.46h0Z"/><path class="h" d="M33.116,91.24c-4.286,5.195-7.733,10.978-9.776,17.422-2.148,6.776-2.59,13.999-2.024,21.053.496,6.188,1.86,12.186,2.974,18.274.546,2.985,1.055,5.988,1.306,9.015.264,3.196-.144,6.255-.571,9.426-.982,7.295-2.326,14.526-3.866,21.722-.537,2.51,3.318,3.583,3.857,1.063,1.281-5.985,2.434-11.993,3.342-18.047.563-3.754,1.369-7.657,1.366-11.461-.002-2.915-.436-5.839-.883-8.713-.857-5.506-2.204-10.926-2.991-16.442-1.01-7.079-1.201-14.434.422-21.437,1.634-7.055,5.082-13.479,9.675-19.046,1.626-1.971-1.188-4.816-2.828-2.828h0Z"/><path class="h" d="M39.283,86.798c.091-.382.187-.763.285-1.143.15-.58.245-1.868.695-2.274.696-.628,2.898.347,3.69.58,3.102.915,6.055,2.245,8.892,3.789,4.72,2.569,9.441,5.686,13.161,9.606,2.124,2.238,3.753,5.067,5.298,7.721,1.677,2.88,3.198,5.869,4.483,8.946,2.617,6.267,5.252,12.788,6.129,19.554.943,7.275-.825,14.617-2.258,21.712-.507,2.513,3.347,3.589,3.857,1.063,1.381-6.839,3.08-13.956,2.582-20.977-.546-7.688-3.388-14.866-6.258-21.941-1.395-3.438-3.014-6.782-4.863-9.999-1.77-3.078-3.686-6.319-6.142-8.907-4.152-4.375-9.511-7.904-14.824-10.688-3.517-1.843-7.254-3.428-11.14-4.293-2.055-.458-4.092-.531-5.608,1.193-1.165,1.324-1.438,3.326-1.836,4.995-.597,2.502,3.259,3.57,3.857,1.063h0Z"/><path class="h" d="M36.766,88.673c5.446,1.166,10.607,3.29,15.503,5.917.952.511,2.177.238,2.736-.718.531-.908.237-2.224-.718-2.736-5.182-2.781-10.692-5.086-16.458-6.32-1.055-.226-2.162.313-2.46,1.397-.274.997.336,2.233,1.397,2.46h0Z"/><path class="i" d="M359.722,8.841c-1.58-.121-3.24-.171-4.989-.146-4.899.07-9.98,1.524-12.19,2.283-7.981,2.743-14.517,9.246-17.949,16.463-.714,1.502-1.336,3.239-1.839,5.1.577.513.918.816.918.816,7.894,7.012,16.899,12.771,26.576,16.995,1.991.869,4.06,1.685,6.231,1.782l2.955.132c.306-.142.636-.259.996-.349,1.532-.383,3.021-.184,4.16.648,1.695,1.239,2.471,3.827,2.363,5.957-.284,5.593-3.173,9.356-8.245,11.658,1.555,4.044,3.209,8.172,3.417,12.45.153,3.153-1.037,7.986-4.354,10.253,10.967,8.314,23.031,7.016,28.115,5.513,3.914-1.157,7.41-4.703,8.02-9.042.408-2.904.298-6.59-.211-9.784-.767-4.815-2.073-10.224.295-22.668.719-3.779,1.566-8.519,1.306-12.807-.33-5.454-2.292-13.285-7.437-19.458-7.414-8.895-15.046-14.792-28.141-15.794Z"/><path class="h" d="M358.673,55.358c1.298-1.398,3.781-2.534,5.248-.689,1.237,1.556,1.181,3.845.824,5.613-.377,1.869-1.135,3.548-2.333,4.881-1.377,1.531-3.084,2.624-5.028,3.428-.997.413-1.708,1.327-1.397,2.46.259.943,1.456,1.812,2.46,1.397,4.293-1.776,7.866-4.585,9.56-9.029s1.41-11.259-3.735-13.262c-3.012-1.172-6.327.109-8.427,2.372-1.75,1.885,1.073,4.72,2.828,2.828h0Z"/><path class="h" d="M323.364,42.751c.064-7.036,1.95-13.909,6.145-19.608,3.814-5.182,9.224-9.019,15.397-10.812,11.869-3.447,25.253-1.593,34.737,6.632,4.62,4.007,8.914,8.856,11.214,14.582,2.578,6.418,2.909,12.943,1.771,19.723-1.075,6.404-2.337,12.746-1.88,19.275.363,5.194,1.741,10.176,1.312,15.433-.249,3.054-1.742,5.74-4.361,7.401-1.825,1.157-4.069,1.622-6.16,1.888-5.98.76-12.236-.209-17.633-2.916-1.736-.87-3.375-1.905-4.938-3.056-.87-.641-2.232-.145-2.736.718-.594,1.016-.155,2.094.718,2.736,6.011,4.428,13.333,6.796,20.799,6.755,5.672-.031,11.785-1.132,15.488-5.84,4.332-5.508,2.923-13.053,1.928-19.452-.312-2.007-.52-4.383-.523-6.68-.003-3.425.366-6.841.941-10.215.708-4.156,1.61-8.285,1.748-12.515.112-3.428-.371-6.899-1.255-10.209-.964-3.612-2.456-7.146-4.503-10.28-1.826-2.797-4.117-5.346-6.469-7.711-4.242-4.267-9.196-7.708-14.903-9.696-6.88-2.396-14.72-2.846-21.855-1.507s-13.583,4.355-18.729,9.53c-5.356,5.386-8.639,12.219-9.749,19.711-.301,2.028-.485,4.062-.504,6.112-.023,2.575,3.977,2.577,4,0h0Z"/><path class="h" d="M357.011,71.306c1.495,3.88,3.27,8.07,3.122,12.31-.097,2.783-1.157,6.071-3.578,7.676-2.135,1.417-.135,4.882,2.019,3.454,3.47-2.302,5.13-6.307,5.507-10.339.454-4.855-1.504-9.728-3.214-14.165-.388-1.007-1.345-1.703-2.46-1.397-.963.265-1.787,1.447-1.397,2.46h0Z"/><path class="h" d="M322.259,34.771c4.961,4.387,10.321,8.327,16.021,11.7,2.776,1.643,5.632,3.152,8.554,4.52,3.082,1.443,6.202,2.914,9.645,3.143,2.57.171,2.559-3.83,0-4-2.955-.196-5.796-1.715-8.422-2.973-2.777-1.33-5.493-2.789-8.137-4.368-5.274-3.149-10.233-6.781-14.834-10.85-1.922-1.7-4.761,1.119-2.828,2.828h0Z"/><path class="f" d="M359.352,70.789c-2.328.071-3.887,1.758-3.829,3.674.065,2.144,1.754,3.57,4.048,3.5,2.382-.073,3.892-1.61,3.827-3.741-.059-1.929-1.726-3.505-4.046-3.434Z"/><path class="h" d="M359.352,68.789c-2.521.108-4.792,1.536-5.594,3.995-.759,2.328.277,4.87,2.245,6.218,1.894,1.297,4.69,1.251,6.656.152,2.13-1.191,3.069-3.661,2.607-6.001-.539-2.731-3.259-4.413-5.915-4.364-1.045.019-2.049.906-2,2,.048,1.067.879,2.021,2,2,.196-.004.389.008.585.018.421.021-.491-.099-.087-.008.071.016.143.03.214.047.17.042.338.128.508.162-.472-.094-.297-.133-.101-.031.09.047.178.097.265.151.07.044.136.098.208.14.215.125-.393-.349-.134-.097.117.114.231.227.344.345.247.259-.223-.354-.104-.139.038.069.091.133.132.2.042.068.076.141.117.209.225.378-.134-.421-.028-.082.048.155.09.308.132.465.04.152-.014.315-.025-.242.002.098.019.198.022.296.006.171-.006.341-.015.511-.01.177-.113.218.033-.237-.034.105-.044.222-.073.33-.026.097-.224.619-.071.249.151-.366-.081.122-.137.209-.041.064-.091.124-.129.189.267-.451.247-.301.14-.191-.128.132-.273.252-.399.384.369-.385.268-.2.1-.091-.054.035-.108.068-.163.1-.085.049-.172.09-.259.136-.151.079-.234.014.204-.083-.165.036-.325.114-.491.156-.104.027-.209.045-.314.068-.359.081.494-.034.092-.011-.191.011-.38.026-.572.023-.189-.003-.797-.118-.124.019-.172-.035-.343-.061-.513-.107-.066-.018-.131-.037-.196-.059-.496-.162.31.173.014.018-.144-.076-.287-.147-.424-.236-.052-.033-.104-.08-.158-.108.448.234.266.215.111.074-.105-.095-.191-.209-.295-.304-.18-.164.3.442.111.145-.051-.08-.105-.157-.152-.239-.046-.08-.08-.177-.132-.254.248.365.144.378.09.211-.051-.157-.103-.312-.138-.474-.046-.212.027-.4.006.128.003-.066-.013-.142-.017-.21-.011-.201.015-.397.016-.596-.003.564-.066.376-.016.198.031-.108.053-.217.088-.324.019-.057.05-.121.065-.18-.144.329-.172.4-.086.215.028-.057.058-.114.089-.17.031-.056.064-.111.099-.165.035-.054.071-.107.108-.16-.208.261-.263.333-.164.213.128-.126.239-.267.374-.388.176-.157.313-.118-.093.063.084-.038.175-.119.255-.167.074-.044.152-.081.226-.125.396-.234-.397.133-.044.01.208-.072.416-.137.632-.182.074-.015.151-.023.223-.04-.615.146-.127.026.053.018,1.044-.045,2.05-.888,2-2-.047-1.045-.88-2.048-2-2Z"/></g></g></svg>