<svg id="b" xmlns="http://www.w3.org/2000/svg" width="420.5" height="305.645" viewBox="0 0 420.5 305.645"><defs><style>.e{fill:#e2704a;}.f{fill:#fff;}.g{fill:#211715;}.h{fill:#b3b3b3;}.i{fill:#645d5c;}</style></defs><g id="c"><g id="d"><path class="f" d="M187.42,23.325c-.452-1.614-.691-3.362-.691-5.218,0-8.744,6.658-16.107,16.207-16.107,7.035,0,12.471,4.002,14.866,9.566,2.036-1.206,4.463-1.906,7.167-1.906,8.103,0,14.002,6.098,13.698,13.758.601-.074,1.217-.117,1.85-.117,8.103,0,13.704,6.276,13.704,13.62,0,8.217-5.721,13.875-13.704,13.875h-52.261c-8.291,0-13.704-5.711-13.704-13.875,0-7.136,5.245-13.182,12.869-13.595Z"/><path class="g" d="M189.348,22.793c-1.514-5.668-.166-11.857,4.475-15.678,4.357-3.587,11.008-4.124,15.96-1.48,2.882,1.539,4.977,3.97,6.293,6.94.441.995,1.883,1.206,2.736.718,3.979-2.277,9.098-2.178,12.957.319,3.331,2.155,5.007,5.908,4.898,9.806-.028.996.943,2.115,2,2,5.167-.563,10.129,1.602,12.439,6.418,1.967,4.1,1.393,9.695-1.646,13.143-2.737,3.106-6.426,3.817-10.378,3.817h-46.611c-3.099,0-6.34.276-9.271-.924-4.941-2.022-7.249-7.525-6.552-12.627.752-5.496,5.284-9.556,10.771-9.919,2.555-.169,2.574-4.171,0-4-6.088.404-11.373,3.914-13.708,9.615-2.114,5.161-1.358,11.642,2.052,16.081,3.243,4.222,8.167,5.775,13.326,5.775h49.708c4.726,0,9.225-.841,12.765-4.233,4.152-3.979,5.587-10.406,4.093-15.888-1.525-5.594-6.215-10.027-11.946-11.067-1.676-.304-3.348-.376-5.042-.191l2,2c.148-5.328-2.382-10.355-6.88-13.26-5.039-3.255-11.83-3.274-16.994-.319l2.736.718C216.507,3.733,209.427-.346,202.027.023c-7.096.354-13.285,4.605-15.977,11.199-1.628,3.988-1.662,8.506-.559,12.635.664,2.484,4.523,1.43,3.857-1.063Z"/><path class="g" d="M269.979,65.19c11.937,6.885,24.063,13.438,36,20.326,2.234,1.289,4.25-2.166,2.019-3.454-11.937-6.888-24.063-13.441-36-20.326-2.234-1.288-4.251,2.167-2.019,3.454h0Z"/><path class="g" d="M156.774,61.736c-11.937,6.885-24.063,13.438-36,20.326-2.229,1.286-.217,4.744,2.019,3.454,11.937-6.888,24.063-13.441,36-20.326,2.229-1.286.217-4.744-2.019-3.454h0Z"/><path class="g" d="M216.373,116.909c0-12,.025-24,.025-36,0-2.574-4-2.578-4,0,0,12-.024,24-.025,36,0,2.574,4,2.578,4,0h0Z"/><path class="i" d="M395.583,179.274c4.417-.93,7.495-5.208,7.465-8.954-.031-3.104-.515-5.502-1.514-8.501-1.241-3.736-3.65-11.327-3.82-24.898l-.002.002c.346-3.819-.013-9.335-.17-11.456-.542-7.35-3.942-15.558-8.836-20.12-2.116-1.972-2.366-2.227-4.627-3.45l-5.933-3.258c-3.402-1.267-6.565-1.876-12.534-1.876-9.787,0-18.498,4.872-22.363,8.448-6.413,5.932-10.481,16.768-9.967,31.711v-.002c.005,10.889-.855,18.744-2.06,23.206-.169.631-.334,1.352-.491,2.125-.879,2.616-1.352,5.359-1.404,8.109-.045,2.36.377,5.012,2.33,6.43,1.374,1.157,3.738,2.557,6.255,2.484h57.67Z"/><path class="f" d="M380.934,171.676c-1.329-.516-2.571-.998-2.64-1.023-2.213-.799-2.126-2.222-2.405-3.814-.116-.662-.151-1.104-.173-1.502-1.179.475-2.402.843-3.675,1.113-2.167.46-4.264.568-6.258.633-1.994-.045-3.9-.238-5.774-.557-1.529-.26-3.034-.691-4.493-1.294-.104.897-.229,1.841-.293,2.187-.295,1.589-.192,3.015-2.405,3.814-.147.053-3.636,1.204-4.063,1.35l-.978.333c10.284,4.606,25.726,5.158,36.216-.048-.504-.198-1.82-.71-3.062-1.192Z"/><path class="g" d="M331.282,136.921c-.005,6.536-.15,13.197-1.32,19.646-1.106,6.095-4.474,13.113-1.636,19.197,1.575,3.377,6.007,5.502,9.587,5.511,2.574.007,2.578-3.993,0-4-1.802-.005-3.448-.79-4.84-1.898-1.357-1.08-1.7-2.626-1.743-4.301-.106-4.104,1.295-7.887,2.167-11.835,1.607-7.269,1.78-14.909,1.785-22.321.002-2.574-3.998-2.578-4,0h0Z"/><path class="g" d="M395.714,136.921c.095,6.504.67,13.049,2.16,19.393,1.113,4.738,3.679,9.672,3.151,14.617-.337,3.156-2.976,5.716-5.974,6.414-2.506.583-1.445,4.441,1.063,3.857,3.33-.775,6.262-3.118,7.769-6.193,1.678-3.425,1.27-7.339.391-10.944-.535-2.196-1.352-4.316-1.952-6.495-.696-2.53-1.23-5.103-1.629-7.697-.66-4.282-.916-8.624-.979-12.953-.037-2.572-4.038-2.579-4,0h0Z"/><path class="g" d="M378.678,96.712c-9.711-3.571-21.105-2.269-30.165,2.488-3.722,1.955-7.023,4.5-9.589,7.844-2.602,3.392-4.397,7.35-5.596,11.439-1.747,5.956-2.239,12.259-2.046,18.441.08,2.568,4.081,2.579,4,0-.283-9.051.873-18.793,6.08-26.463,4.582-6.75,13.236-10.736,21.177-11.538,5.043-.51,10.302-.108,15.075,1.647,2.42.89,3.463-2.975,1.063-3.857h0Z"/><path class="g" d="M399.712,136.923c1.114-13.248-1.884-29.825-14.624-36.752-2.262-1.23-4.284,2.223-2.019,3.454,11.438,6.219,13.639,21.453,12.642,33.298-.216,2.565,3.785,2.551,4,0h0Z"/><path class="f" d="M328.599,235.308c-3.092-1.622-6.78-3.498-9.112-5.221-2.854-2.11-5.201-4.88-5.538-7.773-.265-2.274.191-6.219.616-8.469.937-4.96,5.049-15.853,6.663-19.558,3.126-7.175,5.978-12.2,7.913-13.738,3.448-2.739,11.006-5.541,16.957-7.932.364-.146.757-.128,1.112.039,10.495,4.945,26.773,5.541,37.455-.133.37-.196.794-.228,1.182-.071,6.007,2.42,13.851,5.291,17.383,8.097,1.936,1.538,4.787,6.563,7.913,13.738,1.614,3.705,5.726,14.597,6.663,19.558.425,2.249.881,6.195.616,8.469-.337,2.893-2.684,5.663-5.538,7.773-2.332,1.724-6.02,3.599-9.112,5.221h-75.174Z"/><path class="g" d="M329.608,233.581c-3.398-1.78-7.116-3.432-10.032-5.97-1.304-1.135-2.6-2.487-3.267-4.112-.599-1.46-.472-3.114-.37-4.654.395-5.942,2.458-11.582,4.503-17.126,2.193-5.947,4.406-11.587,7.916-17.059,1.343-2.093,2.867-3.278,5.14-4.483,3.253-1.724,6.697-3.07,10.114-4.428.872-.346,1.818-.628,2.652-1.055.441-.226.199-.183.704.039.419.184.84.363,1.263.536,1.534.627,3.109,1.149,4.709,1.58,3.455.93,7.035,1.458,10.605,1.651,7.073.383,14.42-.597,20.872-3.622.268-.126.658-.427.947-.465.054-.007.62.237.847.328.934.373,1.869.741,2.803,1.112,1.759.699,3.52,1.398,5.257,2.15,2.609,1.129,5.732,2.289,7.861,4.237,1.864,1.705,3.13,4.419,4.304,6.709,1.538,3,2.808,5.831,3.95,8.723,2.117,5.357,4.363,10.926,5.47,16.597.294,1.509.474,3.042.575,4.576s.23,3.194-.37,4.654c-1.376,3.35-4.883,5.49-7.887,7.19-1.78,1.008-3.601,1.943-5.413,2.892-2.281,1.195-.261,4.649,2.019,3.454,6.822-3.574,15.858-7.709,15.716-16.687-.105-6.639-2.227-12.889-4.479-19.06-2.314-6.342-4.843-12.803-8.471-18.521-1.554-2.449-3.304-4.167-5.837-5.598-3.452-1.949-7.192-3.402-10.867-4.868-.883-.352-1.768-.701-2.651-1.052-1.019-.405-2.02-.942-3.143-.865-.959.066-1.8.642-2.651,1.04-.818.383-1.658.712-2.511,1.009-3.456,1.201-7.082,1.851-10.731,2.06-3.786.217-7.615.024-11.348-.651-1.814-.328-3.61-.758-5.371-1.305-1.657-.515-3.226-1.394-4.879-1.868-1.872-.536-4.083.851-5.788,1.531-1.98.79-3.956,1.592-5.911,2.444-2.934,1.278-6.35,2.642-8.646,4.959-2.165,2.184-3.644,5.157-5.009,7.871-1.562,3.105-2.962,6.289-4.231,9.524-2.233,5.694-4.673,11.656-5.574,17.738-.546,3.679-1.115,7.699.63,11.142,1.829,3.607,5.357,6.09,8.773,8.05,1.899,1.09,3.849,2.09,5.788,3.106,2.278,1.194,4.302-2.257,2.019-3.454h0Z"/><path class="g" d="M353.687,163.392c-.01.838-.148,1.686-.251,2.516-.015.122-.03.243-.046.365-.009.066-.018.132-.026.198-.006.052.071-.511.04-.299-.028.188-.052.377-.083.564-.07.427-.135.855-.211,1.281-.04.225-.087.45-.152.67-.028.093-.172.46-.028.121.145-.342-.047.052-.095.145-.189.364.262-.253.044-.047-.07.066-.376.326-.113.136.273-.196-.107.065-.189.113-.056.033-.114.064-.172.094-.28.145-.141-.003.025.003-.172-.006-.485.169-.645.222-.397.132-.794.263-1.191.395-.79.262-1.582.519-2.371.787-.989.336-1.743,1.39-1.397,2.46.318.982,1.4,1.757,2.46,1.397,1.397-.474,2.831-.872,4.207-1.404,1.628-.629,2.875-1.726,3.347-3.451.273-.995.373-2.069.509-3.09.139-1.045.323-2.118.336-3.174.012-1.046-.929-2.048-2-2-1.094.049-1.987.879-2,2h0Z"/><path class="g" d="M373.545,163.776c.038.192.137.464.117.659.004-.035-.05-.475-.018-.125.007.081.017.162.024.242.025.294.035.588.054.882.054.853.208,1.693.334,2.537.241,1.604.841,2.951,2.216,3.9.722.498,1.626.76,2.445,1.078.949.368,1.898.737,2.847,1.106.702.273,1.409.538,2.107.822.972.395,2.24-.429,2.46-1.397.264-1.161-.356-2.037-1.397-2.46-1.449-.589-2.916-1.137-4.374-1.703-.535-.208-1.067-.43-1.608-.621-.234-.083.126.046.123.054-.001.003-.221-.11-.252-.127-.077-.042-.15-.09-.227-.135-.214-.124.034-.097.11.098-.024-.061-.234-.236-.282-.27-.142-.102.139.18.147.2-.027-.079-.122-.183-.164-.258-.023-.042-.041-.094-.069-.134-.135-.193.137.432.085.202-.026-.113-.076-.223-.106-.336-.072-.268-.119-.542-.162-.815-.05-.319-.097-.638-.15-.956-.011-.069-.075-.438-.027-.142s-.01-.097-.017-.161c-.016-.16-.028-.321-.039-.482-.058-.916-.142-1.819-.32-2.722-.202-1.029-1.486-1.712-2.46-1.397-1.094.354-1.613,1.358-1.397,2.46h0Z"/><path class="f" d="M327.206,192.181c-.105.218-.164.464-.163.723.03,8.381-.281,34.273-.082,46.85.029,1.854,1.525,3.34,3.379,3.344,13.072.026,58.219-.031,71.748-.007,1.888.003,3.405-1.526,3.39-3.414-.09-11.638-.534-40.633-.534-46.773,0-.903-.716-1.636-1.61-1.639-5.618-.019-21.441-.113-37.341-.229-15.9.116-31.722.21-37.341.229-.637.002-1.186.375-1.447.916Z"/><path class="g" d="M325.278,191.65c-.513,1.46-.232,3.389-.237,4.924-.006,1.855-.016,3.71-.027,5.565-.027,4.673-.059,9.346-.083,14.02-.025,4.814-.043,9.628-.036,14.442.003,2.102.011,4.204.031,6.306.021,2.258-.18,4.565,1.408,6.391,2.203,2.534,6.41,1.805,9.44,1.807,3.575.002,7.15.001,10.725,0,8.824-.002,17.648-.008,26.472-.013,7.85-.004,15.699-.009,23.549-.005,3.103.001,7.319.751,9.596-1.808,1.53-1.72,1.363-3.87,1.342-6.006-.018-1.842-.038-3.685-.06-5.527-.103-8.857-.226-17.715-.335-26.572-.041-3.342-.083-6.684-.108-10.027-.01-1.354.199-2.98-.557-4.166-1.297-2.033-3.673-1.717-5.755-1.726-11.714-.054-23.432-.266-35.145-.214-11.509.051-23.017.163-34.526.216-2.116.01-4.239-.167-5.492,1.916-1.33,2.211,2.127,4.225,3.454,2.019.044-.073-.476-.081-.101.074.069.029.325-.001.377-.001.352-.001.703-.003,1.055-.004.853-.004,1.706-.008,2.558-.012,2.223-.011,4.447-.023,6.67-.036,5.877-.034,11.755-.072,17.632-.112,12.284-.084,24.566.051,36.85.12,2.094.012,4.188.023,6.282.033.774.004,1.549.007,2.323.01.128,0,.264.011.39.001h.185c.224.022.238.005.042-.051,0-.054-.183-.281-.253-.201-.028.032.004.309,0,.351-.194,2.607.042,5.32.071,7.933.095,8.334.211,16.668.315,25.003.046,3.736.092,7.472.127,11.208.012,1.239.455,3.343-1.254,3.596-1.074.159-2.319-.014-3.407-.015-7.03-.006-14.06-.002-21.091.002-15.12.007-30.24.03-45.36.012-1.039-.001-2.744.34-3.266-.821-.291-.647-.137-1.599-.145-2.297-.011-.974-.019-1.948-.025-2.921-.027-4.366-.021-8.732-.006-13.098.028-8.425.106-16.849.134-25.274.004-1.18-.294-2.871.095-3.977.854-2.434-3.009-3.48-3.857-1.063Z"/><path class="f" d="M389.839,149.373c-.972,2.944-2.645,6.393-5.457,9.616-3.598,4.124-7.632,6.461-12.341,7.462-2.167.46-4.264.568-6.258.633-1.994-.045-3.9-.238-5.774-.557-4.75-.808-9.269-3.264-12.913-7.352-2.854-3.202-4.567-6.641-5.57-9.58-2.683-.868-5.343-2.966-6.813-5.49-1.383-2.373-1.627-5.575-.283-7.891,1.342-2.313,4.346-3.372,6.831-2.565,2.389-2.071,6.368-5.014,11.514-6.545,2.186-.635,6.029-1.745,7.226-2.166,5.837-2.053,12.296-5.53,15.249-9.173,1.565,5.182,9.832,16.845,14.567,17.929,2.574-.971,5.775.177,7.106,2.645,1.271,2.358.927,5.55-.53,7.879-1.42,2.271-3.827,4.152-6.305,5.056"/><path class="g" d="M390.697,135.492c.607-.165,1.236-.197,1.766-.083.208.045.413.1.615.166.075.025.445.171.215.07.194.085.382.189.564.299-.01-.006.498.335.292.175,1.214.939,1.627,2.316,1.549,3.926-.157,3.246-3.139,6.168-6.14,7.3-1.01.381-1.702,1.35-1.397,2.46.266.969,1.444,1.78,2.46,1.397,4.851-1.83,9.141-6.179,9.087-11.645-.026-2.661-1.142-5.129-3.303-6.71-1.924-1.408-4.482-1.832-6.771-1.211-2.481.673-1.428,4.533,1.063,3.857h0Z"/><path class="g" d="M341.805,131.724c-2.259-.69-4.854-.304-6.8,1.046-2.208,1.532-3.348,3.98-3.458,6.636-.225,5.475,4.006,9.905,8.779,11.879.999.413,2.199-.447,2.46-1.397.316-1.149-.394-2.046-1.397-2.46-2.978-1.231-5.784-4.269-5.848-7.534-.016-.825.052-1.489.409-2.297-.057.129.177-.322.208-.374-.005.009.332-.498.179-.302.13-.166.284-.323.435-.469.04-.038.47-.39.251-.228.686-.507,1.021-.604,1.852-.796.178-.041.508-.042.945-.041.386,0-.1-.06.307.032.207.047.411.099.614.161,2.467.753,3.522-3.106,1.063-3.857h0Z"/><path class="g" d="M387.911,148.841c-2.349,6.975-7.687,13.277-14.936,15.32-7.377,2.079-16.31.95-22.208-4.172-3.367-2.924-5.862-6.753-7.321-10.956-.839-2.417-4.704-1.378-3.857,1.063,2.931,8.443,9.494,15.866,18.399,18.049,8.781,2.153,18.611.776,25.477-5.371,3.865-3.46,6.655-7.973,8.304-12.87.824-2.445-3.038-3.494-3.857-1.063h0Z"/><path class="g" d="M342.845,134.922c2.311-1.97,4.89-3.657,7.674-4.881s5.848-1.871,8.755-2.769c3.187-.985,6.297-2.329,9.229-3.916s5.873-3.499,8.056-6.049c1.666-1.946-1.151-4.788-2.828-2.828-2.167,2.531-5.08,4.309-8.01,5.828-2.784,1.444-5.682,2.566-8.682,3.464-3.147.943-6.323,1.741-9.298,3.168-2.804,1.345-5.362,3.142-7.725,5.155-1.962,1.672.879,4.49,2.828,2.828h0Z"/><path class="g" d="M373.516,116.889c1.52,4.112,4.083,7.846,6.785,11.263,1.335,1.688,2.771,3.324,4.4,4.735,1.342,1.163,2.898,2.361,4.672,2.752,1.054.232,2.164-.318,2.46-1.397.275-1.002-.337-2.227-1.397-2.46-.2-.044-.984-.358-.499-.124-.314-.152-.621-.309-.919-.492-.333-.205-.654-.429-.966-.665.336.254-.251-.21-.307-.257-.146-.123-.291-.249-.434-.376-1.538-1.37-2.907-2.931-4.183-4.544-1.157-1.463-2.426-3.315-3.471-5.041-.496-.82-.97-1.655-1.406-2.508-.194-.38-.381-.764-.557-1.153-.04-.088-.276-.663-.098-.216-.077-.193-.152-.385-.224-.579-.374-1.013-1.355-1.701-2.46-1.397-.974.268-1.773,1.442-1.397,2.46h0Z"/><path class="g" d="M379.199,139.112c.002.203.011,2.234-1.571,3.432-1.037.785-2.14.684-2.486.646-.267-.029-2.006-.25-2.91-1.9-.857-1.563-.672-3.878.762-5.238,1.487-1.411,3.59-1.187,4.846-.059,1.131,1.016,1.326,2.088,1.359,3.12Z"/><path class="g" d="M359.505,139.112c.002.203.011,2.234-1.571,3.432-1.037.785-2.14.684-2.486.646-.267-.029-2.006-.25-2.91-1.9-.857-1.563-.672-3.878.762-5.238,1.487-1.411,3.59-1.187,4.846-.059,1.131,1.016,1.326,2.088,1.359,3.12Z"/><path class="f" d="M228.724,222.697c-1.743-.823-1.688-2.152-1.946-3.625-.185-1.054-.164-1.55-.217-2.219-1.806.972-3.719,1.656-5.758,2.089-2.167.46-4.264.568-6.258.633-1.994-.045-3.9-.238-5.774-.557-2.604-.443-5.14-1.381-7.499-2.813-.092,1.029-.32,2.852-.415,3.365-.295,1.589-.192,3.015-2.405,3.814-.084.03-1.429.469-2.644.866.133.012.244.04.313.089,3.51,2.517,11.844,4.958,18.265,4.958s14.755-2.441,18.265-4.958c.019-.013.041-.025.066-.036-1.521-.615-3.444-1.384-3.533-1.417-.166-.06-.318-.123-.459-.19Z"/><path class="g" d="M199.32,215.544c-.011.913-.165,1.839-.28,2.743-.011.09-.071.539-.017.139.051-.378,0,.003-.014.097-.025.172-.051.344-.081.516-.086.5-.145,1.007-.259,1.501-.026.113-.055.225-.089.335-.019.063-.042.123-.062.186-.06.188-.138.071.088-.208-.058.071-.137.219-.169.3-.062.158.153-.192.164-.2-.062.046-.12.138-.176.195-.052.052-.113.096-.162.149-.129.142.155-.143.174-.135-.04-.017-.322.197-.385.231-.428.224.23-.056-.131.063-.026.009-.052.017-.078.026-.697.241-1.402.459-2.103.688-.797.26-1.597.514-2.391.784-.989.335-1.743,1.391-1.397,2.46.318.982,1.399,1.757,2.46,1.397,1.493-.506,3.004-.958,4.494-1.472,1.609-.555,2.812-1.521,3.434-3.124.35-.901.432-1.941.563-2.895.17-1.24.402-2.522.417-3.776.013-1.046-.929-2.048-2-2-1.095.049-1.986.879-2,2h0Z"/><path class="g" d="M224.433,216.009c.028.141.035.541.117.659-.021-.03-.05-.477-.018-.125.006.061.013.122.018.183.027.295.038.591.056.886.05.817.191,1.622.313,2.431.207,1.366.573,2.718,1.691,3.641.83.685,1.804,1.034,2.787,1.427.878.35,1.755.701,2.632,1.053.69.277,1.382.549,2.071.831.971.397,2.24-.43,2.46-1.397.265-1.163-.357-2.035-1.397-2.46-1.381-.565-2.77-1.112-4.155-1.665-.323-.129-.647-.259-.971-.387-.083-.033-.166-.066-.249-.099-.02-.008-.041-.016-.061-.024-.41-.157.251.149-.095-.042-.135-.074-.266-.164-.401-.234-.179-.093.156.113.162.133-.009-.028-.137-.12-.169-.152-.038-.037-.072-.085-.113-.118-.184-.149.217.367.117.158-.054-.113-.132-.247-.204-.349-.135-.193.137.432.085.202-.011-.047-.034-.096-.049-.142-.036-.112-.066-.227-.094-.342-.065-.273-.107-.55-.149-.827-.049-.323-.09-.649-.154-.969-.061-.304.035.351.008.073-.011-.111-.025-.221-.035-.331-.014-.155-.024-.31-.033-.465-.051-.878-.143-1.746-.313-2.611-.202-1.029-1.486-1.712-2.46-1.397-1.094.354-1.613,1.358-1.397,2.46h0Z"/><path class="f" d="M252.751,294.305c3.274-1.179,9.15-3.536,11.464-4.867,3.457-1.988,6.332-5.056,7.019-8.984.447-2.558-.41-7.284-1.113-9.758-1.681-5.915-5.709-17.703-7.182-22.418-2.43-7.775-4.42-11.784-7.392-14.123-3.974-3.127-14.626-7.017-21.376-9.742-.307-.132-1.248-.269-1.52-.075-3.51,2.517-11.844,4.958-18.265,4.958s-14.755-2.441-18.265-4.958c-.272-.195-1.213-.057-1.52.075-6.749,2.725-17.402,6.614-21.376,9.742-2.972,2.339-4.962,6.348-7.392,14.123-1.474,4.715-5.501,16.503-7.182,22.418-.703,2.474-1.56,7.2-1.113,9.758.687,3.928,3.562,6.996,7.019,8.984,2.314,1.33,8.189,3.688,11.464,4.867h76.731Z"/><path class="f" d="M238.927,186.056c2.511-.736,5.488.417,6.759,2.774,1.271,2.358.927,5.55-.53,7.879-1.42,2.271-3.827,4.152-6.305,5.056,0,0-.123.045-.246.09-.975,2.955-2.649,6.403-5.461,9.626-3.598,4.124-7.632,6.461-12.341,7.462-2.167.46-4.264.568-6.258.633-1.994-.045-3.9-.238-5.774-.557-4.75-.808-9.269-3.264-12.913-7.352-2.854-3.202-4.567-6.641-5.571-9.576-2.683-.872-5.342-2.97-6.813-5.494-1.383-2.373-1.627-5.575-.283-7.891,1.344-2.317,4.356-3.375,6.843-2.561,0,0-1.383-22.521,23.284-22.521,26.889,0,25.608,22.432,25.608,22.432Z"/><path class="i" d="M225.599,172.802c1.565.681,2.581,1.393,4.303,2.875,3.427,2.948,5.801,7.112,7.184,11.366,1.83-1.538,4.437-1.527,6.413-.409,1.593-6.441,1.43-13.464-.571-18.946-1.619-4.435-3.682-6.42-6.249-8.559l-5.016-4.088c-5.703-5.735-15.954-6.725-23.349-5.659-4.782.689-9.179,2.335-12.971,4.995-1.84,1.291-3.538,2.821-5.069,4.597-6.347,7.363-7.655,19.024-5.675,28.153,1.514-1.166,3.602-1.573,5.415-.988.806-.826,1.405-1.44,1.405-1.44,3.269-3.354,9.036-8.411,13.079-10.372.474-.23,1.081.078,1.271.806.384,1.473-.25,3.576.873,3.166,1.946-.71,7.792-4.568,12.324-6.338l6.634.843Z"/><path class="g" d="M186.333,185.636c-1.54-8.408-.396-18.552,5.355-25.249,6.424-7.482,16.321-10.182,25.895-9.183,4.57.477,9.327,1.967,12.666,5.249,1.837,1.806,4.668-1.02,2.828-2.828-7.012-6.894-18.711-7.76-27.864-5.702-5.583,1.256-10.8,4.003-14.871,8.042-3.692,3.664-6.135,8.315-7.412,13.338-1.443,5.68-1.508,11.647-.455,17.396.463,2.528,4.319,1.457,3.857-1.063h0Z"/><path class="g" d="M245.66,186.164c1.169-5.541,1.316-11.394-.143-16.898-1.249-4.709-3.715-8.448-7.423-11.552-1.961-1.642-4.805,1.174-2.828,2.828,1.323,1.108,2.651,2.264,3.661,3.675,1.31,1.831,2.16,3.946,2.734,6.112,1.273,4.8,1.163,9.937.143,14.772-.53,2.511,3.325,3.585,3.857,1.063h0Z"/><path class="g" d="M239.459,187.984c.607-.165,1.236-.197,1.766-.083.208.045.413.1.615.166.075.025.445.171.215.07.194.085.382.189.564.299-.01-.006.498.335.292.175,1.214.939,1.627,2.316,1.549,3.926-.157,3.246-3.139,6.168-6.14,7.3-1.01.381-1.702,1.35-1.397,2.46.266.969,1.444,1.78,2.46,1.397,4.851-1.83,9.141-6.179,9.087-11.645-.026-2.661-1.142-5.129-3.303-6.71-1.924-1.408-4.482-1.832-6.771-1.211-2.481.673-1.428,4.533,1.063,3.857h0Z"/><path class="g" d="M190.567,184.216c-2.259-.69-4.854-.304-6.8,1.046-2.208,1.532-3.348,3.98-3.458,6.636-.225,5.475,4.006,9.905,8.779,11.879.999.413,2.199-.447,2.46-1.397.316-1.149-.394-2.046-1.397-2.46-2.978-1.231-5.784-4.269-5.848-7.534-.016-.825.052-1.489.409-2.297-.057.129.177-.322.208-.374-.005.009.332-.498.179-.302.13-.166.284-.323.435-.469.04-.038.47-.39.251-.228.686-.507,1.021-.604,1.852-.796.178-.041.508-.042.945-.041.386,0-.1-.06.307.032.207.047.411.099.614.161,2.467.753,3.522-3.106,1.063-3.857h0Z"/><path class="g" d="M236.672,201.333c-2.349,6.975-7.687,13.277-14.936,15.32-7.377,2.079-16.31.95-22.208-4.172-3.367-2.924-5.862-6.753-7.321-10.956-.839-2.417-4.704-1.378-3.857,1.063,2.931,8.443,9.494,15.866,18.399,18.049,8.781,2.153,18.611.776,25.477-5.371,3.865-3.46,6.655-7.973,8.304-12.87.824-2.445-3.038-3.494-3.857-1.063h0Z"/><path class="g" d="M228.251,191.384c.002.203.011,2.234-1.571,3.432-1.037.785-2.14.684-2.486.646-.267-.029-2.006-.25-2.91-1.9-.857-1.563-.672-3.878.762-5.238,1.487-1.411,3.59-1.187,4.846-.059,1.131,1.016,1.326,2.088,1.359,3.12Z"/><path class="g" d="M208.558,191.384c.002.203.011,2.234-1.571,3.432-1.037.785-2.14.684-2.486.646-.267-.029-2.006-.25-2.91-1.9-.857-1.563-.672-3.878.762-5.238,1.487-1.411,3.59-1.187,4.846-.059,1.131,1.016,1.326,2.088,1.359,3.12Z"/><path class="g" d="M224.589,174.529c.522.23,1.034.481,1.524.775.267.16.528.331.783.51.123.086.243.174.364.263.279.204-.047-.042.127.098,1.121.901,2.186,1.857,3.135,2.94.226.258.444.522.659.79l.127.162c-.083-.105-.083-.104,0,.005.102.138.204.276.304.416.399.561.775,1.139,1.127,1.73.37.622.713,1.259,1.032,1.908.152.309.298.62.438.934.07.157.14.313.206.472-.124-.297.101.259.11.282.386.968,1.354,1.755,2.46,1.397.938-.304,1.811-1.42,1.397-2.46-1.205-3.024-2.772-5.83-4.897-8.308-1.867-2.177-4.238-4.203-6.877-5.367-.955-.421-2.193-.311-2.736.718-.459.868-.304,2.286.718,2.736h0Z"/><path class="g" d="M192.832,186.111c1.93-1.969,3.971-3.832,6.099-5.585,1.04-.856,2.105-1.679,3.212-2.447.569-.395,1.147-.776,1.74-1.135.273-.166.55-.326.83-.48l.269-.145c.437-.197.345-.204-.274-.022l-.883-.514c-.078-.063.096-.173.049-.037-.052.149.031.475.037.638.013.388-.006.777.024,1.164.073.953.343,1.91,1.212,2.445,1.425.877,3.038-.16,4.31-.846,3.318-1.79,6.527-3.86,10.04-5.26,1.003-.399,1.706-1.337,1.397-2.46-.262-.954-1.451-1.799-2.46-1.397-2.58,1.028-5.029,2.323-7.45,3.678-1.061.594-2.114,1.201-3.179,1.785-.378.208-.758.414-1.144.608-.141.071-.448.168-.566.274.174-.156-.052-.061.185-.043l1.009.273-.123-.068.718.718c.087.113-.018.434.046.16.037-.16-.008-.402-.012-.568-.01-.476-.027-.943-.085-1.416-.157-1.287-.748-2.543-2.061-2.993-1.953-.669-4.119,1.125-5.647,2.186-3.641,2.528-7.02,5.494-10.12,8.657-1.803,1.84,1.023,4.671,2.828,2.828h0Z"/><path class="g" d="M253.283,296.234c3.789-1.371,7.63-2.826,11.215-4.676,3.819-1.971,7.204-5.276,8.415-9.49,1.117-3.884.122-8.475-.968-12.266-1.074-3.736-2.299-7.431-3.509-11.125-1.128-3.443-2.285-6.878-3.381-10.331-1.287-4.056-2.566-8.316-4.888-11.926-1.772-2.756-4.172-4.602-7.042-6.118-3.861-2.041-7.953-3.656-12.005-5.27-1.939-.772-3.885-1.53-5.822-2.306-.936-.375-1.983-.641-2.994-.386-.816.206-1.549.87-2.291,1.261-3.751,1.978-8.221,3.077-12.418,3.518-4.555.479-9.083-.163-13.462-1.445-1.889-.553-3.767-1.208-5.504-2.143-.698-.376-1.387-.994-2.161-1.191-1.008-.257-2.06.011-2.994.386-4.107,1.645-8.24,3.224-12.302,4.978-3.343,1.443-6.92,2.928-9.712,5.327-2.68,2.303-4.236,5.635-5.516,8.852-1.456,3.658-2.539,7.466-3.769,11.204-1.277,3.884-2.566,7.765-3.802,11.662-1.186,3.742-2.322,7.442-2.781,11.356-.524,4.471.559,8.506,3.733,11.805,2.908,3.022,6.785,4.595,10.587,6.161,1.844.759,3.702,1.485,5.577,2.163,2.425.877,3.469-2.986,1.063-3.857-3.469-1.255-6.977-2.579-10.259-4.273-3.177-1.64-6.344-4.461-6.829-8.209-.446-3.448.66-7.197,1.644-10.467,1.08-3.589,2.251-7.151,3.421-10.712,1.052-3.203,2.127-6.399,3.142-9.614,1.175-3.724,2.353-7.607,4.535-10.89,1.576-2.371,3.758-3.61,6.315-4.899,3.589-1.809,7.337-3.295,11.071-4.774,1.812-.718,3.666-1.67,5.541-2.197.083-.023.164-.051.242-.088.406-.193.281.325-.059-.046.216.235.636.408.913.566.798.455,1.632.837,2.476,1.196,4.019,1.708,8.324,2.734,12.666,3.168,4.296.43,8.652-.131,12.821-1.195,2.091-.534,4.132-1.221,6.114-2.074.763-.328,1.516-.683,2.238-1.095.309-.176.624-.357.913-.566-.254.184-.583-.204-.059.046.122.058.26.106.39.148,1.825.587,3.61,1.431,5.393,2.138,1.91.757,3.818,1.518,5.709,2.321,3.182,1.351,6.738,2.711,9.47,4.886,2.035,1.62,3.513,4.468,4.543,7.027,1.396,3.467,2.425,7.075,3.59,10.624,1.215,3.701,2.443,7.397,3.632,11.106,1.045,3.26,2.176,6.532,2.79,9.907.321,1.761.638,3.709.392,5.5-.251,1.83-1.204,3.555-2.437,4.904-2.517,2.752-6.036,4.16-9.418,5.542-1.731.707-3.474,1.386-5.232,2.022-2.402.869-1.365,4.736,1.063,3.857h0Z"/><path class="f" d="M175.406,252.626c-.105.218-.164.464-.163.723.03,8.381-.281,34.273-.082,46.85.029,1.854,1.525,3.34,3.379,3.344,13.072.026,58.219-.031,71.748-.007,1.888.003,3.405-1.526,3.39-3.414-.09-11.638-.534-40.633-.534-46.773,0-.903-.716-1.636-1.61-1.639-5.618-.019-21.441-.113-37.341-.229-15.9.116-31.722.21-37.341.229-.637.002-1.186.375-1.447.916Z"/><path class="g" d="M173.477,252.094c-.513,1.46-.232,3.389-.237,4.924-.006,1.855-.016,3.71-.027,5.565-.027,4.673-.059,9.346-.083,14.02-.025,4.814-.043,9.628-.036,14.442.003,2.102.011,4.204.031,6.306.021,2.258-.18,4.565,1.408,6.391,2.203,2.534,6.41,1.805,9.44,1.807,3.575.002,7.15.001,10.725,0,8.824-.002,17.648-.008,26.472-.013,7.85-.004,15.699-.009,23.549-.005,3.103.001,7.319.751,9.596-1.808,1.53-1.72,1.363-3.87,1.342-6.006-.018-1.842-.038-3.685-.06-5.527-.103-8.857-.226-17.715-.335-26.572-.041-3.342-.083-6.684-.108-10.027-.01-1.354.199-2.98-.557-4.166-1.297-2.033-3.673-1.717-5.755-1.726-11.714-.054-23.432-.266-35.145-.214-11.509.051-23.017.163-34.526.216-2.116.01-4.239-.167-5.492,1.916-1.33,2.211,2.127,4.225,3.454,2.019.044-.073-.476-.081-.101.074.069.029.325-.001.377-.001.352-.001.703-.003,1.055-.004.853-.004,1.706-.008,2.558-.012,2.223-.011,4.447-.023,6.67-.036,5.877-.034,11.755-.072,17.632-.112,12.284-.084,24.566.051,36.85.12,2.094.012,4.188.023,6.282.033.774.004,1.549.007,2.323.01.128,0,.264.011.39.001h.185c.224.022.238.005.042-.051,0-.054-.183-.281-.253-.201-.028.032.004.309,0,.351-.194,2.607.042,5.32.071,7.933.095,8.334.211,16.668.315,25.003.046,3.736.092,7.472.127,11.208.012,1.239.455,3.343-1.254,3.596-1.074.159-2.319-.014-3.407-.015-7.03-.006-14.06-.002-21.091.002-15.12.007-30.24.03-45.36.012-1.039-.001-2.744.34-3.266-.821-.291-.647-.137-1.599-.145-2.297-.011-.974-.019-1.948-.025-2.921-.027-4.366-.021-8.732-.006-13.098.028-8.425.106-16.849.134-25.274.004-1.18-.294-2.871.095-3.977.854-2.434-3.009-3.48-3.857-1.063Z"/><path class="f" d="M20.571,231.861c-3.274-1.179-9.15-3.536-11.464-4.867-3.457-1.988-6.332-5.056-7.019-8.984-.447-2.558.41-7.284,1.113-9.758,1.681-5.915,5.709-17.703,7.182-22.418,2.43-7.775,4.42-11.784,7.392-14.123,3.974-3.127,14.626-7.017,21.376-9.742h39.569c6.749,2.725,17.402,6.614,21.376,9.742,2.972,2.339,4.962,6.348,7.392,14.123,1.474,4.715,5.501,16.503,7.182,22.418.703,2.474,1.56,7.2,1.113,9.758-.687,3.928-3.562,6.996-7.019,8.984-2.314,1.33-8.189,3.688-11.464,4.867H20.571Z"/><path class="f" d="M83.477,123.611c2.511-.736,5.488.417,6.759,2.774,1.271,2.358.927,5.55-.53,7.879-1.42,2.271-3.827,4.152-6.305,5.056,0,0-.123.045-.25.1-.972,2.944-2.645,6.393-5.457,9.616-3.598,4.124-7.632,6.461-12.341,7.462-2.167.46-4.264.568-6.258.633-1.994-.045-3.9-.238-5.774-.557-4.75-.808-9.269-3.264-12.913-7.352-2.854-3.202-4.567-6.641-5.571-9.576-2.683-.872-5.342-2.97-6.813-5.494-1.383-2.373-1.627-5.575-.283-7.891,1.344-2.317,4.356-3.375,6.843-2.561,0,0-2.791-22.411,23.876-22.411,26.444,0,25.016,22.322,25.016,22.322Z"/><path class="h" d="M81.253,97.091c2.762,2.002,4.606,3.879,6.225,8.315,1.987,5.443,2.162,12.405.607,18.804-1.289-.741-2.852-1.009-4.294-.68-.272-.273-.48-.671-.533-1.005-.134-.851-.26-1.657-.466-2.482-.207-.832-.469-1.651-.783-2.452-.538-1.372-1.227-2.695-2.063-3.927-2.182-3.215-4.849-5.719-9.188-6.601l-10.971-.381c-2.9-.554-6.919-.579-9.854-.27-1.895.2-3.859.62-5.331,1.859-1.955,1.646-2.635,4.35-3.777,6.663-1.366,2.766-3.304,5.294-5.763,6.506l-.477,2.26c-1.818-.595-3.916-.189-5.438.978-1.979-9.128-.67-20.788,5.676-28.15,1.531-1.776,3.229-3.306,5.069-4.597,3.792-2.66,8.189-4.306,12.971-4.995,7.395-1.066,17.646-.077,23.349,5.659l5.041,4.496Z"/><path class="g" d="M78.189,163.898c6.038,2.432,12.288,4.569,18.011,7.704,2.035,1.115,3.619,2.216,4.916,4.166,1.739,2.616,2.813,5.628,3.797,8.59,1.9,5.721,3.755,11.462,5.601,17.201.858,2.667,1.771,5.341,2.45,8.061.709,2.843,1.47,6.24.589,9.117-1.028,3.354-3.979,5.673-7.007,7.168-3.155,1.557-6.469,2.833-9.775,4.029-2.402.869-1.365,4.736,1.063,3.857,3.255-1.178,6.489-2.463,9.633-3.912s5.967-3.388,8.021-6.214c4.206-5.789,1.984-13.254.051-19.48-1.899-6.119-3.996-12.175-5.933-18.282-1.872-5.9-3.804-12.683-9.156-16.399-2.972-2.063-6.438-3.465-9.754-4.863-3.788-1.598-7.63-3.063-11.443-4.599-1.002-.404-2.197.44-2.46,1.397-.314,1.142.391,2.055,1.397,2.46h0Z"/><path class="g" d="M38.62,160.041c-6.525,2.629-13.356,4.903-19.486,8.397-2.329,1.327-4.25,2.972-5.757,5.201-1.925,2.847-3.12,6.205-4.204,9.442-2.066,6.172-4.066,12.373-6.043,18.574-.933,2.927-1.935,5.865-2.512,8.887-.692,3.624-1.096,7.295.421,10.762,1.582,3.617,4.787,6.334,8.27,8.053,3.462,1.708,7.103,3.12,10.73,4.433,2.425.877,3.469-2.986,1.063-3.857-2.932-1.061-5.846-2.205-8.678-3.509-2.701-1.244-5.346-2.821-6.998-5.378-1.82-2.818-1.595-5.905-1.019-9.08.502-2.765,1.376-5.442,2.221-8.117,1.792-5.679,3.731-11.31,5.528-16.987,1.568-4.953,3.25-11.28,7.702-14.185,2.838-1.851,6.033-3.198,9.148-4.502,3.537-1.48,7.121-2.844,10.677-4.277,1.001-.403,1.706-1.334,1.397-2.46-.261-.95-1.452-1.803-2.46-1.397h0Z"/><path class="e" d="M67.226,169.412c-3.27-3.669-7.343-8.292-7.511-8.6l-1.509.071c-.202.372-5.641,7.008-8.764,10.735,1.306,1.808,3.029,4.832,4.118,6.428-.093,1.444-1.315,7.968-2.21,13.359l-.071.427c2.863-.021,5.799-.041,8.738-.063,2.703.02,5.403.039,8.049.057l-.143-.723c-1.122-5.671-2.273-11.944-2.411-13.258.675-1.647,2.283-4.768,3.415-6.529-.52-.58-1.097-1.226-1.702-1.905Z"/><path class="g" d="M47.712,172.625c1.48,2.077,2.699,4.323,4.125,6.435l-.273-1.009c-.013.169-.1.838-.03.336-.053.377-.111.753-.17,1.128-.17,1.073-.354,2.144-.539,3.214-.45,2.615-.912,5.228-1.346,7.846-.176,1.064.279,2.153,1.397,2.46.957.263,2.283-.325,2.46-1.397.645-3.89,1.391-7.766,1.978-11.665.091-.603.227-1.222.242-1.832.022-.934-.675-1.71-1.149-2.465-1.065-1.699-2.078-3.436-3.242-5.07-.626-.879-1.745-1.298-2.736-.718-.868.508-1.347,1.852-.718,2.736h0Z"/><path class="g" d="M69.852,190.572c-.747-3.784-1.484-7.572-2.124-11.375-.049-.289-.097-.577-.142-.867-.017-.107-.033-.214-.05-.32-.035-.218.079-.288-.021-.128-.014.023-.046.19-.051.318-.023.573.042.036.133-.164.166-.365.339-.726.515-1.086.772-1.578,1.601-3.138,2.543-4.623,1.384-2.18-2.077-4.189-3.454-2.019-1.017,1.601-1.907,3.29-2.726,5-.369.772-.968,1.714-.957,2.582.007.58.161,1.198.254,1.773.648,4.006,1.438,7.993,2.224,11.974.209,1.06,1.474,1.668,2.46,1.397,1.106-.304,1.607-1.397,1.397-2.46h0Z"/><path class="f" d="M58.207,160.883c-2.499-.6-11.849-4.579-15.019-6.201-2.215,2.372-5.362,5.72-7.371,7.997,2.016,2.222,10.139,10.147,11.517,11.249,1.205-1.138,10.607-12.553,10.873-13.045Z"/><path class="f" d="M59.716,160.812c2.47-.593,11.714-4.526,14.848-6.13,2.299,2.573,5.313,5.721,7.492,7.628-2.18,2.377-9.01,9.676-10.818,11.417-1.272-1.205-11.259-12.429-11.523-12.915Z"/><path class="g" d="M58.738,158.954c-2.442-.61-4.81-1.696-7.126-2.662-2.499-1.041-5.002-2.111-7.416-3.337-.775-.394-1.797-.359-2.424.313-2.474,2.649-4.969,5.282-7.371,7.997-.741.837-.766,1.989,0,2.828,1.911,2.095,3.97,4.065,5.998,6.045,1.798,1.756,3.566,3.618,5.52,5.205.851.691,1.984.814,2.828,0,2.145-2.067,3.968-4.568,5.865-6.857,1.147-1.385,2.29-2.774,3.422-4.171.629-.777,1.387-1.562,1.899-2.422,1.32-2.217-2.137-4.231-3.454-2.019-.048.081-.111.151-.164.229-.205.306.262-.331.11-.142-.067.083-.132.169-.199.253-.395.495-.791.989-1.191,1.481-1.127,1.389-2.263,2.769-3.405,4.146-1.848,2.228-3.624,4.66-5.713,6.673h2.828c-1.953-1.587-3.721-3.449-5.52-5.205-2.028-1.98-4.087-3.95-5.998-6.045v2.828c2.403-2.715,4.897-5.348,7.371-7.997l-2.424.313c2.638,1.34,5.379,2.488,8.107,3.63,2.4,1.005,4.857,2.14,7.391,2.772,2.498.623,3.564-3.233,1.063-3.857Z"/><path class="g" d="M60.247,162.741c2.505-.626,4.934-1.748,7.308-2.742,2.698-1.129,5.409-2.265,8.018-3.59l-2.424-.313c2.375,2.65,4.822,5.271,7.492,7.628v-2.828c-3.537,3.854-7.059,7.776-10.818,11.417h2.828c-2.151-2.066-4.077-4.413-6.06-6.638-1.22-1.368-2.436-2.74-3.641-4.121-.403-.461-.805-.923-1.201-1.39-.129-.152-.254-.308-.384-.459-.349-.401.208.315.076.097-1.334-2.197-4.795-.19-3.454,2.019.517.851,1.309,1.612,1.958,2.358,1.21,1.39,2.432,2.769,3.658,4.145,2.035,2.284,4.01,4.696,6.219,6.817.788.757,2.038.765,2.828,0,3.759-3.64,7.28-7.563,10.818-11.417.696-.758.839-2.088,0-2.828-2.67-2.357-5.117-4.978-7.492-7.628-.615-.686-1.659-.701-2.424-.313-2.386,1.212-4.859,2.269-7.328,3.298-2.289.954-4.628,2.028-7.043,2.631-2.496.623-1.439,4.482,1.063,3.857Z"/><path class="g" d="M30.883,123.192c-1.54-8.408-.396-18.552,5.355-25.249,6.424-7.482,16.321-10.182,25.895-9.183,4.57.477,9.327,1.967,12.666,5.249,1.837,1.806,4.668-1.02,2.828-2.828-7.012-6.894-18.711-7.76-27.864-5.702-5.583,1.256-10.8,4.003-14.871,8.042-3.692,3.664-6.135,8.315-7.412,13.338-1.443,5.68-1.508,11.647-.455,17.396.463,2.528,4.319,1.457,3.857-1.063h0Z"/><path class="g" d="M90.21,123.882c1.195-5.665,1.332-11.683-.251-17.291-.667-2.363-1.629-4.767-3.066-6.772-1.279-1.785-2.867-3.165-4.631-4.455-.872-.638-2.231-.147-2.736.718-.593,1.013-.157,2.097.718,2.736,7.264,5.312,7.822,15.883,6.109,24.001-.53,2.511,3.325,3.585,3.857,1.063h0Z"/><path class="g" d="M70.227,108.991c3.777.803,6.406,3.114,8.398,6.306,1.278,2.048,2.109,4.287,2.526,6.663.226,1.286.486,2.427,1.575,3.278,1.054.823,2.485.912,3.725.49,1.022-.348,1.695-1.375,1.397-2.46-.274-.996-1.433-1.746-2.46-1.397-.013.005-.537.209-.298.112-.287-.02-.322-.007-.104.039.077.005.144.031.202.079.129-.01-.069.456,0-.107.034-.278-.105-.671-.152-.942-.198-1.154-.479-2.284-.871-3.388-.775-2.179-1.852-4.217-3.246-6.063-2.443-3.237-5.606-5.611-9.628-6.466-1.056-.224-2.162.312-2.46,1.397-.273.995.336,2.235,1.397,2.46h0Z"/><path class="g" d="M60.319,104.752c-2.93-.531-5.933-.644-8.902-.463-2.85.174-5.801.579-8.078,2.448-2.152,1.767-2.938,4.428-4.08,6.854-1.157,2.458-2.74,4.838-5.205,6.122-2.284,1.19-.264,4.643,2.019,3.454,2.338-1.218,4.137-3.246,5.509-5.465,1.359-2.198,1.971-4.819,3.446-6.936,1.402-2.014,3.927-2.313,6.199-2.464,2.658-.177,5.403-.168,8.031.308,1.062.192,2.156-.29,2.46-1.397.266-.97-.328-2.267-1.397-2.46h0Z"/><path class="g" d="M67.634,102.504c-.816-2.567-2.956-4.533-5.373-5.616-2.805-1.256-5.718-1.601-8.747-1.107-1.036.169-1.705,1.509-1.397,2.46.363,1.122,1.351,1.578,2.46,1.397.079-.013.328-.051.11-.022.14-.019.282-.032.423-.044.312-.027.625-.043.938-.047.273-.003.545.002.817.017.134.007.269.017.403.029.035.003.421.043.232.02s.191.031.226.037c.162.028.324.059.486.093.256.055.511.118.764.189s.501.15.747.236c.123.043.245.09.367.135.324.118-.029-.022.152.06.46.208.906.443,1.333.713.105.066.209.135.312.205.028.019.332.232.171.115-.186-.136.19.156.225.186.091.078.18.158.268.24.172.161.337.329.494.505.077.086.151.175.224.264-.119-.145-.107-.151-.007.005.135.211.269.42.383.644.022.043.155.365.068.132-.099-.264.063.213.064.216.316.996,1.405,1.739,2.46,1.397.998-.323,1.736-1.393,1.397-2.46h0Z"/><path class="g" d="M84.009,125.54c.607-.165,1.236-.197,1.766-.083.208.045.413.1.615.166.075.025.445.171.215.07.194.085.382.189.564.299-.01-.006.498.335.292.175,1.214.939,1.627,2.316,1.549,3.926-.157,3.246-3.139,6.168-6.14,7.3-1.01.381-1.702,1.35-1.397,2.46.266.969,1.444,1.78,2.46,1.397,4.851-1.83,9.141-6.179,9.087-11.645-.026-2.661-1.142-5.129-3.303-6.71-1.924-1.408-4.482-1.832-6.771-1.211-2.481.673-1.428,4.533,1.063,3.857h0Z"/><path class="g" d="M35.117,121.771c-2.259-.69-4.854-.304-6.8,1.046-2.208,1.532-3.348,3.98-3.458,6.636-.225,5.475,4.006,9.905,8.779,11.879.999.413,2.199-.447,2.46-1.397.316-1.149-.394-2.046-1.397-2.46-2.978-1.231-5.784-4.269-5.848-7.534-.016-.825.052-1.489.409-2.297-.057.129.177-.322.208-.374-.005.009.332-.498.179-.302.13-.166.284-.323.435-.469.04-.038.47-.39.251-.228.686-.507,1.021-.604,1.852-.796.178-.041.508-.042.945-.041.386,0-.1-.06.307.032.207.047.411.099.614.161,2.467.753,3.522-3.106,1.063-3.857h0Z"/><path class="g" d="M81.223,138.889c-2.349,6.975-7.687,13.277-14.936,15.32-7.377,2.079-16.31.95-22.208-4.172-3.367-2.924-5.862-6.753-7.321-10.956-.839-2.417-4.704-1.378-3.857,1.063,2.931,8.443,9.494,15.866,18.399,18.049,8.781,2.153,18.611.776,25.477-5.371,3.865-3.46,6.655-7.973,8.304-12.87.824-2.445-3.038-3.494-3.857-1.063h0Z"/><path class="g" d="M72.802,128.94c.002.203.011,2.234-1.571,3.432-1.037.785-2.14.684-2.486.646-.267-.029-2.006-.25-2.91-1.9-.857-1.563-.672-3.878.762-5.238,1.487-1.411,3.59-1.187,4.846-.059,1.131,1.016,1.326,2.088,1.359,3.12Z"/><path class="g" d="M53.108,128.94c.002.203.011,2.234-1.571,3.432-1.037.785-2.14.684-2.486.646-.267-.029-2.006-.25-2.91-1.9-.857-1.563-.672-3.878.762-5.238,1.487-1.411,3.59-1.187,4.846-.059,1.131,1.016,1.326,2.088,1.359,3.12Z"/><path class="f" d="M19.956,192.181c-.105.218-.164.464-.163.723.03,8.381-.281,34.273-.082,46.85.029,1.854,1.525,3.34,3.379,3.344,13.072.026,58.219-.031,71.748-.007,1.888.003,3.405-1.526,3.39-3.414-.09-11.638-.534-40.633-.534-46.773,0-.903-.716-1.636-1.61-1.639-5.618-.019-21.441-.113-37.341-.229-15.9.116-31.722.21-37.341.229-.637.002-1.186.375-1.447.916Z"/><path class="g" d="M18.028,191.65c-.513,1.46-.232,3.389-.237,4.924-.006,1.855-.016,3.71-.027,5.565-.027,4.673-.059,9.346-.083,14.02-.025,4.814-.043,9.628-.036,14.442.003,2.102.011,4.204.031,6.306.021,2.258-.18,4.565,1.408,6.391,2.203,2.534,6.41,1.805,9.44,1.807,3.575.002,7.15.001,10.725,0,8.824-.002,17.648-.008,26.472-.013,7.85-.004,15.699-.009,23.549-.005,3.103.001,7.319.751,9.596-1.808,1.53-1.72,1.363-3.87,1.342-6.006-.018-1.842-.038-3.685-.06-5.527-.103-8.857-.226-17.715-.335-26.572-.041-3.342-.083-6.684-.108-10.027-.01-1.354.199-2.98-.557-4.166-1.297-2.033-3.673-1.717-5.755-1.726-11.714-.054-23.432-.266-35.145-.214-11.509.051-23.017.163-34.526.216-2.116.01-4.239-.167-5.492,1.916-1.33,2.211,2.127,4.225,3.454,2.019.044-.073-.476-.081-.101.074.069.029.325-.001.377-.001.352-.001.703-.003,1.055-.004.853-.004,1.706-.008,2.558-.012,2.223-.011,4.447-.023,6.67-.036,5.877-.034,11.755-.072,17.632-.112,12.284-.084,24.566.051,36.85.12,2.094.012,4.188.023,6.282.033.774.004,1.549.007,2.323.01.128,0,.264.011.39.001h.185c.224.022.238.005.042-.051,0-.054-.183-.281-.253-.201-.028.032.004.309,0,.351-.194,2.607.042,5.32.071,7.933.095,8.334.211,16.668.315,25.003.046,3.736.092,7.472.127,11.208.012,1.239.455,3.343-1.254,3.596-1.074.159-2.319-.014-3.407-.015-7.03-.006-14.06-.002-21.091.002-15.12.007-30.24.03-45.36.012-1.039-.001-2.744.34-3.266-.821-.291-.647-.137-1.599-.145-2.297-.011-.974-.019-1.948-.025-2.921-.027-4.366-.021-8.732-.006-13.098.028-8.425.106-16.849.134-25.274.004-1.18-.294-2.871.095-3.977.854-2.434-3.009-3.48-3.857-1.063Z"/></g></g></svg>