<svg xmlns="http://www.w3.org/2000/svg" width="364.808" height="238.764" viewBox="0 0 364.808 238.764"><defs><style>.a{fill:#fff;}.b{fill:#645d5c;}.c{fill:#b3b3b3;}.d{fill:#211715;}.e{fill:#a5b4fc;}</style></defs><path class="a" d="M309.36,126.635c-4.6,1.556-10.593,3.675-14.777,5.516a4.033,4.033,0,0,0-1.3,1.349l-3.09-6.9a51.521,51.521,0,0,0-2.756-6.616,2.157,2.157,0,0,0-2.576-1.218c-4.328,1.27-11.066.771-16.018-.922a12.4,12.4,0,0,1-6.956-6.149,26.179,26.179,0,0,1-2.247-6.226,61.557,61.557,0,0,1-1.516-9.325,9.944,9.944,0,0,0-2.347-4.163c-1.764-1.825-4.578-3.215-3.226-6.476a6.055,6.055,0,0,1,2.7-2.827c5.869-3.341,5.922-12.35,5.978-18.845A44.849,44.849,0,0,1,262.485,49.1a126.6,126.6,0,0,0,33.468,22.889c3.079,1.444,6.31,2.789,9.8,2.422a7.318,7.318,0,0,1,3.531-2.2,6.18,6.18,0,0,1,5.248.7c2.165,1.511,3.211,4.745,3.133,7.425a15.621,15.621,0,0,1-7.438,13.421c1.607,5.128,3.294,10.356,3.214,15.656-.061,4.051-.408,9.074-3.864,11.93l-1.657,1.369.183.155a18.784,18.784,0,0,0,5.113,2.489l-.92.3C311.42,125.943,310.428,126.274,309.36,126.635Z"/><path class="b" d="M335.012,30.3c-7.652-6.32-17.2-10.53-31.054-11.217a53.984,53.984,0,0,0-15.481,1.888c-10.236,2.8-18.96,10.441-23.844,19.223a40.418,40.418,0,0,0-3.233,7.864,126.753,126.753,0,0,0,34.553,23.925c3.078,1.444,6.31,2.789,9.8,2.423a7.324,7.324,0,0,1,3.532-2.2,6.18,6.18,0,0,1,5.248.7c2.165,1.511,3.211,4.745,3.133,7.425a15.621,15.621,0,0,1-7.438,13.421c1.607,5.128,3.294,10.356,3.214,15.656-.061,4.051-.408,9.074-3.864,11.93l-1.657,1.369.183.155c2.021,1.713,8.095,3.557,10.883,4.222,12.4,2.958,22.311-.788,28.742-7.964a24.445,24.445,0,0,0,6.377-17.164c-.361-8.332-2.233-14.831-2.982-24.771-.627-8.373-.14-19.585-2.342-27.289-1.591-5.566-5.029-12.745-13.769-19.593"/><path class="c" d="M95.3,151.364c4.278,11.857,5.906,20.216,11.09,30.923,2.229,4.6,6.175,5.938,11.741,6.132,7.262.154,26.81-2.848,42.638-5.607,2.532-.441,3.113.794,3.8,3.492l5.723,26.759,1.748,8.175-9.794,3.287c-4.447,1.492-13.564,4.031-16.149,4.552-15.594,3.143-21.467,6.329-37.368,7.166-7.92.417-16.057-.068-23.393-3.267a30.329,30.329,0,0,1-3.816-2c-34.671,0-79.118,0-79.118,0a374.539,374.539,0,0,1,11.759-79.943,81.491,81.491,0,0,1,9.191-23.047,90.72,90.72,0,0,1,12.224-15.793l4.794-4.471.132.041c8.089,2.494,18.144,6.094,25.282,9.684,5.124,2.568,11.706,6.175,15.39,10.225,6.867,7.545,10.2,13.756,14.125,23.694"/><path class="a" d="M168.258,203.545l-3.685-17.236c-.11-.44-.22-.84-.34-1.2l6.98-.03q2.295-.06,4.59-.15a2.352,2.352,0,0,0,1.18-.26c.25-.16,5.35-3.45,8.17-5.11l11.68,1.68c1-.6,2.07-1.19,3.39-1.91a8.188,8.188,0,0,1,4.7-1.26,5.891,5.891,0,0,1,2.91.99c1.85,1.37,7.65,4.19,10.48,4.11l8.6,1.03c-1.017,6.813-2.493,15.761-3.437,22.154l-.942,7c.969.753,1.936,1.477,2.89,2.164,1.89,1.42,2.95,5.47,1.62,7.41a4.689,4.689,0,0,1-3.63,1.85,16.182,16.182,0,0,1-5.39-1.46l-.17.42c.82,1.37.18,3.38-.37,4.18-1.88,2.76-6.18,2.05-7.35,1.37-.93-.54-1.78-1.06-2.58-1.55l-.13.22a4.256,4.256,0,0,1-.37,3.86,5.762,5.762,0,0,1-3.66,2.26,6.762,6.762,0,0,1-4.85-.67c-1.22-.71-2.43-1.43-3.6-2.22a3.532,3.532,0,0,0,.33-1.13,4.132,4.132,0,0,0-4.27-4.37,14,14,0,0,0-5.56,1.76l-.15.09-.04-.05a4.3,4.3,0,0,0,1.64-2.76,4.14,4.14,0,0,0-4.28-4.37,14,14,0,0,0-5.55,1.76l-.15-.28a.914.914,0,0,0,.14-.07,4.6,4.6,0,0,0,2.41-3.3,4.126,4.126,0,0,0-4.28-4.36,14.183,14.183,0,0,0-4.25,1.1l-.64-2.15Z"/><path class="a" d="M65.783,117.449a177.278,177.278,0,0,0-24.5-9.45l.18-.56a40.327,40.327,0,0,0,1.4-6.41l1.22.13c7.26,2.18,25.14,8.8,34.35,13.41a37.1,37.1,0,0,1,4.1,2.31,2.427,2.427,0,0,1,.88,1.29,4.087,4.087,0,0,1-.08,1.86c-.43,1.95-.86,3.2-1.26,4.81l-3.25.6A69.61,69.61,0,0,0,65.783,117.449Z"/><path class="a" d="M113.8,50.979c-.24,6.58-.61,15.7,5.18,19.36a6.079,6.079,0,0,1,2.6,2.98c1.22,3.37-1.69,4.64-3.56,6.41a10,10,0,0,0-2.57,4.11,63.232,63.232,0,0,1-1.96,9.37,26.587,26.587,0,0,1-2.57,6.2,12.572,12.572,0,0,1-7.32,5.9c-5.09,1.49-11.94,1.68-16.26.2a2.2,2.2,0,0,0-2.67,1.11,64.618,64.618,0,0,1-3.06,7.7l-3.18.25c-9.21-4.61-27.09-11.23-34.35-13.41l-1.22-.13a4.773,4.773,0,0,0,.06-.85,12.038,12.038,0,0,0-1.86-5.59l.5-.29c6.84-3.5,15.23-12.15,17.65-17.85l.47-.27a15.931,15.931,0,0,1-3.78-11.1c.04-2.72,1.25-5.94,3.51-7.37a6.235,6.235,0,0,1,5.35-.47,7.821,7.821,0,0,1,3.86,2.85l1.08.57c2.98-4.69,3.92-7.05,7.13-10.19,5.94-5.36,14.92-11.26,25.12-12.42l6.54-1.51a13.728,13.728,0,0,1,5.45,4.18c.05.53.1,1.08.12,1.63A48.947,48.947,0,0,1,113.8,50.979Z"/><path class="a" d="M326.563,131.369c-10.93,2.68-24.13,6.57-33.01,11.65l-1.53-2.49a47.887,47.887,0,0,1,.49-5.39,5.977,5.977,0,0,1,1.92-2.91,1.093,1.093,0,0,1,.15-.08c5.16-2.27,13.06-4.96,17.71-6.5l.18-.58a57.491,57.491,0,0,0,6.51,2.01,34.616,34.616,0,0,0,9.89.98l.08,2.96A12.2,12.2,0,0,0,326.563,131.369Z"/><path class="d" d="M43.441,103.474c5.751,1.732,11.4,3.848,17,6.007a173.079,173.079,0,0,1,17.743,7.65c.561.292,1.118.592,1.667.907.316.182,1.178.508,1.346.826-.177-.335-.081.012-.081.028a6.452,6.452,0,0,1-.365,1.634c-.309,1.23-.679,2.443-.994,3.671-.769,2.994,3.86,4.271,4.628,1.276.566-2.2,1.647-4.654,1.5-6.963-.132-2.046-1.474-3.342-3.123-4.331a70.457,70.457,0,0,0-7.592-3.785c-6.9-3.083-13.959-5.822-21.067-8.382-3.1-1.119-6.223-2.215-9.384-3.167-2.964-.893-4.231,3.739-1.276,4.629Z"/><path class="b" d="M89.618,7c14.183,6.254,20.19,17.035,21.192,19.436a35.215,35.215,0,0,1,3.25,14.37c-2.934-2.121-7.538-3.158-12.106-2.759-10.2,1.163-19.18,7.067-25.117,12.425-3.323,3.248-4.218,5.66-7.438,10.665a8.906,8.906,0,0,0-4.637-3.9,6.27,6.27,0,0,0-5.346.469c-2.261,1.431-3.469,4.656-3.513,7.373A15.952,15.952,0,0,0,59.446,75.9c-.147.35-.233.551-.233.551-2.478,5.841-11.241,14.793-18.174,18.1-2.25-3.864-6.018-7.588-8.4-10.553-5.434-6.78-13.129-19.809-11.489-37.107A50.984,50.984,0,0,1,31.361,21.483C44.275,4.967,57.741,2.871,65.986,2.4A51.4,51.4,0,0,1,89.032,6.744C89.229,6.828,89.424,6.912,89.618,7Z"/><path class="d" d="M101.954,35.645A46.022,46.022,0,0,0,80.7,44.3a38.012,38.012,0,0,0-7.458,6.539,85.554,85.554,0,0,0-5.608,8.6c-1.655,2.619,2.5,5.031,4.145,2.423a88.251,88.251,0,0,1,4.755-7.505,31.69,31.69,0,0,1,6.588-5.915c5.558-3.994,11.971-7.174,18.834-8a2.474,2.474,0,0,0,2.4-2.4,2.415,2.415,0,0,0-2.4-2.4Z"/><path class="d" d="M70.32,58.388a9.971,9.971,0,0,0-9.084-3.823c-3.5.487-5.819,3.178-6.983,6.354-1.981,5.406-.221,12.019,3.266,16.4a22.292,22.292,0,0,0,7.642,5.865,2.461,2.461,0,0,0,3.284-.861,2.424,2.424,0,0,0-.861-3.284c-4.709-2.33-8.4-5.908-9.149-11.252-.347-2.484-.247-5.686,1.674-7.566,2.21-2.162,5.228-.395,6.817,1.565a2.415,2.415,0,0,0,3.394,0,2.456,2.456,0,0,0,0-3.394Z"/><path class="d" d="M106.337,59.879c.619,1.941.358,6.442-3.145,6.9-4.642.071-5.024-5.356-3.524-7.943C100.9,56.717,104.636,55.766,106.337,59.879Z"/><path class="d" d="M83.686,115.533c.9-1.875,1.7-3.8,2.424-5.753.228-.621.446-1.245.659-1.871a2.863,2.863,0,0,0,.153-.455c.071-.485-.161.392-.185.317.18.567,3.377.825,3.976.9a31.372,31.372,0,0,0,5.481.216A26.649,26.649,0,0,0,106.82,106.6a16.43,16.43,0,0,0,7.255-8.049A49.127,49.127,0,0,0,117.439,86.7a17.924,17.924,0,0,1,.361-2.444,8.027,8.027,0,0,1,1.2-2.074,33.52,33.52,0,0,1,3.176-2.845c2.8-2.727,2.607-6.758-.058-9.544-1.076-1.124-2.523-1.74-3.5-2.966a9.9,9.9,0,0,1-1.622-3.317,32.165,32.165,0,0,1-.875-10c.109-4.432.637-8.766.187-13.206a2.468,2.468,0,0,0-2.4-2.4,2.417,2.417,0,0,0-2.4,2.4c.72,7.1-.816,14.166.186,21.261a16.841,16.841,0,0,0,3.529,8.656c.974,1.156,2.32,1.8,3.37,2.837a2.774,2.774,0,0,1,.886,1.616,1.049,1.049,0,0,1-.317.885,29.915,29.915,0,0,1-2.835,2.473,11.608,11.608,0,0,0-3.185,5.166c-.391,1.527-.5,3.331-.86,4.995a53.738,53.738,0,0,1-1.581,5.881c-1.069,3.172-2.736,6.351-5.735,8.075-2.71,1.557-6.3,1.876-9.376,1.964a24.522,24.522,0,0,1-5.662-.4c-2.027-.42-3.788-1.221-5.739,0-1.357.85-1.788,2.188-2.279,3.6a55.037,55.037,0,0,1-2.366,5.8,2.465,2.465,0,0,0,.861,3.284,2.422,2.422,0,0,0,3.284-.861Z"/><path class="d" d="M57.141,75.242a23.867,23.867,0,0,1-2.743,4.6q-.218.3-.442.59c.217-.282-.205.254-.246.306q-.528.657-1.08,1.294-1.1,1.27-2.279,2.469a38.916,38.916,0,0,1-10,7.722,2.4,2.4,0,1,0,2.423,4.144A44.351,44.351,0,0,0,53.745,87.9c2.919-2.971,5.871-6.37,7.541-10.231a2.48,2.48,0,0,0-.861-3.284,2.417,2.417,0,0,0-3.284.861Z"/><path class="d" d="M114.61,85.451c-.666-.034-1.329-.09-1.989-.175l.638.086a15.681,15.681,0,0,1-3.959-1.025l.573.242a11.345,11.345,0,0,1-1.534-.8,2.422,2.422,0,0,0-3.283.861,2.449,2.449,0,0,0,.861,3.284,17.945,17.945,0,0,0,8.693,2.328,2.416,2.416,0,0,0,2.4-2.4,2.453,2.453,0,0,0-2.4-2.4Z"/><path class="d" d="M115.641,39.018a15.348,15.348,0,0,0-5.938-4.553,1.774,1.774,0,0,0-.892-.285,1.823,1.823,0,0,0-.957.043,2.445,2.445,0,0,0-1.434,1.1,2.418,2.418,0,0,0-.242,1.849,2.306,2.306,0,0,0,1.1,1.434,14.038,14.038,0,0,1,3.06,1.8l-.486-.375a14.169,14.169,0,0,1,2.391,2.38,2.4,2.4,0,0,0,1.7.7,2.443,2.443,0,0,0,1.7-.7,2.414,2.414,0,0,0,.7-1.7l-.085-.638a2.407,2.407,0,0,0-.617-1.059Z"/><path class="d" d="M116.464,42.588A38.822,38.822,0,0,0,112.3,24.021a40.568,40.568,0,0,0-9.076-11.143C91.775,2.8,75.8-1.6,60.778.522c-13.827,1.953-25.6,10.836-33.3,22.251A51.854,51.854,0,0,0,22.06,70.359a58.118,58.118,0,0,0,8.986,15.462c2.243,2.771,4.8,5.3,6.83,8.235a16.072,16.072,0,0,1,2.314,4.368A6.859,6.859,0,0,1,40.306,102a41.74,41.74,0,0,1-1.155,4.793c-.912,2.959,3.72,4.224,4.629,1.276.878-2.849,1.834-6.169,1.412-9.165-.514-3.648-2.7-6.792-4.927-9.621-2.032-2.584-4.342-4.934-6.357-7.531.223.289-.233-.309-.29-.385q-.267-.356-.527-.716-.549-.759-1.072-1.536-1.185-1.76-2.233-3.6a47.27,47.27,0,0,1-2.4-42.683C32.973,20.408,43.912,9.522,57.284,6.088q1.78-.459,3.6-.758.411-.069.824-.13c.129-.019.686-.093.281-.041q.825-.1,1.653-.183a49.134,49.134,0,0,1,10.137.048,49.8,49.8,0,0,1,21.972,8.1,41.978,41.978,0,0,1,6.983,5.951,33.367,33.367,0,0,1,4.068,5.1,27.171,27.171,0,0,1,1.876,3.335,36.675,36.675,0,0,1,2.712,9.284,41.752,41.752,0,0,1,.275,5.8c-.029,3.09,4.771,3.092,4.8,0Z"/><path class="d" d="M33.88,110.494A85.1,85.1,0,0,0,12.455,148.08,362.61,362.61,0,0,0,2.137,202.911C1.089,212.236.405,221.6,0,230.974c-.133,3.088,4.668,3.082,4.8,0a382.647,382.647,0,0,1,5.258-49.761q2.419-13.794,5.863-27.379c1.82-7.217,3.959-14.275,7.429-20.885a80.941,80.941,0,0,1,13.921-19.061c2.167-2.206-1.225-5.6-3.394-3.394Z"/><path class="e" d="M359.461,225.567H266.888l-1.044-.262c-8.407-1.718-24.725-4.684-35-7.581l-8.593-2.231,1.229-9.14c1.119-7.574,2.984-18.735,3.949-25.7a2.662,2.662,0,0,1,3.262-2.209c6.981,1.588,37.891,7.884,43.948,8.6l1.678.37c.052-.489.118-.983.195-1.485.939-8.2,4.018-17.621,6.293-23.9a89.982,89.982,0,0,1,8.141-17.4c8.747-5.872,23.565-10.3,35.623-13.262a12.805,12.805,0,0,1,12.255,3.525c2.826,2.919,5.055,6.249,8.219,12.228,4,7.55,7.049,18.565,9.939,31.309,3.346,19.873,4.149,30.785,5.426,47.137Z"/><path class="d" d="M283.925,224.51a75.6,75.6,0,0,1-2.889-11.972q-.695-3.68-1.278-7.38-.273-1.728-.523-3.459c-.173-1.2-.225-1.578-.362-2.681-1.434-11.531,1.545-22.844,5.3-33.679a102.045,102.045,0,0,1,8.844-19.5l-.861.861c7.747-5.151,16.957-8.047,25.828-10.581q3.548-1.013,7.124-1.916a14.9,14.9,0,0,1,6.133-.695c4.044.646,6.779,3.669,9.016,6.865,5.2,7.433,8.407,15.831,10.86,24.5a148.683,148.683,0,0,1,3.874,16.129c.817,4.955,1.571,9.921,2.208,14.9,1.261,9.853,2.035,19.753,2.808,29.654a2.461,2.461,0,0,0,2.4,2.4,2.42,2.42,0,0,0,2.4-2.4c-.593-7.6-1.17-15.207-2-22.789q-.657-6.033-1.507-12.043c-.648-4.617-1.183-9.339-2.224-13.884-1.946-8.5-4.031-17.079-7.326-25.172a77.245,77.245,0,0,0-5.417-10.729,35.914,35.914,0,0,0-6.519-8.424,15.232,15.232,0,0,0-11.538-3.857c-4.165.441-8.367,1.893-12.379,3.056-8,2.321-16.124,5.009-23.4,9.132q-1.123.638-2.212,1.336a7.466,7.466,0,0,0-2.4,2.889q-1.689,2.919-3.151,5.963A117.909,117.909,0,0,0,280.2,162.2a111.576,111.576,0,0,0-6.3,25.361c-.64,5.836.11,11.5.984,17.257a167.087,167.087,0,0,0,3.5,17.968c.27,1.013.563,2.021.923,3a2.466,2.466,0,0,0,2.953,1.677,2.421,2.421,0,0,0,1.676-2.953Z"/><path class="d" d="M311.658,123.339c-4.9,1.622-9.8,3.3-14.6,5.2a35.877,35.877,0,0,0-3.688,1.538,6.829,6.829,0,0,0-2.426,2.634,8.464,8.464,0,0,0-.95,3.422,37.035,37.035,0,0,0-.369,4.4c-.03,3.09,4.77,3.092,4.8,0a33.585,33.585,0,0,1,.313-3.968c.03-.233.061-.466.091-.7s.158-.724.024-.233c.135-.5-.273.4.058-.174.126-.219.244-.436.379-.649.177-.282.039-.091.155-.233.066-.08.551-.514.3-.348-.266.177.243-.09.3-.115-.095.044.729-.312.473-.2,1.088-.459,2.188-.891,3.29-1.315,4.33-1.665,8.722-3.169,13.125-4.627a2.454,2.454,0,0,0,1.677-2.952,2.425,2.425,0,0,0-2.953-1.676Z"/><path class="d" d="M311.454,173.232c2.592,13.261,5.13,26.532,7.51,39.833q1.164,6.505,2.307,13.016a2.42,2.42,0,0,0,2.952,1.677,2.455,2.455,0,0,0,1.676-2.953c-2.342-13.308-4.74-26.6-7.3-39.873q-1.249-6.49-2.521-12.977a2.425,2.425,0,0,0-2.953-1.676,2.45,2.45,0,0,0-1.676,2.953Z"/><path class="d" d="M225.789,206.991c1-6.736,2.113-13.454,3.14-20.186q.348-2.282.677-4.566c.1-.734-.055-1.467.67-1.426a30.047,30.047,0,0,1,4.261.924q14.143,3,28.352,5.7c3.9.739,7.8,1.534,11.745,2.009a2.413,2.413,0,0,0,2.4-2.4,2.459,2.459,0,0,0-2.4-2.4c-.667-.08.484.077-.193-.024-.323-.049-.646-.1-.969-.147-.782-.123-1.562-.255-2.341-.391-2.065-.358-4.125-.74-6.184-1.128q-7.724-1.457-15.428-3.025-6.96-1.4-13.909-2.868c-1.429-.3-2.852-.659-4.286-.932a5.254,5.254,0,0,0-5.025,1.525c-1.2,1.305-1.271,2.976-1.514,4.635-1.144,7.817-2.467,15.607-3.625,23.422a2.48,2.48,0,0,0,1.677,2.953,2.418,2.418,0,0,0,2.952-1.677Z"/><path class="d" d="M230.2,220.039c11.5,3.222,23.316,5.2,35.005,7.58a2.459,2.459,0,0,0,2.952-1.676,2.424,2.424,0,0,0-1.676-2.953c-11.689-2.383-23.507-4.358-35.005-7.58-2.98-.835-4.251,3.8-1.276,4.629Z"/><path class="d" d="M268.185,72.942c-.7,1.885-.641,6.332,2.791,6.941,4.573.277,5.192-5.054,3.83-7.672C273.691,70.068,270.047,68.964,268.185,72.942Z"/><path class="d" d="M258.776,102.542a17.708,17.708,0,0,0,8.676-1.964,2.4,2.4,0,0,0-2.423-4.145,11.43,11.43,0,0,1-1.11.548l.573-.242a14.085,14.085,0,0,1-3.439.9l.638-.086a23.1,23.1,0,0,1-2.915.188,2.4,2.4,0,0,0,0,4.8Z"/><path class="d" d="M292.508,125.963a49.806,49.806,0,0,0-2.108-5.317,10.643,10.643,0,0,0-1.645-2.948c-1.424-1.507-3.3-1.529-5.165-1.076a19.346,19.346,0,0,1-4.691.457,26.341,26.341,0,0,1-9.969-1.753,11.416,11.416,0,0,1-5.755-6.508,44.941,44.941,0,0,1-2.538-11.436,11.431,11.431,0,0,0-1.655-5.17,18.555,18.555,0,0,0-3.282-3.555,4.344,4.344,0,0,1-1.017-1.176,1.156,1.156,0,0,1,.046-.969c.486-1.3,1.969-1.835,2.994-2.628a14.138,14.138,0,0,0,4.7-7.541c2.063-7.348.4-14.963,1.5-22.4a2.478,2.478,0,0,0-1.677-2.952,2.418,2.418,0,0,0-2.952,1.676,51.981,51.981,0,0,0-.561,5.881c-.064,1.969.112,3.927.094,5.893a49.211,49.211,0,0,1-.588,8.713c-.477,2.512-1.292,5.206-3.315,6.862-1.245,1.02-2.679,1.694-3.7,3.052a6.565,6.565,0,0,0-1.274,5.348c.753,3.129,4.039,4.338,5.377,7.086.675,1.386.635,3.047.852,4.586a60.034,60.034,0,0,0,1.148,6.02c.965,3.9,2.467,7.769,5.361,10.656a16.953,16.953,0,0,0,8.71,4.271,32.516,32.516,0,0,0,12.461.426,9.98,9.98,0,0,0,1.328-.292c.619-.2.164.059.07-.208-.108-.307.135.294.187.4.109.216.213.435.318.654a42.058,42.058,0,0,1,2.117,5.225c.947,2.928,5.583,1.675,4.629-1.276Z"/><path class="d" d="M261.751,59.15a42.907,42.907,0,0,1,5.705-19.036,39.143,39.143,0,0,1,12.92-13c10.888-6.666,25.017-6.958,37.021-3.482A44.654,44.654,0,0,1,333.315,32a2.47,2.47,0,0,0,3.394,0,2.419,2.419,0,0,0,0-3.394,50.586,50.586,0,0,0-15.771-8.884,56.472,56.472,0,0,0-21.6-2.979A47.9,47.9,0,0,0,279.823,21.9,44.072,44.072,0,0,0,264.541,35.79c-4.689,6.829-7,15.158-7.59,23.36a2.421,2.421,0,0,0,2.4,2.4,2.446,2.446,0,0,0,2.4-2.4Z"/><path class="d" d="M333.315,32c6.514,5.154,11.6,11.789,13.508,19.908,2.153,9.157,1.206,18.809,2.151,28.115.49,4.827,1.335,9.6,2.014,14.4.581,4.114,1.188,8.481.308,12.591a23.9,23.9,0,0,1-16,17.468,28.681,28.681,0,0,1-14.381.571,51.243,51.243,0,0,1-6.2-1.718c-.973-.33-1.948-.675-2.886-1.1-.406-.182-.807-.377-1.2-.59-.194-.106-.384-.218-.574-.331-.088-.053-.635-.461-.256-.155a2.472,2.472,0,0,0-3.394,0,2.417,2.417,0,0,0,0,3.394c3.077,2.487,7.344,3.65,11.116,4.632a36.806,36.806,0,0,0,14.86.893,28.95,28.95,0,0,0,21.5-15.891,27.971,27.971,0,0,0,2.506-14.252c-.357-4.882-1.239-9.7-1.944-14.541a137.555,137.555,0,0,1-1.257-15.44,141.543,141.543,0,0,0-1.051-15.633c-1.5-10.418-7.229-19.236-15.426-25.721a2.475,2.475,0,0,0-3.394,0,2.416,2.416,0,0,0,0,3.394Z"/><path class="d" d="M307.048,76.534c1.626-1.83,4.769-3.4,6.741-1.085,1.676,1.964,1.691,4.929,1.233,7.329-1.013,5.309-4.712,8.659-9.607,10.809a2.416,2.416,0,0,0-.861,3.284,2.46,2.46,0,0,0,3.283.861c5.132-2.255,9.39-6.057,11.231-11.456,1.873-5.495,1.417-13.81-4.887-16.229-3.785-1.453-7.952.2-10.528,3.093a2.457,2.457,0,0,0,0,3.394,2.424,2.424,0,0,0,3.395,0Z"/><path class="d" d="M261.43,51.407a131.128,131.128,0,0,0,19.5,15.082q5.181,3.273,10.662,6.035c3.856,1.942,7.773,3.92,12.132,4.313a2.419,2.419,0,0,0,2.4-2.4,2.45,2.45,0,0,0-2.4-2.4c-3.832-.346-7.524-2.52-10.879-4.254s-6.662-3.635-9.862-5.673a124.487,124.487,0,0,1-18.16-14.1c-2.255-2.108-5.657,1.279-3.394,3.394Z"/><path class="d" d="M308.075,94.912c1.515,4.829,3.054,9.71,2.96,14.824-.064,3.508-.32,7.454-3.155,9.9-2.341,2.023,1.066,5.406,3.394,3.394,3.625-3.131,4.406-8.086,4.545-12.624.177-5.793-1.4-11.3-3.115-16.773-.922-2.938-5.557-1.684-4.629,1.276Z"/><path class="a" d="M307.962,96.751a4.17,4.17,0,0,0-4.657,3.761c-.133,2.417,1.628,4.182,4.213,4.324,2.685.148,4.53-1.436,4.662-3.837A4.167,4.167,0,0,0,307.962,96.751Z"/><path class="d" d="M307.962,94.351a7.144,7.144,0,0,0-3.979.985,6.607,6.607,0,0,0-2.7,3.264,6.3,6.3,0,0,0,1.812,6.981,7.675,7.675,0,0,0,8.022.924,6.367,6.367,0,0,0,1.433-10.32,7.475,7.475,0,0,0-4.59-1.834,2.414,2.414,0,0,0-2.4,2.4,2.457,2.457,0,0,0,2.4,2.4c.2.013.6.127-.11-.031.083.018.17.028.254.045a5.019,5.019,0,0,1,.6.164c.206.071.472.276-.125-.063.068.039.143.069.212.1.207.109.387.248.585.37-.644-.4-.153-.108.018.07.063.065.119.142.184.2.209.2-.362-.534-.143-.181.1.155.186.309.275.468.2.363-.168-.509-.091-.226.034.121.084.238.117.36.019.07.032.142.051.212.114.425-.042-.648-.022-.2a5.41,5.41,0,0,1,.01.555c0,.076-.02.159-.018.234-.016-.666.067-.436.016-.188-.041.2-.117.386-.164.581-.068.285.289-.594.1-.229-.041.078-.078.157-.121.234-.059.1-.425.615-.131.231s-.067.055-.158.141c-.075.072-.16.134-.234.206.472-.461.341-.254.146-.129-.151.1-.321.162-.469.258.53-.341.406-.16.164-.076-.071.024-.142.047-.214.068-.186.055-.384.073-.567.129.632-.194.411-.047.156-.029-.125.01-.251.014-.377.016-.216,0-.429-.016-.645-.029-.4-.025.264.036.265.036a1.141,1.141,0,0,1-.359-.072c-.193-.046-.377-.111-.566-.17-.366-.115.269.111.255.111-.1.006-.312-.155-.4-.2-.064-.037-.126-.076-.188-.116-.2-.131-.318-.35.135.118-.123-.128-.268-.235-.39-.366-.047-.05-.09-.113-.14-.16.448.418.27.384.153.189-.1-.165-.185-.347-.289-.508.339.526.165.419.082.173-.023-.069-.045-.139-.064-.209-.029-.107-.049-.216-.074-.323-.09-.376.054.32.037.3-.078-.08-.025-.468-.021-.584s.021-.229.023-.342c-.012.687-.066.44-.011.2.021-.088.045-.176.072-.263.075-.243.291-.47-.069.119.112-.184.205-.38.319-.565.1-.158.261-.217-.181.225.089-.089.165-.194.255-.284.064-.066.134-.126.2-.19.3-.3-.472.318-.137.1.192-.126.386-.238.586-.348.381-.21-.487.177-.2.079.132-.044.262-.093.4-.131.078-.021.157-.041.236-.059.628-.141-.449.011-.019-.012.264-.014.525-.026.79-.014a2.418,2.418,0,0,0,2.4-2.4A2.451,2.451,0,0,0,307.962,94.351Z"/><path class="d" d="M218.316,180.768c-2.584,0-6.339-1.845-8.781-3.444a9.051,9.051,0,0,0-6.58-1.546c-2.412.394-4.609,1.8-6.694,3.011-3.687,2.138-8.092,4.806-9.746,8.926a5.9,5.9,0,0,0,.913,6.345c1.492,1.545,3.921,1.9,5.969,1.782a21.122,21.122,0,0,0,5.241-1.19,35.011,35.011,0,0,0,5.65-2.255c2.73-1.447.308-5.591-2.423-4.145a31.029,31.029,0,0,1-7.66,2.657c-.256.056-.512.111-.771.151.574-.088-.115-.012-.359-.006a4.146,4.146,0,0,1-2-.232c-.763-.447.106-1.93.588-2.582a15.852,15.852,0,0,1,3.812-3.269c1.34-.938,2.74-1.781,4.166-2.581,1.605-.9,3.415-2.2,5.351-1.907,1.261.188,2.243,1.1,3.332,1.7,2.945,1.632,6.549,3.386,9.993,3.381,3.088-.005,3.093-4.805,0-4.8Z"/><path class="d" d="M39.865,110.075a159.787,159.787,0,0,1,26.907,10.566c4.109,2.147,8.333,4.474,11.7,7.7a51.922,51.922,0,0,1,7.967,10.118A84.236,84.236,0,0,1,92.985,152a2.474,2.474,0,0,0,2.953,1.676,2.417,2.417,0,0,0,1.676-2.952A97.752,97.752,0,0,0,91.5,137.562a67.1,67.1,0,0,0-8.351-11.28c-3.289-3.635-7.578-6.3-11.84-8.651a122.169,122.169,0,0,0-13.346-6.265c-5.516-2.221-11.145-4.163-16.825-5.92-2.958-.915-4.222,3.717-1.276,4.629Z"/><path class="d" d="M92.985,152c2.021,5.622,3.706,11.351,5.575,17.024.881,2.674,1.821,5.33,2.875,7.941a43.09,43.09,0,0,0,3.709,7.978c5.251,7.786,16.215,5.983,24.214,5.048,5.438-.636,10.859-1.422,16.269-2.26q4.413-.684,8.816-1.419,2.069-.345,4.136-.7l2.027-.349c-.144.025,1.007-.146.781-.131a2.779,2.779,0,0,1,.408-.006c.187.008.172,0-.044-.01.02-.027-.18-.011-.16-.116.029-.149.125.574.025.03.077.42.225.447.372.929.117.384.218.772.307,1.163.153.666.286,1.338.429,2.006l1.8,8.411,3.455,16.159c.646,3.019,5.274,1.742,4.629-1.276l-2.939-13.744-1.975-9.237c-.339-1.583-.6-3.208-1.077-4.758-.692-2.269-2.022-4.163-4.571-4.34a16,16,0,0,0-3.725.466q-2.159.372-4.32.734c-5.794.97-11.6,1.891-17.415,2.71-4.682.659-9.383,1.274-14.1,1.609-3.613.257-7.864.531-11.042-1.344-2.136-1.26-3.1-3.627-4.116-5.877-1.324-2.942-2.464-5.963-3.507-9.015-2.146-6.277-3.961-12.659-6.2-18.9a2.463,2.463,0,0,0-2.953-1.677A2.422,2.422,0,0,0,92.985,152Z"/><path class="d" d="M41.66,174.435a221.127,221.127,0,0,0,15.262,31c2.826,4.642,5.909,9.144,9.149,13.508a61.2,61.2,0,0,0,9.912,10.967c8.826,7.281,20,9.208,31.175,8.8A104.959,104.959,0,0,0,122.774,237c4.277-.806,8.48-1.936,12.695-3.01,4.753-1.21,9.58-2.108,14.325-3.342,4.394-1.143,8.782-2.376,13.091-3.813,2.915-.972,1.665-5.61-1.276-4.628-3.739,1.247-7.541,2.321-11.346,3.349-3.887,1.05-7.834,1.8-11.749,2.735-8.67,2.071-17.156,4.55-26.08,5.3-10.3.861-21.458.706-30.407-5.136a44.685,44.685,0,0,1-10.242-9.883c-3.057-3.849-5.865-7.952-8.534-12.078a204.293,204.293,0,0,1-16.963-33.337,2.477,2.477,0,0,0-2.952-1.676,2.414,2.414,0,0,0-1.676,2.952Z"/><path class="d" d="M171.211,187.48c1.423-.035,2.845-.078,4.267-.14a5.769,5.769,0,0,0,2.857-.691c.907-.547,1.788-1.143,2.683-1.709,1.35-.855,2.7-1.706,4.067-2.538.587-.359,1.175-.716,1.771-1.059a4.59,4.59,0,0,1,1.634-.71,2.414,2.414,0,0,0,1.677-2.952,2.465,2.465,0,0,0-2.953-1.676,11.972,11.972,0,0,0-4.1,1.979c-1.363.825-2.712,1.671-4.059,2.522q-1.477.933-2.948,1.876c-.039.025-.282.14-.3.189-.007.024-.292.126.091-.038.312-.134-.292,0-.421.007-1.422.061-2.844.105-4.267.14a2.4,2.4,0,0,0,0,4.8Z"/><path class="d" d="M205.253,199.834c2.652,3.046,5.268,6.1,8.2,8.887a104.362,104.362,0,0,0,9.374,7.859,4.712,4.712,0,0,1,2.216,2.772,4.32,4.32,0,0,1,.181,1.728.911.911,0,0,1-.449.777c-1.144.856-2.42.423-3.7.054a17.2,17.2,0,0,1-4.58-2.181A35.667,35.667,0,0,1,211.829,216a25.748,25.748,0,0,1-4.359-4.5c-1.682-2.577-5.84-.174-4.144,2.422a28.29,28.29,0,0,0,4.666,5.065,50.455,50.455,0,0,0,5.1,4.225,23.586,23.586,0,0,0,5.77,3.033c2.008.713,4.569,1.366,6.641.612a6.618,6.618,0,0,0,4.256-4.132,8.78,8.78,0,0,0-.4-5.565,10.108,10.108,0,0,0-3.93-4.589c-1.861-1.384-3.661-2.85-5.413-4.369a116.372,116.372,0,0,1-11.363-11.755c-2.032-2.335-5.415,1.072-3.394,3.394Z"/><path class="d" d="M196.388,222.871c2.078,1.615,4.18,3.194,6.369,4.657,1.3.866,2.614,1.7,3.946,2.507a15.824,15.824,0,0,0,3.613,1.892,9.087,9.087,0,0,0,7.263-.827,6.729,6.729,0,0,0,2.345-8.572,2.4,2.4,0,1,0-4.145,2.423c-.117-.223.092.4.058.118,0-.02-.044.8.007.474a4.354,4.354,0,0,1-.206.768c.127-.352-.1.2-.128.246a1.471,1.471,0,0,1-.451.464c-.023.015-.664.344-.257.173a4.588,4.588,0,0,1-.66.206c-.1.026-.754.122-.263.069-.223.024-.448.035-.672.038s-.434,0-.651-.019c-.069,0-.644-.079-.294-.024s-.271-.063-.337-.078c-.164-.039-.324-.095-.487-.134-.455-.109.056.037.056.039-.017-.109-.524-.3-.649-.372-2.156-1.272-4.287-2.591-6.355-4q-1.3-.883-2.561-1.815-.559-.412-1.114-.833c-.419-.317-.822-.628-1.033-.792a2.481,2.481,0,0,0-3.394,0,2.416,2.416,0,0,0,0,3.394Z"/><path class="d" d="M189.4,229.912a38.929,38.929,0,0,0,5.914,4.364c2.086,1.284,4.117,2.427,6.651,2.378a9.089,9.089,0,0,0,6.292-2.533,6.656,6.656,0,0,0,1.486-6.8,2.456,2.456,0,0,0-2.952-1.676,2.422,2.422,0,0,0-1.676,2.952c.057.169.11.338.153.512.025.105.062.571.039.146.009.157.009.314.013.471.01.415.041-.037-.021.2-.017.064-.184.531-.05.242a2.537,2.537,0,0,1-.265.442c.159-.214-.156.152-.21.206-.03.03-.358.322-.22.214.169-.132-.3.189-.35.217s-.575.291-.354.193c.184-.081-.231.08-.271.093q-.286.1-.581.172a5.446,5.446,0,0,1-1.905.111,8.346,8.346,0,0,1-.963-.277c.221.087-.093-.047-.145-.075-.205-.113-.407-.23-.609-.349-.8-.472-1.6-.95-2.387-1.45a29.2,29.2,0,0,1-4.195-3.147,2.451,2.451,0,0,0-3.394,0,2.426,2.426,0,0,0,0,3.4Z"/><path class="a" d="M169.476,215.959c-3,1.994-2.616,8.346,1.733,7.931a14.25,14.25,0,0,0,5.847-2.118,4.576,4.576,0,0,0,2.4-3.3,4.126,4.126,0,0,0-4.272-4.366,14.068,14.068,0,0,0-5.557,1.755C169.577,215.893,169.526,215.925,169.476,215.959Z"/><path class="a" d="M176.906,222.214c-3,1.994-2.616,8.347,1.733,7.932a14.233,14.233,0,0,0,5.846-2.119,4.573,4.573,0,0,0,2.4-3.3,4.126,4.126,0,0,0-4.272-4.366,14.068,14.068,0,0,0-5.557,1.755Q176.981,222.165,176.906,222.214Z"/><path class="a" d="M185.29,227.542c-3,1.994-2.615,8.347,1.733,7.932a14.237,14.237,0,0,0,5.847-2.119,4.571,4.571,0,0,0,2.4-3.3A4.126,4.126,0,0,0,191,225.691a14.058,14.058,0,0,0-5.556,1.755C185.391,227.477,185.34,227.509,185.29,227.542Z"/><path class="d" d="M168.265,213.886a7.366,7.366,0,0,0-3.129,6.427c.129,2.575,1.551,5.161,4.212,5.815a8.926,8.926,0,0,0,4.929-.43,17.606,17.606,0,0,0,5.146-2.678,6.6,6.6,0,0,0,2.435-4.547,6.356,6.356,0,0,0-1.926-4.879,6.323,6.323,0,0,0-5.907-1.744,14.938,14.938,0,0,0-5.76,2.036,2.4,2.4,0,0,0,2.422,4.145,9.76,9.76,0,0,1,.933-.5,3.075,3.075,0,0,1,.485-.223c-.588.162-.033.017.088-.029a14.105,14.105,0,0,1,2.059-.612q.261-.057.524-.1c.039-.006.615-.079.2-.036s.167-.013.205-.016c.139-.01.278,0,.417-.011.494-.025-.569-.143-.091-.023.133.034.266.06.4.1l.13.043q.355.135-.193-.086c.067.083.273.141.363.2a3.019,3.019,0,0,0,.343.23l-.27-.2c.071.06.139.121.206.185.1.1.189.2.285.3.339.356-.282-.473-.042-.045a4.621,4.621,0,0,0,.333.6l-.138-.319c.032.087.06.174.086.262s.048.177.067.266q.071.384-.022-.23a3.741,3.741,0,0,0,0,.694c-.011-.658.066-.42,0-.167a2.712,2.712,0,0,0-.114.359l.143-.334c-.037.081-.076.16-.117.238-.065.122-.143.234-.211.353-.186.331.069-.112.125-.141-.133.068-.283.329-.394.438a2.832,2.832,0,0,1-.34.309l.237-.182c-.086.064-.174.124-.264.183-.242.157-.5.29-.755.426-.318.17-.638.338-.961.5-.162.081-.324.161-.488.238-.113.053-.83.421-.249.123a7.724,7.724,0,0,1-1.867.594,2.672,2.672,0,0,1-.523.095c.652,0,.066-.024-.072-.014-.216.015-.427.015-.643.012-.422-.007.643.145.245.037-.092-.024-.186-.038-.277-.063-.051-.014-.228-.043-.261-.086s.618.323.327.136c-.139-.09-.3-.2-.445-.272.583.3.4.34.224.155-.078-.083-.156-.168-.235-.249-.144-.146-.038-.274.217.282-.034-.074-.1-.146-.143-.217s-.085-.153-.129-.229c-.119-.207-.083-.431.095.251-.091-.35-.189-.708-.283-1.057.194.719.054.5.044.264,0-.126-.015-.252-.016-.379,0-.192.019-.382.026-.573.014-.414-.124.661-.037.256.027-.126.045-.253.074-.378a5.568,5.568,0,0,1,.16-.554c.03-.089.077-.179.1-.269-.187.717-.164.374-.043.142.088-.168.191-.324.291-.484.153-.243.286-.153-.15.187a3.128,3.128,0,0,0,.25-.275c.065-.066.139-.124.2-.19.261-.27-.568.4-.117.094a2.4,2.4,0,0,0-2.422-4.145Z"/><path class="d" d="M175.694,220.142a7.365,7.365,0,0,0-3.128,6.426c.129,2.576,1.551,5.162,4.212,5.816a8.926,8.926,0,0,0,4.929-.431,17.592,17.592,0,0,0,5.146-2.677,6.6,6.6,0,0,0,2.435-4.547,6.358,6.358,0,0,0-1.926-4.879,6.324,6.324,0,0,0-5.908-1.744,14.95,14.95,0,0,0-5.76,2.036,2.4,2.4,0,1,0,2.423,4.145,9.542,9.542,0,0,1,.933-.5,3.07,3.07,0,0,1,.484-.224c-.587.163-.032.017.089-.029a14.193,14.193,0,0,1,2.059-.612q.261-.056.524-.1c.039-.007.615-.08.205-.036s.167-.014.205-.016c.139-.01.278,0,.417-.011.494-.025-.57-.143-.091-.023.133.033.266.059.4.1l.13.043q.354.135-.193-.085c.067.082.272.141.363.195a2.822,2.822,0,0,0,.343.231l-.27-.2c.071.059.139.121.205.185.1.1.19.2.286.3.339.356-.282-.473-.042-.045a4.621,4.621,0,0,0,.333.6l-.138-.319c.031.086.06.173.086.261s.048.177.067.267q.07.384-.022-.23a3.741,3.741,0,0,0,0,.694c-.011-.658.066-.42,0-.167a2.7,2.7,0,0,0-.114.358l.143-.333c-.037.08-.076.16-.118.238-.064.121-.142.234-.21.353-.186.331.069-.113.125-.141-.133.068-.283.328-.394.438a2.749,2.749,0,0,1-.341.308l.238-.181c-.086.063-.174.124-.264.182-.242.158-.5.29-.755.426-.319.17-.638.339-.961.5-.162.081-.324.16-.488.237-.113.054-.83.421-.25.123a7.675,7.675,0,0,1-1.866.595,2.7,2.7,0,0,1-.524.095c.653,0,.067-.024-.071-.014-.216.015-.427.015-.643.011-.422-.007.642.146.244.038-.091-.025-.185-.038-.276-.063-.052-.015-.229-.044-.262-.086s.619.323.328.135c-.139-.089-.3-.2-.445-.271.583.3.4.339.224.155-.078-.083-.156-.168-.235-.249-.144-.147-.038-.275.217.282a2.33,2.33,0,0,0-.144-.217c-.045-.075-.084-.153-.128-.229-.119-.208-.083-.432.095.25-.092-.349-.189-.707-.283-1.057.194.72.053.506.044.265,0-.127-.015-.252-.016-.379,0-.192.019-.382.025-.574.015-.414-.123.662-.036.257.026-.126.045-.253.074-.379q.066-.28.159-.554c.031-.088.078-.178.1-.268-.186.717-.163.374-.042.142.088-.168.19-.325.291-.485.153-.242.286-.152-.15.188a3.132,3.132,0,0,0,.249-.276c.066-.065.14-.123.2-.189.261-.27-.568.4-.117.094a2.4,2.4,0,1,0-2.423-4.145Z"/><path class="d" d="M184.079,225.47a7.366,7.366,0,0,0-3.129,6.426c.129,2.576,1.551,5.162,4.212,5.816a8.935,8.935,0,0,0,4.929-.43,17.606,17.606,0,0,0,5.146-2.678,6.6,6.6,0,0,0,2.435-4.547,6.355,6.355,0,0,0-1.926-4.879,6.323,6.323,0,0,0-5.907-1.744,14.944,14.944,0,0,0-5.76,2.036,2.4,2.4,0,0,0,2.422,4.145,9.657,9.657,0,0,1,.934-.5,3.07,3.07,0,0,1,.484-.224c-.588.163-.033.017.088-.029a14.23,14.23,0,0,1,2.059-.612q.261-.055.524-.1c.039-.007.615-.08.206-.036s.166-.014.2-.016c.14-.01.278,0,.418-.011.493-.025-.57-.143-.092-.023.133.033.267.059.4.1l.13.044q.355.133-.193-.086c.068.082.273.141.363.195a2.9,2.9,0,0,0,.343.231l-.269-.2c.07.059.138.121.2.185.1.1.189.2.285.3.339.356-.282-.473-.041-.045a4.616,4.616,0,0,0,.332.6l-.138-.319c.032.086.06.173.086.261s.048.177.067.267q.07.384-.022-.23a3.741,3.741,0,0,0,0,.694c-.011-.658.066-.42,0-.167a2.666,2.666,0,0,0-.114.359l.143-.334c-.036.08-.076.16-.117.238-.065.121-.143.234-.211.353-.186.331.069-.113.126-.141-.134.068-.284.328-.395.438a2.744,2.744,0,0,1-.34.308l.238-.181q-.13.094-.264.183c-.243.157-.5.289-.756.426-.318.17-.638.338-.961.5q-.243.121-.487.237c-.114.054-.831.421-.25.123a7.689,7.689,0,0,1-1.866.595,2.7,2.7,0,0,1-.524.095c.653,0,.066-.024-.072-.014-.215.015-.427.015-.643.011-.422-.006.643.146.245.038-.091-.025-.186-.038-.277-.063-.051-.014-.228-.044-.261-.086s.619.323.327.136c-.139-.09-.3-.2-.444-.272.582.3.4.339.223.155-.077-.083-.156-.168-.235-.249-.143-.147-.038-.275.217.282a2.319,2.319,0,0,0-.143-.217c-.046-.075-.085-.153-.128-.229-.12-.208-.084-.432.094.251-.091-.35-.189-.708-.283-1.058.194.72.054.506.044.265,0-.126-.015-.252-.015-.379,0-.192.018-.382.025-.574.014-.413-.124.662-.037.257.027-.126.045-.253.074-.378a5.587,5.587,0,0,1,.16-.555c.03-.088.077-.178.1-.268-.187.717-.164.374-.042.142.087-.168.19-.325.291-.485.153-.242.285-.152-.151.188a3.277,3.277,0,0,0,.25-.275c.065-.066.139-.124.2-.19.261-.27-.568.4-.117.094a2.4,2.4,0,0,0-2.422-4.145Z"/><path class="d" d="M194.068,149.626v8.114a2.4,2.4,0,1,0,4.8,0v-8.114a2.4,2.4,0,1,0-4.8,0Z"/><path class="d" d="M179.394,154.226l2.984,7.546a2.619,2.619,0,0,0,1.1,1.434,2.4,2.4,0,0,0,3.284-.861,2.332,2.332,0,0,0,.242-1.849l-2.984-7.546a2.621,2.621,0,0,0-1.1-1.435,2.456,2.456,0,0,0-1.85-.242,2.429,2.429,0,0,0-1.434,1.1,2.335,2.335,0,0,0-.242,1.85Z"/><path class="d" d="M209.321,152.446l-3.315,7.407a2.607,2.607,0,0,0-.242,1.849,2.4,2.4,0,0,0,2.952,1.677,2.335,2.335,0,0,0,1.435-1.1l3.315-7.407a2.614,2.614,0,0,0,.242-1.85,2.452,2.452,0,0,0-1.1-1.434,2.425,2.425,0,0,0-1.85-.242,2.336,2.336,0,0,0-1.434,1.1Z"/></svg>