<svg xmlns="http://www.w3.org/2000/svg" width="354.23" height="294.873" viewBox="0 0 354.23 294.873"><defs><style>.a{fill:#645d5c;}.b{fill:#0ea5a3;}.c{fill:#fff;}.d{fill:#211715;}.e{fill:#febe69;}</style></defs><path class="a" d="M285.9,269.421q-4.305-7.036-8.48-14.141-4.125-6.945-8.121-13.891c-5.98-10.36-11.76-20.641-17.271-30.631a55.588,55.588,0,0,1-5.13-12.011c-1.15-4.2-2.39-10,3.23-13.861,8.4,12.6,18.071,28.252,27.292,43.273,2.76,4.5,5.48,8.94,8.11,13.23,4.2,6.821,8.181,13.251,11.751,18.891"/><path class="b" d="M260.141,252.96c-1.593,2.561-3.133,5.014-4.607,7.334a15.62,15.62,0,0,1,11.4,9.128q2.226-3.656,4.426-7.329-2.555-4.356-5.057-8.7-1.557-2.7-3.1-5.387Q261.647,250.539,260.141,252.96Z"/><path class="b" d="M304.3,185.5c-7.036,10.584-14.934,23.245-22.694,35.854l4.928,8.039q1.548,2.511,3.051,4.947c4.545-7.968,8.963-15.859,13.22-23.577a55.588,55.588,0,0,0,5.13-12.011c1.15-4.2,2.39-10-3.23-13.861Z"/><path class="c" d="M302.72,259.949a15.88,15.88,0,0,0-16.2,16.095c0,9.71,6.761,16.4,16.2,16.4,9.8,0,16.195-6.749,16.195-16.4A15.866,15.866,0,0,0,302.72,259.949Z"/><path class="d" d="M302.72,257.549a18.53,18.53,0,0,0-17.753,12.882c-2.305,7.354.068,16,6.241,20.713,5.946,4.539,14.909,4.923,21.363,1.213,6.7-3.853,9.586-11.835,8.5-19.265a18.457,18.457,0,0,0-18.352-15.543c-3.09-.03-3.092,4.77,0,4.8a13.611,13.611,0,0,1,13.17,9.488c1.634,5.391.163,11.9-4.282,15.412-4.272,3.381-11.184,3.734-15.98,1.076-4.977-2.758-7.371-8.64-6.585-14.262a13.675,13.675,0,0,1,13.677-11.714C305.807,262.319,305.814,257.519,302.72,257.549Z"/><path class="d" d="M287.976,268.209c-7-11.453-13.777-23.051-20.434-34.709q-4.971-8.7-9.842-17.463c-3.029-5.444-6.342-10.848-8.17-16.844-1.3-4.257-2.424-9.22,1.814-12.234l-3.284-.861c12.952,19.443,24.925,39.521,37.188,59.4q4.947,8.018,9.964,15.993c1.648,2.6,5.8.2,4.145-2.423-12.575-19.877-24.573-40.113-37.165-59.98q-4.915-7.756-9.987-15.414a2.428,2.428,0,0,0-3.284-.861,12.121,12.121,0,0,0-4.952,6.593,15.894,15.894,0,0,0-.038,7.237c1.122,5.9,3.839,11.362,6.719,16.575q10.275,18.6,20.977,36.955,6.016,10.279,12.2,20.458c1.609,2.631,5.762.222,4.144-2.423Z"/><path class="d" d="M257.615,261.492q3.879-6.108,7.665-12.276h-4.145q4.043,7.063,8.153,14.088v-2.423q-2.2,3.673-4.427,7.328c-1.612,2.645,2.537,5.06,4.144,2.423q2.229-3.656,4.428-7.328a2.415,2.415,0,0,0,0-2.423q-4.118-7.02-8.153-14.088a2.425,2.425,0,0,0-4.145,0q-3.795,6.161-7.665,12.276c-1.661,2.615,2.491,5.026,4.145,2.423Z"/><path class="c" d="M252.111,259.949a15.88,15.88,0,0,1,16.195,16.095c0,9.71-6.762,16.4-16.195,16.4-9.8,0-16.2-6.749-16.2-16.4A15.867,15.867,0,0,1,252.111,259.949Z"/><path class="d" d="M252.111,262.349a13.62,13.62,0,0,1,13.172,9.51c1.626,5.375.091,11.828-4.319,15.322-4.439,3.518-11.427,3.822-16.282,1.032-4.825-2.774-7.006-8.641-6.248-14.163a13.659,13.659,0,0,1,13.677-11.7c3.087-.03,3.095-4.83,0-4.8a18.521,18.521,0,0,0-17.75,12.859c-2.209,7.037-.187,15.743,5.7,20.419a20.03,20.03,0,0,0,21.568,1.642c6.85-3.8,9.94-11.817,8.838-19.364a18.468,18.468,0,0,0-18.352-15.556C249.022,257.519,249.019,262.319,252.111,262.349Z"/><path class="d" d="M302.227,184.284c-7.826,11.782-15.28,23.809-22.693,35.853a2.391,2.391,0,0,0,0,2.423q3.984,6.5,7.979,12.987a2.425,2.425,0,0,0,4.145,0q6.519-11.434,12.877-22.957a65.851,65.851,0,0,0,5.2-11.476,25.873,25.873,0,0,0,1.577-8.672,12.02,12.02,0,0,0-5.394-9.628,2.436,2.436,0,0,0-3.283.861l-.406.609c-1.716,2.579,2.44,4.986,4.145,2.423l.4-.609-3.283.861c2.7,1.921,3.342,4.888,2.886,7.828a40.467,40.467,0,0,1-3.97,11.56c-2.226,4.493-4.79,8.835-7.237,13.21q-3.8,6.8-7.66,13.567h4.145q-4-6.484-7.98-12.987v2.423c7.414-12.044,14.868-24.071,22.694-35.853C308.086,184.126,303.93,181.72,302.227,184.284Z"/><path class="d" d="M277.319,243.542c3.089,0,3.094-4.8,0-4.8s-3.094,4.8,0,4.8Z"/><path class="c" d="M102.58,200.579v-4.055H29.633c0,44.632,0,89.58,0,89.621,18.65,0,45.044,0,72.939,0C102.573,286.122,102.573,243.846,102.58,200.579Z"/><path class="a" d="M129.537,200.033v-1.209a2.3,2.3,0,0,0-2.306-2.3H102.573v89.619H127.3a2.31,2.31,0,0,0,2.308-2.311C129.6,249.21,129.55,211.652,129.537,200.033Z"/><path class="a" d="M2.6,201.242v82.6a2.3,2.3,0,0,0,2.3,2.306c3.948,0,12.742,0,24.729,0,0,0,0-44.968,0-89.62H4.914A2.312,2.312,0,0,0,2.6,198.836Z"/><path class="d" d="M.2,198.836v82.352c0,1.693-.245,3.627.7,5.123,1.729,2.744,5.081,2.238,7.867,2.237l8.137,0q28.284,0,56.568,0h51.138c1.6,0,3.4.233,4.869-.543,2.863-1.513,2.523-4.631,2.523-7.387q0-4.622,0-9.244-.012-31-.053-61.995,0-4.317-.01-8.632c0-1.625.1-3.239-.9-4.638a4.8,4.8,0,0,0-3.866-1.979c-1.578-.056-3.168,0-4.746,0H22.914c-5.9,0-11.807-.1-17.705,0A4.875,4.875,0,0,0,.2,198.836a2.421,2.421,0,0,0,2.4,2.4,2.446,2.446,0,0,0,2.4-2.4c-.008.114-.228.048.043.088a4.121,4.121,0,0,0,.588,0H125.2a9.517,9.517,0,0,0,1.81,0,.6.6,0,0,1,.245.012c.05.013-.132-.258-.122-.112.016.222,0,.453,0,.676q0,.79,0,1.581.029,25.548.051,51.1.006,8.671.01,17.342l0,8.787v4.148a5.653,5.653,0,0,1-.044,1.424c.263-.9.212-.158.165-.147a5.017,5.017,0,0,1-1,.012H89.61q-30.87,0-61.742,0l-18.671,0H6.279a5.391,5.391,0,0,0-1.157,0,.47.47,0,0,1-.261-.043c.26.085.169.281.142-.3-.131-2.869,0-5.777,0-8.649V198.836C5,195.748.2,195.743.2,198.836Z"/><path class="d" d="M27.234,197.461v88.684c0,3.088,4.8,3.093,4.8,0V197.461c0-3.088-4.8-3.093-4.8,0Z"/><path class="d" d="M12.711,215.541h6.98a2.4,2.4,0,1,0,0-4.8h-6.98a2.4,2.4,0,0,0,0,4.8Z"/><path class="d" d="M12.711,234.063h6.98a2.4,2.4,0,1,0,0-4.8h-6.98a2.4,2.4,0,0,0,0,4.8Z"/><path class="d" d="M12.711,252.585h6.98a2.4,2.4,0,0,0,0-4.8h-6.98a2.4,2.4,0,1,0,0,4.8Z"/><path class="d" d="M12.711,271.107h6.98a2.4,2.4,0,0,0,0-4.8h-6.98a2.4,2.4,0,1,0,0,4.8Z"/><path class="d" d="M100.173,197.461v88.684c0,3.088,4.8,3.093,4.8,0V197.461c0-3.088-4.8-3.093-4.8,0Z"/><path class="d" d="M119.5,210.741h-6.979a2.4,2.4,0,1,0,0,4.8H119.5a2.4,2.4,0,0,0,0-4.8Z"/><path class="d" d="M119.5,229.263h-6.979a2.4,2.4,0,0,0,0,4.8H119.5a2.4,2.4,0,1,0,0-4.8Z"/><path class="d" d="M119.5,247.785h-6.979a2.4,2.4,0,0,0,0,4.8H119.5a2.4,2.4,0,0,0,0-4.8Z"/><path class="d" d="M119.5,266.307h-6.979a2.4,2.4,0,0,0,0,4.8H119.5a2.4,2.4,0,1,0,0-4.8Z"/><path class="c" d="M212.517,91.785V10.8a5.866,5.866,0,0,1,5.866-5.867H332.289a5.866,5.866,0,0,1,5.866,5.867V91.785"/><path class="d" d="M214.917,91.785v-76.3c0-2.158-.627-5.806,1.249-7.352,1.455-1.2,4.061-.795,5.832-.795H331.651a4.02,4.02,0,0,1,3.089,1.016,4.321,4.321,0,0,1,1.015,3.4V91.785c0,3.088,4.8,3.094,4.8,0V14.762c0-3.7.328-7.55-2.9-10.233-2.606-2.166-5.511-1.992-8.609-1.992H240.674c-7.27,0-14.54-.022-21.81,0a8.518,8.518,0,0,0-8.747,8.84V91.785c0,3.088,4.8,3.094,4.8,0Z"/><path class="c" d="M275.336,103.887H211.963c-5.345,0-10.517-2.619-12.662-6.865-.639-1.264-.216-2.674-.441-4.2a2.031,2.031,0,0,1,1.978-2.376h149a2.031,2.031,0,0,1,1.978,2.376c-.225,1.527.2,2.937-.44,4.2-2.146,4.246-7.318,6.865-12.663,6.865H275.336"/><path class="d" d="M275.336,101.487H213.729a26.349,26.349,0,0,1-3.708-.115,12.573,12.573,0,0,1-6.566-2.881,7.346,7.346,0,0,1-2-2.49,5.323,5.323,0,0,1-.119-1.838c0-.375-.02-.742-.049-1.115-.048-.614.157-.522-.177-.3-.349.232-.238.071.122.1.453.032.92,0,1.373,0H348.232c.409,0,.842.041,1.249,0,.789-.081-.331-.258-.045-.36-.312.111-.038,3.07-.3,3.634a8.041,8.041,0,0,1-2.325,2.723,12.772,12.772,0,0,1-6.74,2.587c-2.941.244-5.96.058-8.906.058h-55.83c-3.089,0-3.094,4.8,0,4.8H337.7A20.9,20.9,0,0,0,345,105.2a15.824,15.824,0,0,0,6.937-4.722,9.705,9.705,0,0,0,2.014-3.592,9.392,9.392,0,0,0,.189-2.289,13.9,13.9,0,0,0-.021-3.073c-.594-2.63-2.887-3.477-5.25-3.477H201.678c-.266,0-.534-.011-.8,0a4.5,4.5,0,0,0-4.442,4.44,17.138,17.138,0,0,0,.389,4.792,10.62,10.62,0,0,0,2.359,3.735,16.254,16.254,0,0,0,7.2,4.431c3.752,1.184,7.931.844,11.823.844h57.129c3.089,0,3.094-4.8,0-4.8Z"/><path class="d" d="M264.7,90.445a4.875,4.875,0,0,0,4.93,4.869c1,.026,2.01,0,3.014,0,2.743,0,5.487.018,8.23,0a4.9,4.9,0,0,0,5.1-4.869,2.4,2.4,0,0,0-4.8,0c0,.032-.006.408,0,.122.009-.317-.016.118-.045.1-.053-.036.23-.332.037-.114s.109-.092.089-.09c0,0-.3.263-.047.068.3-.225-.325.106.023-.014.273-.095-.058,0-.1.012.2-.076.271-.011,0-.013H269.549c-.054,0-.4.027-.124,0,.344-.031-.132-.006-.088-.046q.346.162.12.038c-.115-.072-.113-.065,0,.02.286.174-.068-.07-.047-.068l.139.176-.1-.172c.069,0,.084.388.059.1-.034-.389.01.606-.016-.119a2.4,2.4,0,0,0-4.8,0Z"/><path class="e" d="M322.527,19.117H227.675V35.374h94.852Z"/><path class="d" d="M322.527,16.717H227.675a2.435,2.435,0,0,0-2.4,2.4V35.374a2.435,2.435,0,0,0,2.4,2.4h94.852a2.435,2.435,0,0,0,2.4-2.4V19.117c0-3.089-4.8-3.094-4.8,0V35.374l2.4-2.4H227.675l2.4,2.4V19.117l-2.4,2.4h94.852C325.615,21.517,325.62,16.717,322.527,16.717Z"/><path class="d" d="M248.988,19.117V35.374a2.4,2.4,0,0,0,4.8,0v-.967a2.4,2.4,0,0,0-4.8,0v.967h4.8V19.117a2.4,2.4,0,0,0-4.8,0Z"/><path class="d" d="M272.7,19.117V35.374a2.4,2.4,0,1,0,4.8,0v-.967a2.4,2.4,0,1,0-4.8,0v.967h4.8V19.117a2.4,2.4,0,1,0-4.8,0Z"/><path class="d" d="M296.414,19.117V35.374a2.4,2.4,0,1,0,4.8,0v-.967a2.4,2.4,0,1,0-4.8,0v.967h4.8V19.117a2.4,2.4,0,1,0-4.8,0Z"/><path class="a" d="M116.223,7.5V3.936a1.443,1.443,0,0,0-1.442-1.442H92.673a1.436,1.436,0,0,0-1.434,1.442v14.4h24.984V7.5Z"/><path class="c" d="M63.952,14.488h54.773a6.71,6.71,0,0,1,6.716,6.706c.006,4.977.016,12.248.026,21.019H41.34s-19.42,0-38.84,0V21.223a6.729,6.729,0,0,1,6.725-6.735Z"/><path class="b" d="M63.972,96.479c-24.479,0-44.752,0-54.755,0A6.71,6.71,0,0,1,2.5,89.77V42.213H125.467c.015,13.313.03,30.083.033,47.533a6.731,6.731,0,0,1-6.729,6.732Z"/><path class="d" d="M.1,21.223V82.728c0,2.839-.311,5.9.163,8.7a9.131,9.131,0,0,0,6.8,7.194c2.207.51,4.667.258,6.922.258q19.071,0,38.142,0h60.42c2.23,0,4.519.148,6.742-.021a9.271,9.271,0,0,0,8.171-6.316c.638-1.921.441-4.039.44-6.031q0-3.57,0-7.14,0-6.791-.008-13.581-.016-21.145-.045-42.293c0-3.211-.213-6.165-2.564-8.627-2.226-2.331-5.1-2.781-8.157-2.781H12.483c-2.416,0-4.826-.163-7.088.857A9.244,9.244,0,0,0,.1,21.223c-.078,3.09,4.722,3.088,4.8,0a4.406,4.406,0,0,1,4.569-4.335c1.7-.012,3.4,0,5.1,0H116.313c2.006,0,4.07-.232,5.573,1.375,1.606,1.717,1.157,4.323,1.159,6.488q.006,3.942.01,7.882.013,10.443.023,20.884.012,12.682.019,25.365,0,3.442,0,6.884c0,1.74.361,3.843-.268,5.5-1.241,3.267-4.688,2.813-7.547,2.813h-52.4l-41.188,0-7.241,0a36.872,36.872,0,0,1-5.937-.042C5.764,93.574,4.9,91.214,4.9,88.751V21.223C4.9,18.134.1,18.129.1,21.223Z"/><path class="d" d="M124.792,39.813H86.668c-3.089,0-3.094,4.8,0,4.8h38.124c3.088,0,3.093-4.8,0-4.8Z"/><path class="d" d="M41.34,39.813H2.5c-3.088,0-3.094,4.8,0,4.8H41.34c3.089,0,3.094-4.8,0-4.8Z"/><path class="c" d="M64,30.232A24.685,24.685,0,0,0,38.825,55.251C38.825,70.345,49.335,80.74,64,80.74c15.23,0,25.175-10.492,25.175-25.489A24.664,24.664,0,0,0,64,30.232Z"/><path class="d" d="M64,27.832A27.9,27.9,0,0,0,47.344,33.2a27.363,27.363,0,0,0-9.663,13.7c-3.35,10.713-.079,23.552,8.9,30.533,8.888,6.909,22.316,7.63,32.055,2.037,9.955-5.718,14.221-17.624,12.576-28.655A27.052,27.052,0,0,0,68.739,28.22,33.3,33.3,0,0,0,64,27.832c-3.089-.02-3.093,4.78,0,4.8,9.942.063,18.888,6.143,21.781,15.808,2.635,8.805.192,19.327-7.012,25.161-7.1,5.749-18.541,6.3-26.513,1.862-8.215-4.577-12.133-14.308-10.817-23.52A22.232,22.232,0,0,1,64,32.632C67.087,32.612,67.094,27.812,64,27.832Z"/><path class="c" d="M110.208,23.5a4.72,4.72,0,0,0-4.813,4.784,4.642,4.642,0,0,0,4.813,4.874,4.594,4.594,0,0,0,4.814-4.874A4.716,4.716,0,0,0,110.208,23.5Z"/><path class="d" d="M110.208,21.1a7.241,7.241,0,0,0-6.9,5.058,7.376,7.376,0,0,0,2.375,7.875,7.644,7.644,0,0,0,8.295.561,7.34,7.34,0,0,0,3.309-7.65,7.167,7.167,0,0,0-7.079-5.844,2.4,2.4,0,1,0,0,4.8c.14,0,.279.013.419.016.5.014-.583-.129-.1-.015.213.05.425.093.634.162a2.082,2.082,0,0,0,.241.086c-.541-.093-.362-.163-.114-.034.222.115.414.273.63.394-.55-.308-.281-.221-.11-.063.06.055.118.111.175.169a3.52,3.52,0,0,0,.243.271c-.405-.333-.252-.361-.119-.146.119.191.23.381.34.577.09.162.068.342-.092-.238.044.157.116.309.161.467.058.2.078.411.134.611-.174-.62-.039-.42-.038-.2,0,.107.011.215.011.322,0,.216-.046.442-.034.656-.035-.619.061-.4.009-.139-.028.141-.061.28-.1.418-.027.1-.057.192-.09.287-.089.251-.271.355.064-.137-.106.156-.174.345-.276.506-.05.08-.111.154-.159.235-.152.253.423-.481.128-.176-.155.16-.335.307-.484.47.415-.454.33-.243.121-.105-.064.042-.129.083-.194.122-.1.058-.2.108-.306.164-.381.207.487-.158.2-.079-.214.059-.419.144-.637.2-.081.019-.163.032-.245.05-.405.093.658-.05,0-.007a5.938,5.938,0,0,1-.667.008,1.733,1.733,0,0,1-.388-.031c.009,0,.645.12.263.028-.22-.053-.438-.1-.654-.169-.094-.032-.186-.076-.281-.1.682.2.293.124.093.014s-.355-.233-.537-.345c.629.385.153.111-.033-.081-.066-.068-.124-.15-.193-.214-.217-.2.359.527.127.165-.129-.2-.244-.4-.359-.607-.221-.4.2.571.053.131-.026-.078-.055-.154-.08-.232-.074-.234-.085-.51-.173-.735.012.031.055.64.037.25-.006-.135-.02-.268-.023-.4q0-.165,0-.33c.01-.246.159-.617-.032.07.067-.24.094-.487.17-.727.036-.114.1-.232.124-.348l-.145.349c.034-.074.071-.147.109-.219.114-.217.268-.406.388-.617-.317.557-.22.279-.065.111.082-.089.168-.176.258-.258.169-.158.441-.248-.11.062.1-.059.2-.145.305-.21s.213-.128.324-.186c.074-.038.149-.075.226-.11l-.34.143c.244-.031.5-.17.746-.223.3-.064.418.07-.106,0a4.184,4.184,0,0,0,.557-.029,2.4,2.4,0,1,0,0-4.8Z"/><path class="d" d="M118.623,11.623V5.279a5.96,5.96,0,0,0-.645-3.456C116.413-.609,112.808.094,110.35.094H96.026c-1.619,0-3.728-.317-5.2.475a4.168,4.168,0,0,0-1.99,3.959v7.1c0,3.089,4.8,3.094,4.8,0v-5.4a7.635,7.635,0,0,0,0-2.249c-.171-.427-1.318.687-.873.918a2.4,2.4,0,0,0,.718,0h17.109a18.888,18.888,0,0,0,3.691,0h.5l-.958-.958c.005,0-.028.068,0,.04-.031.031.008.216,0,.253a5.774,5.774,0,0,0,0,1.146v6.248c0,3.089,4.8,3.094,4.8,0Z"/><path class="d" d="M15.03,30.777H25.789a2.4,2.4,0,0,0,0-4.8H15.03a2.4,2.4,0,1,0,0,4.8Z"/></svg>