<svg xmlns="http://www.w3.org/2000/svg" width="334.282" height="330.887" viewBox="0 0 334.282 330.887"><defs><style>.a{fill:#fff;}.b{fill:#febe69;}.c{fill:#211715;}.d{fill:#645d5c;}</style></defs><path class="a" d="M216.334,247.06c0,15.787,0,35.592,0,46.513a6.89,6.89,0,0,0,6.9,6.894c16.28,0,58.925,0,101.733,0a6.92,6.92,0,0,0,6.918-6.922c0-17.256-.019-33.763-.034-46.48Z"/><path class="b" d="M218.978,223.439h-.429a2.211,2.211,0,0,0-2.214,2.216c0,3.738,0,11.832,0,21.405H331.849c-.012-9.707-.023-17.2-.027-21.132a2.486,2.486,0,0,0-2.487-2.489Z"/><path class="c" d="M223.231,302.867q19.83-.006,39.66,0h58.826c2.167,0,4.442.2,6.5-.6a9.6,9.6,0,0,0,4.62-3.743,10.219,10.219,0,0,0,1.442-5.727l0-7.659q-.006-14.387-.021-28.773-.011-10.9-.025-21.792-.006-3.583-.01-7.166a7.293,7.293,0,0,0-.758-4.076,5.113,5.113,0,0,0-4.52-2.288c-7.709-.074-15.423,0-23.132,0H219.9a10.365,10.365,0,0,0-2.477.145,4.719,4.719,0,0,0-3.492,4.595c-.15,4.3,0,8.64,0,12.946q0,9.766,0,19.532v29.764c0,2.77-.425,6.013.538,8.648a9.449,9.449,0,0,0,8.758,6.2c3.09.074,3.089-4.726,0-4.8-2.957-.072-4.5-2.412-4.5-5.154V266.186q0-17.886,0-35.771c0-1.578.023-3.214.018-4.76,0,.314-.428.12.119.184a7.113,7.113,0,0,0,.813,0H328.476c.366,0,.775-.115.946.164.136.221,0,.955,0,1.223q0,.7,0,1.407.011,8.626.022,17.253.014,12.477.024,24.952,0,7.27.008,14.541l0,7.414a4.674,4.674,0,0,1-5.267,5.269H273.471l-43.631,0-6.609,0C220.143,298.067,220.138,302.867,223.231,302.867Z"/><path class="b" d="M213.1,205.61l3.815,14.24a2.355,2.355,0,0,0,2.883,1.671c10.674-2.863,57.311-15.36,104.757-28.073a3.389,3.389,0,0,0,2.391-4.154c-1.484-5.51-2.689-9.983-3.578-13.281a6.206,6.206,0,0,0-7.605-4.384c-19.2,5.144-79.015,21.173-98.255,26.33A6.261,6.261,0,0,0,213.1,205.61Z"/><path class="c" d="M216.335,249.46H331.849c3.089,0,3.094-4.8,0-4.8H216.335c-3.089,0-3.094,4.8,0,4.8Z"/><path class="c" d="M210.78,206.248l2.586,9.652c.748,2.79,1.037,6.607,4.147,7.775,2.392.9,5.7-.588,8.083-1.225l22.313-5.98,70.533-18.9,4.816-1.291a9.556,9.556,0,0,0,4.318-1.841,5.773,5.773,0,0,0,1.765-3.163c.314-1.695-.268-3.3-.7-4.916q-1.083-4.022-2.165-8.041c-.644-2.387-1.132-4.79-2.888-6.65a8.587,8.587,0,0,0-7.139-2.582,29.649,29.649,0,0,0-4.2,1l-8.755,2.346-49.033,13.139-23.718,6.356-9.269,2.484c-3.446.924-7.107,1.48-9.358,4.563a8.8,8.8,0,0,0-1.328,7.274c.716,3,5.345,1.732,4.629-1.276a3.9,3.9,0,0,1,2.013-4.434,19.283,19.283,0,0,1,3.42-.989l8.232-2.206,21.249-5.694,47.52-12.734,17.342-4.647c1.457-.391,2.837-.75,4.213.134,1.628,1.046,1.844,2.963,2.31,4.693l2.062,7.657.481,1.786a4.581,4.581,0,0,1,.4,1.769c-.154.837-1,.9-1.708,1.085l-68.8,18.436-24.189,6.482-7.828,2.1a20.792,20.792,0,0,0-2.694.722.683.683,0,0,1-.341.04c.439.046.195.205.146.07-.105-.28-.185-.661-.263-.952l-1.227-4.578q-1.17-4.37-2.341-8.739C214.61,201.992,209.979,203.256,210.78,206.248Z"/><path class="c" d="M286.837,230.009l-5.276,9.14a2.4,2.4,0,1,0,4.144,2.422l5.277-9.139a2.4,2.4,0,0,0-4.145-2.423Z"/><path class="c" d="M312.568,230.009l-5.277,9.14a2.4,2.4,0,0,0,4.145,2.422l5.276-9.139a2.4,2.4,0,1,0-4.144-2.423Z"/><path class="c" d="M235.376,230.009l-5.276,9.14a2.4,2.4,0,1,0,4.144,2.422l5.277-9.139a2.4,2.4,0,1,0-4.145-2.423Z"/><path class="c" d="M261.107,230.009l-5.277,9.14a2.4,2.4,0,0,0,4.145,2.422l5.276-9.139a2.4,2.4,0,1,0-4.144-2.423Z"/><path class="c" d="M280.166,186.99l-2.731,10.193a2.4,2.4,0,1,0,4.628,1.276l2.732-10.193a2.4,2.4,0,1,0-4.629-1.276Z"/><path class="c" d="M305.02,180.33l-2.731,10.194a2.4,2.4,0,1,0,4.628,1.276l2.732-10.194a2.4,2.4,0,0,0-4.629-1.276Z"/><path class="c" d="M230.459,200.309,227.727,210.5a2.4,2.4,0,1,0,4.629,1.276l2.731-10.193a2.4,2.4,0,1,0-4.628-1.276Z"/><path class="c" d="M255.312,193.649l-2.731,10.194a2.4,2.4,0,0,0,4.629,1.276l2.731-10.194a2.4,2.4,0,0,0-4.629-1.276Z"/><path class="d" d="M85.382,260.161a7.851,7.851,0,0,1-7.81,7.06H45.257a7.855,7.855,0,0,1-7.747-9.134H85.421v1.285Q85.421,259.771,85.382,260.161Z"/><path class="d" d="M37.414,190.173c-.005.115-.008.231-.008.347v.894l47.968,0a7.857,7.857,0,0,0-7.8-8.745H45.255A7.849,7.849,0,0,0,37.414,190.173Z"/><rect class="a" x="2.414" y="191.416" width="118" height="66.671" rx="7.058"/><path class="c" d="M118.014,198.473v51.692c0,.288.007.576,0,.863a4.72,4.72,0,0,1-3.954,4.617,15.3,15.3,0,0,1-2.246.041H10.949a9.745,9.745,0,0,1-2.82-.2c-2.518-.765-3.315-3.024-3.315-5.4V201.743c0-1.194-.079-2.419.009-3.611a4.761,4.761,0,0,1,5.028-4.316c9.448-.038,18.9,0,28.347,0H85.082c9.33,0,18.662-.051,27.991,0a4.746,4.746,0,0,1,4.941,4.657c.074,3.084,4.874,3.1,4.8,0a9.607,9.607,0,0,0-9.537-9.457c-.872-.016-1.745,0-2.617,0H12.713c-1.013,0-2.026-.008-3.039,0a9.621,9.621,0,0,0-9.292,6.838,18.858,18.858,0,0,0-.368,5.274v49.037c0,3.611,1.327,6.928,4.5,8.919a10.854,10.854,0,0,0,5.954,1.4h96.9c2.857,0,6.5.464,9.219-.579a9.731,9.731,0,0,0,6.222-9.426V198.473C122.814,195.385,118.014,195.38,118.014,198.473Z"/><path class="d" d="M51.739,320.355c-.023-.244-.037-31.071-.04-39.508a2.114,2.114,0,0,1,2.119-2.113h15.3a2.116,2.116,0,0,1,2.122,2.114V319.5a8.947,8.947,0,0,1-8.947,8.946H60.645A8.947,8.947,0,0,1,51.739,320.355Z"/><path class="c" d="M54.139,320.355c-.124-2.188-.015-4.413-.018-6.6q-.009-7.059-.012-14.117Q54.1,292.5,54.1,285.363q0-1.3,0-2.606v-1.1a3.606,3.606,0,0,0,0-.53c-.063-.4.079-.106-.087-.061-.512.14.2.067.41.067H68.093c.191,0,.852.115,1.008,0-.187.138-.169-.384-.265-.146a3.666,3.666,0,0,0,0,1.087v33.409c0,2.487.352,5.243-.98,7.457-2.418,4.019-9.288,4.262-12.244.751a6.469,6.469,0,0,1-1.473-3.337,2.473,2.473,0,0,0-2.4-2.4,2.415,2.415,0,0,0-2.4,2.4,11.638,11.638,0,0,0,5.524,8.907,13.764,13.764,0,0,0,8.469,1.521,11.539,11.539,0,0,0,10.3-11.731c.02-8.868,0-17.736,0-26.6v-7.264c0-2,.422-4.729-.565-6.521-1.185-2.152-3.341-2.329-5.484-2.329H55.045c-2.374,0-4.756.6-5.552,3.206-.552,1.8-.193,4.176-.192,6.044q0,3.6,0,7.195c0,8.993-.02,17.987.029,26.98,0,.2-.006.4,0,.6C49.513,323.426,54.314,323.446,54.139,320.355Z"/><path class="c" d="M35.008,259.371a10.4,10.4,0,0,0,10.549,10.25c2.792.013,5.584,0,8.376,0H76.789a11.942,11.942,0,0,0,5.424-1.117,10.32,10.32,0,0,0,5.608-9.133c0-3.088-4.8-3.093-4.8,0a5.5,5.5,0,0,1-3.418,5.07,7.468,7.468,0,0,1-2.857.38H46.729a14.351,14.351,0,0,1-2.374-.067,5.5,5.5,0,0,1-4.547-5.383c0-3.088-4.8-3.093-4.8,0Z"/><path class="c" d="M87.821,190.52a10.4,10.4,0,0,0-10.549-10.249c-2.792-.014-5.584,0-8.376,0H46.04a11.942,11.942,0,0,0-5.424,1.117,10.318,10.318,0,0,0-5.608,9.132c0,3.089,4.8,3.094,4.8,0a5.5,5.5,0,0,1,3.418-5.069,7.446,7.446,0,0,1,2.857-.38H76.1a14.351,14.351,0,0,1,2.374.067,5.5,5.5,0,0,1,4.547,5.382c0,3.089,4.8,3.094,4.8,0Z"/><path class="c" d="M51.907,268.738v9.4a2.4,2.4,0,0,0,4.8,0v-9.4a2.4,2.4,0,1,0-4.8,0Z"/><path class="c" d="M66.228,268.738v9.4a2.4,2.4,0,0,0,4.8,0v-9.4a2.4,2.4,0,0,0-4.8,0Z"/><path class="c" d="M106.975,219.247v11.008a2.4,2.4,0,0,0,4.8,0V219.247a2.4,2.4,0,0,0-4.8,0Z"/><rect class="d" x="254.028" y="7.628" width="42.708" height="75.589" rx="21.354"/><path class="c" d="M275.382,80.817a19.09,19.09,0,0,1-17.866-12.591c-1.425-4.109-1.088-8.486-1.088-12.766V30.769a27.812,27.812,0,0,1,.245-4.913,18.961,18.961,0,0,1,37.663,3.324c0,1.464,0,2.927,0,4.391v17.6c0,3.623.037,7.249,0,10.872a19.1,19.1,0,0,1-12.9,17.8,19.643,19.643,0,0,1-6.048.982c-3.087.025-3.1,4.825,0,4.8A24.035,24.035,0,0,0,297.4,70.737c1.986-4.827,1.732-9.886,1.732-14.977V36.85c0-4.687.4-9.677-.863-14.236a23.756,23.756,0,0,0-46.645,6.408c-.009,1.4,0,2.8,0,4.2V51.75c0,4.179-.336,8.537.156,12.7a23.706,23.706,0,0,0,23.6,21.167C278.471,85.617,278.476,80.817,275.382,80.817Z"/><path class="c" d="M267.959,99.217v12.425a2.4,2.4,0,0,0,4.8,0v-.265a2.4,2.4,0,0,0-4.8,0v.265h4.8V99.217a2.4,2.4,0,0,0-4.8,0Z"/><path class="c" d="M277.5,100.141v10.62a2.4,2.4,0,0,0,4.8,0v-10.62a2.4,2.4,0,0,0-4.8,0Z"/><path class="c" d="M260.509,114.444h29.706c3.089,0,3.094-4.8,0-4.8H260.509c-3.089,0-3.094,4.8,0,4.8Z"/><path class="c" d="M237.482,64.055c.741,15.09,11.584,29.07,25.656,34.2,14.256,5.2,30.516.468,40.331-10.937,5.562-6.463,9.391-14.681,9.813-23.266.151-3.088-4.649-3.08-4.8,0-.633,12.9-10.243,25.315-22.316,29.64a32.391,32.391,0,0,1-35.213-9.465c-4.84-5.5-8.309-12.792-8.671-20.175-.151-3.075-4.952-3.093-4.8,0Z"/><path class="a" d="M114.878,43.371V37.458a1.775,1.775,0,0,0-2.637-1.287q-10.6,5.19-21.222,10.367c.007,7.02.016,15.982.022,25.686q10.6,5.182,21.2,10.365a1.775,1.775,0,0,0,2.637-1.288Z"/><path class="b" d="M33.024,2.4A10.858,10.858,0,0,0,21.951,13.405c0,6.64,4.623,11.212,11.074,11.212,6.7,0,11.073-4.615,11.073-11.212A10.849,10.849,0,0,0,33.024,2.4Z"/><path class="b" d="M66.918,2.4A10.857,10.857,0,0,0,55.845,13.405c0,6.64,4.623,11.212,11.073,11.212,6.7,0,11.074-4.615,11.074-11.212A10.849,10.849,0,0,0,66.918,2.4Z"/><path class="c" d="M92.231,48.615q7.964-3.888,15.927-7.776l3.979-1.947c.263-.128.949-.367,1.021-.523.052-.112-1.239-.094-.67-.9-.081.116,0,.572,0,.709V79.83a4.431,4.431,0,0,0,0,1.321c.154.363.145-.308.28-.576.229-.452.734-.03-.187-.49-.733-.366-1.471-.72-2.207-1.08q-9.052-4.428-18.108-8.851a2.461,2.461,0,0,0-3.283.861,2.42,2.42,0,0,0,.861,3.283q8.612,4.212,17.225,8.42c2.5,1.222,5.617,3.575,8.395,1.8a4.011,4.011,0,0,0,1.824-3.4c.134-3.717,0-7.464,0-11.183V38.175a6.474,6.474,0,0,0-.115-1.632,4.082,4.082,0,0,0-3.079-2.862c-1.779-.407-3.283.53-4.821,1.283q-9.729,4.761-19.465,9.507a2.422,2.422,0,0,0-.861,3.283,2.45,2.45,0,0,0,3.284.861Z"/><path class="c" d="M33.024,0A13.46,13.46,0,0,0,20.16,9.344,13.9,13.9,0,0,0,24.5,24.179a14.45,14.45,0,0,0,15.618,1.047c4.923-2.814,6.99-8.642,6.177-14.074A13.38,13.38,0,0,0,33.024,0c-3.089-.039-3.091,4.76,0,4.8a8.507,8.507,0,0,1,8.317,6.078,9.2,9.2,0,0,1-2.727,9.612,14.228,14.228,0,0,1-1.8,1.037,10.214,10.214,0,0,1-8.2-.349A8.8,8.8,0,0,1,24.4,12.293,8.536,8.536,0,0,1,33.024,4.8C36.111,4.76,36.119-.04,33.024,0Z"/><path class="c" d="M66.918,0A13.461,13.461,0,0,0,54.053,9.344,13.9,13.9,0,0,0,58.4,24.179a14.45,14.45,0,0,0,15.618,1.047c4.922-2.814,6.989-8.642,6.176-14.074A13.379,13.379,0,0,0,66.918,0c-3.09-.039-3.092,4.76,0,4.8a8.508,8.508,0,0,1,8.317,6.078,9.2,9.2,0,0,1-2.728,9.612,14.145,14.145,0,0,1-1.8,1.037,10.214,10.214,0,0,1-8.2-.349,8.8,8.8,0,0,1-4.218-8.885A8.537,8.537,0,0,1,66.918,4.8C70,4.76,70.013-.04,66.918,0Z"/><path class="a" d="M8.888,38.165V80.6a6.159,6.159,0,0,0,6.164,6.164c12.225,0,40.86,0,69.832,0a6.171,6.171,0,0,0,6.17-6.172c0-17.5-.025-33.767-.037-42.446a6.161,6.161,0,0,0-6.165-6.153H15.061A6.175,6.175,0,0,0,8.888,38.165Z"/><path class="c" d="M6.488,38.165V77.654c0,2.656-.145,5.325,1.4,7.64a8.8,8.8,0,0,0,7.373,3.871c4.322.04,8.647,0,12.97,0H78.9c3.315,0,7.087.571,10.119-1.063a8.676,8.676,0,0,0,4.426-7.159c.2-3.653.007-7.372.005-11.031q-.006-9.8-.018-19.609l-.009-7.881c0-2.237.29-4.776-.429-6.922a8.769,8.769,0,0,0-8.518-5.906c-1.337-.006-2.675,0-4.012,0h-58.9c-3.481,0-8-.625-11.066,1.316a8.753,8.753,0,0,0-4.014,7.258c-.086,3.09,4.714,3.088,4.8,0,.127-4.521,5.141-3.774,8.225-3.774h56.55c2.909,0,5.838-.1,8.746,0a3.82,3.82,0,0,1,3.4,2.048c.809,1.6.412,3.924.415,5.677l.018,16.049q.009,10.224.013,20.449c0,2.208.04,4.526-2.374,5.493a10.71,10.71,0,0,1-3.893.255H16.146c-1.864,0-3.672-.282-4.526-2.2a6.328,6.328,0,0,1-.332-2.7v-41.3C11.288,35.077,6.488,35.072,6.488,38.165Z"/><path class="c" d="M69.147,107.8Q60.406,97.379,51.666,86.963a2.418,2.418,0,0,0-3.394,0,2.452,2.452,0,0,0,0,3.394q8.742,10.415,17.481,20.832a2.42,2.42,0,0,0,3.394,0,2.451,2.451,0,0,0,0-3.394Z"/><path class="c" d="M48.272,86.963Q39.539,97.385,30.791,107.8a2.467,2.467,0,0,0,0,3.394,2.421,2.421,0,0,0,3.394,0q8.74-10.416,17.481-20.832a2.466,2.466,0,0,0,0-3.394,2.419,2.419,0,0,0-3.394,0Z"/><path class="c" d="M52.369,109.492V88.66c0-3.089-4.8-3.094-4.8,0v20.832c0,3.088,4.8,3.093,4.8,0Z"/></svg>