<svg id="b" xmlns="http://www.w3.org/2000/svg" width="197.933" height="316.918" viewBox="0 0 197.933 316.918"><defs><style>.e{fill:#fff;}.f{fill:#211715;}.g{fill:#b3b3b3;}.h{fill:#ececec;}.i{fill:#645d5c;}</style></defs><g id="c"><g id="d"><path class="i" d="M36.48,109.615c.789-7.412,1.26-16.523,1.26-27.234-.979-29.761,6.781-51.343,19.017-63.158,7.376-7.122,23.997-16.826,42.671-16.826,11.39,0,19.409,2.089,27.107,5.237l1.399.799,8.575,5.025c2.242,1.626,4.235,3.358,6.985,6.034,9.337,9.086,15.826,25.434,16.86,40.073.298,4.223.984,15.211.324,22.817.332,24.915,4.925,38.861,7.296,45.725,1.901,5.505,2.828,9.904,2.879,15.608.084,9.325-12.768,21.335-25.537,17.703l-94.386,1.202c-12.204.294-20.144-8.687-20.076-16.966.057-5.701,1.391-15.043,2.952-20.653,1.066-3.808,1.991-8.958,2.675-15.384Z"/><path class="e" d="M118.528,164.599c-14.848,4.988-32.849,3.854-45.847-2.707-.683-2.592-1.364-5.21-2.046-7.861,1.728-.8,2.95-1.365,3.035-1.396,4.498-1.624,4.32-4.516,4.887-7.751.454-2.592.771-4.909.915-7.57-5.257-2.632-10.115-6.769-14.391-11.888-5.333-6.383-8.466-13.238-10.258-19.025-2.367.541-4.897-.347-6.589-1.731-3.903-3.193-5.522-7.646-6.51-10.557-1.395-4.11-1.483-10.754.596-14.359.696-1.208,2.315-3.265,6.118-3.399,1.748-.062,3.79.486,5.306,1.942l.696.669c.555-.259,1.11-.517,1.11-.517,3.093-1.441,11.705-5.174,12.959-5.916,3.722-2.201,7.289-4.54,10.612-7.045,1.171-.27,1.816-.416,1.816-.416,13.824-3.118,33.139-13.923,38.539-21.743,2.097,6.574,3.42,12.522,10.474,22.028,5.247,7.071,12.193,11.147,15.296,13.871,1.529-2.159,4.025-2.948,6.104-2.874,3.803.134,5.422,2.191,6.118,3.399,2.079,3.605,1.991,10.249.596,14.359-.988,2.911-2.607,7.364-6.51,10.557-1.608,1.316-3.975,2.183-6.238,1.8,0,0-.153-.026-.43-.072-.739,2.155-1.663,4.072-1.974,5.018-1.634,4.436-10.969,20.448-22.584,25.708.139,2.596.451,5.188.905,7.76.564,3.233.383,6.124,4.885,7.755.074.026.948.434,2.22,1.034-.654,2.555-1.302,5.06-1.945,7.527-2.479,1.346-5.117,2.477-7.863,3.4Z"/><path class="f" d="M40.139,82.381c-.576-18.329,1.685-38.246,12.048-53.892,3.971-5.996,9.316-10.755,15.574-14.486,8.571-5.11,18.386-8.508,28.382-9.107,5.98-.358,12.097.073,17.955,1.332,2.547.547,5.057,1.256,7.52,2.104,1.221.42,2.425.883,3.628,1.353.099.039.594.301.117.044.153.082.302.173.453.259l.906.518c2.687,1.535,5.107-2.611,2.423-4.145-3.595-2.054-7.769-3.3-11.773-4.298C111.979.718,106.406.095,100.854.008c-11.194-.177-22.196,2.774-32.092,7.939-7.284,3.802-13.759,8.78-18.745,15.338-5.121,6.735-8.561,14.704-10.833,22.817-3.291,11.755-4.227,24.117-3.845,36.28.097,3.081,4.897,3.095,4.8,0h0Z"/><path class="f" d="M163.077,82.381c.429-5.128.315-10.301.097-15.437-.186-4.386-.419-8.78-1.076-13.124-1.604-10.615-5.532-21.354-11.857-30.083-3.456-4.77-7.77-8.883-12.521-12.352-1.047-.765-2.676-.177-3.284.861-.711,1.215-.189,2.517.861,3.284,7.947,5.805,13.763,13.679,17.503,22.741,2.019,4.893,3.499,10.026,4.411,15.239.715,4.088.922,8.245,1.116,12.385.257,5.483.408,11.01-.05,16.486-.108,1.293,1.18,2.4,2.4,2.4,1.388,0,2.292-1.103,2.4-2.4h0Z"/><path class="f" d="M35.341,82.381c-.009,13.001-.273,26.409-3.134,39.123-.569,2.53-1.305,5.011-1.81,7.558-.701,3.54-1.22,7.124-1.58,10.715-.294,2.931-.585,5.922-.09,8.845.451,2.662,1.63,5.251,3.226,7.418,4.436,6.024,11.571,9.097,18.976,8.979,3.086-.049,3.095-4.849,0-4.8-5.614.089-11.209-1.985-14.742-6.484-1.474-1.877-2.389-3.922-2.809-6.253-.396-2.199.002-5.399.258-7.897.33-3.225.819-6.437,1.463-9.614.49-2.421,1.195-4.783,1.736-7.191,1.15-5.112,1.8-10.345,2.284-15.557.766-8.255,1.016-16.554,1.022-24.842.002-3.089-4.798-3.094-4.8,0h0Z"/><path class="f" d="M143.431,102.539c-.261,1.964-1.068,3.904-1.817,5.724-.279.679-.58,1.351-.842,2.037-.074.194-.144.39-.215.586-.028.076-.062.151-.089.228-.155.442.182-.409.058-.135-.9,1.992-1.958,3.902-3.104,5.762-3.344,5.431-7.404,10.566-12.369,14.607-2.724,2.217-5.797,3.976-9.201,4.762-3.008.695-1.735,5.324,1.276,4.629,7.068-1.633,12.95-6.794,17.564-12.159,3.827-4.451,7.402-9.462,9.827-14.835,1.61-3.566,3.194-7.312,3.712-11.204.171-1.287-1.226-2.4-2.4-2.4-1.439,0-2.228,1.109-2.4,2.4h0Z"/><path class="f" d="M51.419,102.993c3.321,14.296,12.28,28.173,25.218,35.524,3.489,1.982,7.309,3.42,11.285,4.011,1.28.191,2.58-.32,2.952-1.676.311-1.132-.386-2.76-1.676-2.952-13.914-2.071-24.672-14.396-30.056-26.68-1.337-3.051-2.341-6.26-3.095-9.503-.699-3.008-5.328-1.735-4.629,1.276h0Z"/><path class="f" d="M55.44,76.598c-3.119-2.821-7.638-3.403-11.431-1.602-2.775,1.318-4.387,4.076-5.092,6.967-1.664,6.822.075,14.654,4.041,20.408,2.86,4.15,6.914,7.128,12.151,6.413,1.286-.176,1.987-1.822,1.676-2.952-.381-1.386-1.663-1.852-2.952-1.676-3.589.49-6.402-3.364-7.875-6.082s-2.544-5.811-2.776-8.896c-.131-1.742-.125-3.538.214-5.256.141-.715.309-1.466.583-2.141.134-.332.311-.655.497-.96.036-.058.411-.601.246-.387.533-.693,1.621-1.398,2.935-1.613,1.566-.255,3.198.094,4.389,1.171,2.286,2.068,5.691-1.316,3.394-3.394h0Z"/><path class="f" d="M147.741,79.993c2.16-1.955,5.757-1.496,7.385.519-.325-.403.133.223.185.309.186.305.363.628.497.96.252.621.411,1.309.548,1.968.371,1.774.384,3.628.249,5.429-.228,3.03-1.27,6.064-2.693,8.739-1.47,2.765-4.311,6.736-7.958,6.238-1.283-.175-2.577.309-2.952,1.676-.308,1.12.384,2.776,1.676,2.952,8.536,1.166,13.495-7.153,15.749-14.183,1.152-3.593,1.294-7.543.716-11.253-.476-3.056-1.765-5.965-4.358-7.77-3.756-2.615-9.135-1.968-12.438,1.021-2.296,2.077,1.107,5.463,3.394,3.394h0Z"/><path class="f" d="M92.601,48.205c-3.929,6.031-9.225,11.123-14.969,15.418-3.136,2.345-6.414,4.495-9.774,6.503-1.79,1.07-3.748,1.862-5.647,2.714-2.624,1.177-5.264,2.324-7.872,3.535-1.176.546-1.471,2.24-.861,3.284.705,1.206,2.104,1.409,3.284.861,4.273-1.984,8.796-3.616,12.923-5.895,6.834-3.774,13.407-8.67,18.965-14.148,3.032-2.988,5.771-6.282,8.096-9.85,1.691-2.596-2.463-5.004-4.145-2.423h0Z"/><path class="f" d="M117.556,41.891c-.119.178-.241.353-.366.527-.248.345.103-.11-.177.23-.363.441-.74.87-1.134,1.284-.792.835-1.637,1.618-2.508,2.368-2.079,1.79-4.333,3.367-6.641,4.845-5.257,3.367-10.873,6.263-16.688,8.539-3.174,1.242-6.42,2.311-9.744,3.072-3.01.689-1.736,5.318,1.276,4.629,6.385-1.462,12.543-3.995,18.393-6.909,5.689-2.833,11.206-6.147,16.112-10.204,2.111-1.746,4.087-3.677,5.621-5.959,1.728-2.571-2.428-4.976-4.145-2.423h0Z"/><path class="f" d="M145.642,76.468c-2.494-1.93-5.061-3.757-7.441-5.831-3.173-2.765-5.865-5.874-8.213-9.364-1.943-2.887-3.688-5.936-5.023-9.154-1.101-2.654-1.925-5.411-2.778-8.151-.914-2.94-5.55-1.685-4.629,1.276,2.036,6.546,4.433,12.726,8.285,18.452,2.461,3.658,5.229,7.018,8.528,9.951,2.45,2.179,5.536,4.403,7.877,6.215,1.024.792,2.396.998,3.394,0,.826-.826,1.031-2.596,0-3.394h0Z"/><path class="f" d="M77.04,137.863c-.141,2.074-.41,4.122-.76,6.17-.213,1.244-.324,2.522-.669,3.74-.043.15-.311.847-.142.48-.111.24-.242.468-.385.69-.208.321.21-.228-.05.071-.08.092-.163.181-.249.266-.328.325-.327.309-.689.52-.657.383-1.367.635-2.057.949-3.565,1.621-7.105,3.296-10.662,4.932-.919.423-1.838.845-2.76,1.261-.328.148-.658.293-.987.441-.609.274.552-.2.011-.007-1.22.436-2.038,1.636-1.676,2.952.324,1.18,1.726,2.115,2.952,1.676,1.417-.507,2.787-1.217,4.152-1.844,2.187-1.004,4.371-2.016,6.554-3.028,1.612-.747,3.225-1.493,4.838-2.239.115-.053.289-.096.389-.175-.015.012-.906.362-.374.166.262-.097.518-.207.774-.317.48-.206.952-.419,1.395-.698,1.534-.963,2.635-2.295,3.301-3.972.525-1.322.653-2.736.883-4.129.434-2.626.83-5.248,1.011-7.906.088-1.295-1.166-2.4-2.4-2.4-1.372,0-2.311,1.102-2.4,2.4h0Z"/><path class="f" d="M117.925,137.128c.213,3.686.704,7.402,1.413,11.027.66,3.369,2.821,5.523,5.971,6.734.626.241-.767-.36-.092-.038.245.117.492.229.738.344.778.364,1.554.731,2.33,1.097,2.029.958,4.057,1.919,6.085,2.878,1.531.724,3.05,1.486,4.613,2.138,1.197.499,2.64-.539,2.952-1.676.38-1.382-.475-2.451-1.676-2.952,1.135.474-.145-.088-.486-.248-.721-.338-1.44-.678-2.16-1.018-1.93-.912-3.859-1.826-5.789-2.738-1.382-.653-2.758-1.32-4.15-1.953-.713-.324-1.443-.584-2.113-.996-.258-.159-.267-.152-.563-.446-.077-.076-.436-.525-.236-.243-.173-.244-.323-.514-.448-.786.177.385-.11-.372-.141-.481-.361-1.278-.478-2.626-.699-3.932-.376-2.224-.62-4.46-.75-6.712-.075-1.294-1.05-2.4-2.4-2.4-1.242,0-2.475,1.099-2.4,2.4h0Z"/><path class="f" d="M91.283,119.905c2.837,1.498,5.891,2.128,9.099,2.107,3.275-.021,6.569-.672,9.191-2.714,1.023-.797.837-2.557,0-3.394-1.01-1.01-2.368-.799-3.394,0,.73-.569.172-.14-.016-.02-.182.117-.37.225-.561.325-.099.052-.201.098-.301.15-.366.188.01-.103.105-.035-.053-.038-.686.253-.774.281-.706.227-1.434.385-2.167.495.358-.054-.042.001-.195.016-.213.021-.425.039-.639.053-.513.033-1.027.046-1.54.043-.46-.003-.92-.018-1.379-.05-.211-.014-.421-.031-.632-.052-.031-.003-.796-.112-.294-.032-.684-.109-1.361-.251-2.024-.449-.284-.085-.56-.187-.84-.282-.61-.209.363.187-.188-.073-.347-.164-.689-.334-1.029-.513-1.11-.586-2.66-.318-3.284.861-.586,1.109-.324,2.658.861,3.284h0Z"/><path class="f" d="M99.144,98.494c.396,1.509.776,3.042,1.003,4.587l-.086-.638c.027.212.039.42.017.633l.086-.638c-.015.099-.037.191-.07.285l.242-.573c-.029.066-.06.123-.1.183l.375-.486c-.047.057-.092.101-.15.148l.486-.375c-.116.074-.238.135-.363.192l.573-.242c-.2.083-.398.145-.612.179l.638-.086c-.193.023-.382.021-.575-.001l.638.086c-.217-.03-.429-.083-.646-.112-.319-.1-.638-.114-.957-.043-.319.014-.617.109-.892.285-.498.291-.973.862-1.103,1.434-.14.614-.11,1.304.242,1.849.312.484.835,1.022,1.434,1.103.498.067.98.194,1.487.216.778.034,1.501-.205,2.196-.523.86-.394,1.531-1.169,1.76-2.095.194-.784.111-1.466-.022-2.251-.25-1.478-.591-2.942-.971-4.392-.318-1.214-1.729-2.072-2.952-1.676-1.25.404-2.018,1.651-1.676,2.952h0Z"/><path class="f" d="M74.951,85.498c-.764,2.482-.266,8.192,4.436,8.677,6.215-.037,6.545-6.94,4.453-10.186-1.713-2.657-6.75-3.763-8.89,1.508Z"/><path class="f" d="M124.836,85.498c.764,2.482.266,8.192-4.436,8.677-6.215-.037-6.546-6.94-4.454-10.186,1.713-2.657,6.749-3.762,8.89,1.509Z"/><path class="f" d="M158.277,82.381c.191,13.194,1.518,26.514,5.122,39.244,1.274,4.501,3.069,8.863,4.098,13.429.701,3.109,1.389,7.33.844,10.171-.509,2.659-1.813,5.062-3.591,7.137-4.584,5.346-11.775,8.657-18.797,6.74-2.984-.814-4.257,3.815-1.276,4.629,7.281,1.987,14.741-.349,20.459-5.037,2.529-2.073,4.751-4.71,6.216-7.643,1.545-3.09,2.014-6.156,1.83-9.584-.233-4.33-1.11-8.564-2.453-12.681-.594-1.821-1.24-3.623-1.813-5.45-1.507-4.812-2.677-9.724-3.556-14.689-1.534-8.666-2.158-17.474-2.285-26.266-.045-3.086-4.845-3.095-4.8,0h0Z"/><path class="g" d="M29.208,314.062c-2.047-.07-4.218-.436-6.492-1.134-7.111-2.183-14.258-8.812-17.105-15.833-2.847-7.021-3.577-15.169-3.111-22.756,1.433-23.314,3.167-36.451,5.944-53.306,1.618-9.726,2.889-16.482,4.611-23.78,1.49-6.315,3.175-11.677,6.683-17.09,2.895-4.468,6.98-7.988,11.227-11.125,9.426-6.962,19.951-9.703,31.04-13.262l.315-.101c2.768-1.945,5.465-3.602,7.525-4.723,5.137,20.124,10.15,38.341,16.391,56.6,4.846,14.177,7.43,19.796,13.373,34.433,6.046-15.024,8.977-20.496,13.574-34.931,6.061-19.032,10.717-35.955,15.847-56.102,1.498.839,3.363,1.925,5.357,3.178,3.709,1.013,6.026,1.646,6.026,1.646,7.02,1.917,14.082,3.849,20.654,6.974,6.572,3.125,12.693,7.54,16.773,13.565,2.021,2.985,3.502,6.301,4.805,9.663,2.731,7.047,4.726,14.379,5.939,21.838,5.125,25.341,7.611,45.781,6.792,68.648-.265,7.419-.921,14.971-3.778,21.823s-8.245,12.989-15.359,15.111c-4.2,1.252-8.467,1.458-12.589.606-25.524-.002-109.3.059-134.443.059Z"/><path class="e" d="M99.664,167.691c-9.621.113-19.2-1.871-26.984-5.801,4.191,15.898,8.465,30.765,13.557,45.661,4.846,14.177,7.43,19.796,13.373,34.433,6.046-15.024,8.977-20.496,13.574-34.931,5.007-15.722,9.055-30.006,13.205-45.853-7.855,4.264-17.311,6.382-26.726,6.492Z"/><path class="f" d="M41.08,234.329c-1.666-10.508-3.508-21.036-4.502-31.634-.121-1.291-1.016-2.4-2.4-2.4-1.204,0-2.522,1.102-2.4,2.4,1.033,11.024,2.94,21.979,4.673,32.91.203,1.281,1.803,1.992,2.952,1.676,1.365-.375,1.88-1.667,1.676-2.952h0Z"/><path class="f" d="M162.521,250.36c2.28-14.429,3.488-29.103,4.52-43.664.092-1.294-1.169-2.4-2.4-2.4-1.375,0-2.308,1.102-2.4,2.4-.998,14.092-2.194,28.757-4.348,42.388-.202,1.279.328,2.582,1.676,2.952,1.141.313,2.749-.388,2.952-1.676h0Z"/><path class="f" d="M87.13,243.822c-11.621-18.468-23.208-36.996-33.724-56.124-.68-1.237-1.349-2.48-2.024-3.72.08.147-.221-.36-.25-.455-.067-.222-.125.314-.005.095.303-.556,1.1-1.08,1.569-1.489,2.236-1.952,4.804-3.497,7.191-5.253,1.456-1.071,1.623-3.104,0-4.145-1.471-.943-2.914-1.927-4.365-2.9-.737-.494-1.476-.986-2.222-1.467-.299-.193-.599-.384-.9-.572-.233-.145-.995-.86-.711-.347l.328,1.211.019-.419-.328,1.211c1.629-3.819,5.444-6.826,8.644-9.351,3.35-2.643,6.961-5.024,10.705-7.073l-3.526-1.434c6.181,24.201,12.775,48.431,21.903,71.714,2.246,5.729,4.632,11.403,6.958,17.101.49,1.199,1.596,2.049,2.952,1.676,1.136-.312,2.169-1.745,1.676-2.952-4.174-10.225-8.399-20.405-12.002-30.851-4.129-11.97-7.775-24.1-11.139-36.306-1.984-7.199-3.873-14.423-5.721-21.657-.393-1.539-2.194-2.163-3.526-1.434-5.778,3.164-11.407,7.085-16.121,11.697-1.186,1.16-2.281,2.394-3.281,3.718-.985,1.303-2.23,2.973-1.972,4.682.323,2.135,3.098,3.182,4.722,4.255,1.831,1.21,3.635,2.46,5.483,3.645v-4.145c-2.327,1.712-4.763,3.27-7.029,5.066-2.164,1.715-4.832,3.899-3.931,7.003.35,1.207,1.138,2.355,1.736,3.454.682,1.253,1.369,2.503,2.062,3.75,1.351,2.433,2.721,4.856,4.105,7.27,5.845,10.195,11.94,20.246,18.124,30.239,3.461,5.593,6.953,11.166,10.456,16.732,1.641,2.608,5.796.202,4.145-2.423h0Z"/><path class="f" d="M103.029,239.905c4.123-10.091,8.511-20.039,11.891-30.416,3.939-12.092,7.488-24.317,10.83-36.586,1.93-7.087,3.782-14.195,5.596-21.314l-3.526,1.434c3.739,2.099,7.399,4.361,10.861,6.895,3.125,2.287,6.88,5.079,8.419,8.687l-.328-1.211.019.411.328-1.211c.306-.551-.283.076-.506.215-.355.22-.707.444-1.058.671-.732.472-1.456.955-2.18,1.44-1.424.954-2.84,1.919-4.283,2.845-1.623,1.041-1.456,3.073,0,4.145,2.009,1.478,4.142,2.801,6.095,4.353.432.343.853.701,1.263,1.07.325.293,1.053.801,1.246,1.214-.095-.203.02-.272-.28.276-.337.616-.667,1.236-1.003,1.853-2.479,4.554-5.032,9.068-7.632,13.554-5.446,9.399-11.093,18.682-16.815,27.915-3.185,5.14-6.397,10.263-9.617,15.381-1.65,2.622,2.502,5.034,4.145,2.423,12.127-19.273,24.364-38.589,35.067-58.703.826-1.552,1.268-3.112.448-4.784-.607-1.237-1.757-2.193-2.792-3.07-2.43-2.058-5.142-3.743-7.702-5.627v4.145c1.813-1.163,3.583-2.389,5.379-3.576,1.511-.999,4.085-1.977,4.612-3.889.47-1.707-.785-3.429-1.762-4.717-.993-1.309-2.098-2.506-3.302-3.625-4.805-4.463-10.499-8.021-16.198-11.222-1.326-.744-3.137-.092-3.526,1.434-3.179,12.48-6.487,24.927-10.1,37.289-3.359,11.489-6.767,23.016-11.214,34.139-2.262,5.659-4.698,11.247-7.003,16.888-.49,1.2.532,2.638,1.676,2.952,1.375.378,2.46-.471,2.952-1.676h0Z"/><path class="f" d="M72.826,164.619c13.007,5.976,28.328,7,42.164,3.517,3.975-1.001,7.837-2.439,11.499-4.28,2.76-1.388.333-5.53-2.423-4.145-11.715,5.889-25.947,6.992-38.652,4.126-3.484-.786-6.917-1.87-10.165-3.362-1.177-.541-2.584-.334-3.284.861-.605,1.034-.322,2.74.861,3.284h0Z"/><path class="f" d="M61.367,153.461c-8.27,2.649-16.707,5.009-24.441,9.045-7.634,3.984-15.155,9.784-19.728,17.183-4.365,7.061-6.185,15.233-7.869,23.26-1.65,7.868-2.972,15.806-4.214,23.748-2.395,15.313-3.947,30.702-4.924,46.168-.565,8.947-.047,18.423,3.879,26.646,3.438,7.2,10.372,13.363,18.007,15.732,3.925,1.218,8.039,1.518,12.089.839,3.827-.641,7.462-2.284,10.798-4.22,2.733-1.586,5.519-3.322,7.921-5.384l5.048-4.335,1.262-1.084c.984-.845.868-2.527,0-3.394-.975-.975-2.408-.847-3.394,0-1.246,1.07-2.493,2.14-3.739,3.21l-2.393,2.054c-.216.185-.426.38-.649.557-.043.034-.082.074-.126.108.085-.065.304-.235-.061.013-.301.204-.595.419-.894.627-5.902,4.102-12.333,7.961-19.792,7.361-7.413-.597-14.174-5.379-18.211-11.48-4.48-6.771-5.372-15.65-5.139-23.574.244-8.306,1.056-16.651,1.883-24.917.66-6.598,1.484-13.177,2.463-19.736,1.119-7.502,2.348-14.993,3.769-22.444,1.402-7.347,2.722-15.035,5.636-21.958,1.538-3.653,3.628-7.105,6.332-10.011,2.791-2.999,6.048-5.624,9.46-7.882,6.813-4.509,14.518-7.154,22.255-9.596,2.015-.636,4.033-1.264,6.046-1.909,2.93-.939,1.678-5.575-1.276-4.629h0Z"/><path class="f" d="M29.237,316.467c16.494,0,32.987-.012,49.481-.021,20.346-.012,40.692-.024,61.037-.036,7.961-.005,15.921-.009,23.882-.013,3.089-.001,3.094-4.801,0-4.8-16.589.007-33.178.018-49.767.028-20.319.012-40.638.025-60.957.034-7.892.004-15.785.007-23.677.007-3.089,0-3.094,4.8,0,4.8h0Z"/><path class="f" d="M139.776,158.089c12.665,3.459,27.062,7.324,35.294,18.447,4.192,5.665,6.502,12.774,8.42,19.478,2.097,7.334,3.339,14.927,4.706,22.424,2.457,13.483,4.255,27.085,4.771,40.79.256,6.799.247,13.626-.132,20.42-.382,6.851-1.309,13.984-4.583,20.121-3.075,5.764-7.932,10.3-14.408,11.775-7.595,1.73-15.222-.714-21.169-5.562-1.004-.818-2.412-.982-3.394,0-.845.845-1.01,2.571,0,3.394,5.883,4.795,13.089,7.922,20.792,7.504,6.923-.376,13.254-3.203,17.903-8.383,9.919-11.051,9.991-27.147,9.954-41.156-.039-14.604-1.566-29.143-3.95-43.54-1.29-7.792-2.636-15.645-4.393-23.346-1.718-7.529-4.091-15.222-7.714-22.07-7.073-13.366-21.408-19.41-35.221-23.371-1.862-.534-3.731-1.045-5.6-1.555-2.984-.815-4.257,3.814-1.276,4.629h0Z"/><path class="e" d="M62.831,273.326l.734-.982c.907-1.213,3.15-4.423,3.601-4.836.293-.268,1.246-.922,1.956-1.184,2.783-1.028,6.264-.525,8.535-1.913,4.03-2.464,4.172-4.554,7.139-7.468,2.543-13.603,6.507-34.808,8.405-44.966-.183-.003-.366,0-.548.01-1.469.08-2.888.543-4.275,1.034-4.438,1.571-8.759,3.474-12.921,5.688-.04-.02-.08-.05-.12-.07-.15-.09-.309-.18-.469-.249-.04-.03-.09-.05-.14-.07-.14-.06-.279-.12-.419-.16-.04-.02-.08-.04-.12-.05-.08-.03-.15-.05-.229-.07-.1-.03-.2-.06-.289-.08-.03-.01-.06-.01-.09-.02-.1-.02-.2-.04-.289-.06-.12-.02-.229-.03-.339-.04-.07-.01-.14-.02-.21-.02-.13-.02-.269-.02-.409-.02-.229,0-.459.01-.688.04-1.097.14-2.155.619-3.003,1.327-1.077.898-2.484,1.227-3.881,1.207-1.107-.01-2.235.339-3.143.978-.898.639-1.945,1.038-3.063,1.068-.12,0-.239.01-.369.03-.399.05-.788.13-1.167.249-.509.16-.998.379-1.457.639-1.048.589-1.985,1.427-2.754,2.355-1.367,1.656-2.295,3.632-3.203,5.577-4.508,9.66-6.447,12.817-11.144,22.553,1.457,4.023,4.327,8.545,6.727,11.518,1.975,2.446,4.126,4.825,6.828,6.432,2.465,1.466,7.248,1.88,10.675,1.74l.14-.187Z"/><path class="f" d="M77.868,220.156c2.995-1.534,6.059-2.918,9.207-4.11,1.552-.588,3.131-1.222,4.762-1.55,1.01-.203,2.397-.27,3.248.408,1.012.808,2.406.989,3.394,0,.838-.838,1.018-2.581,0-3.394-3.551-2.835-7.681-1.925-11.623-.486-3.9,1.424-7.714,3.094-11.41,4.987-1.153.591-1.489,2.209-.861,3.284.685,1.172,2.126,1.454,3.284.861h0Z"/><path class="f" d="M65.638,273.556c.518-.696,1.021-1.404,1.53-2.107.289-.4.578-.8.87-1.197.131-.178.263-.356.396-.534.163-.218.349-.42.07-.094.114-.133.558-.61.158-.269.199-.169.438-.307.661-.443-.057.035.742-.406.438-.271,1.091-.484,2.358-.567,3.509-.7,1.299-.15,2.642-.267,3.887-.692,1.41-.482,2.597-1.291,3.754-2.214.847-.676,1.584-1.441,2.256-2.289.379-.479.743-.968,1.103-1.461.308-.422.596-.819.784-1.056.806-1.014.99-2.404,0-3.394-.836-.836-2.583-1.02-3.394,0-1.46,1.836-2.2,3.302-4.037,4.721-1.042.805-1.771,1.151-3.01,1.392-1.206.235-2.568.315-3.861.516-2.12.329-4.371,1.162-5.742,2.895-1.227,1.551-2.336,3.19-3.516,4.776-.774,1.041-.17,2.68.861,3.284,1.223.716,2.508.182,3.284-.861h0Z"/><path class="f" d="M78.48,218.16c-2.518-2.799-6.691-3.54-10.016-1.758-.737.395-1.317,1.042-2.102,1.345-.967.373-2.062.197-3.07.373-1.036.182-1.997.61-2.885,1.161-.864.535-1.544.687-2.54.813-4.567.576-7.576,4.345-9.499,8.216-1.78,3.584-3.425,7.232-5.226,10.807-1.867,3.707-3.771,7.395-5.599,11.122-.571,1.163-.315,2.596.861,3.284,1.057.618,2.711.307,3.284-.861,2.96-6.034,6.106-11.974,8.987-18.046,1.514-3.191,2.847-7.353,6.099-9.204.633-.36,1.276-.52,1.99-.604,1.153-.136,2.133-.348,3.182-.86.751-.367,1.37-.962,2.212-1.12.9-.169,1.841-.079,2.753-.264,1.063-.215,2.077-.675,2.943-1.322.713-.533,1.389-.981,2.308-1.035,1.176-.069,2.136.472,2.925,1.348,2.07,2.302,5.456-1.102,3.394-3.394h0Z"/><path class="f" d="M80.37,232.281c1.105,2.275,1.966,4.67,2.52,7.14.238,1.062.559,2.652.551,3.511-.008.865-.423,1.884-.658,2.709-.3,1.048-.634,2.09-1.036,3.104-.2.505-.582,1.476-1.006,1.854-1.003.894-3.459.712-3.849-.593-.883-2.952-5.517-1.695-4.629,1.276,1.089,3.64,5.303,5.335,8.8,4.408,3.324-.882,4.644-3.7,5.688-6.683.445-1.271.825-2.569,1.127-3.881.394-1.715.264-3.332.001-5.062-.54-3.558-1.796-6.978-3.363-10.205-.566-1.166-2.226-1.479-3.284-.861-1.19.696-1.429,2.113-.861,3.284h0Z"/><path class="f" d="M70.373,234.53c.583,1.399,1.256,2.742,1.916,4.105.303.625.435.904.626,1.457.115.334.194.674.29,1.014.121.428.042-.086.066.391.061,1.216-.238,2.39-.507,3.661-.128.604-.264,1.206-.413,1.806-.07.281-.141.561-.231.836-.036.115-.076.228-.119.34.095-.211.083-.19-.035.063-.105.193-.221.382-.325.576-.16.228-.159.236.003.024-.086.104-.177.204-.273.3-.16.16-.459.324-.117.123-.106.071-.216.136-.329.195.287-.106.302-.112.047-.02-.155.038-.655.08-.122.068-.125.003-.933-.066-.398.032-.614-.113-.808-.202-1.211-.439-.113-.066-.538-.438-.162-.083-.146-.138-.499-.684-.219-.184-.085-.153-.177-.298-.253-.457.277.578.009-.142-.028-.288-.122-.478-.02.418-.01-.146.004-.253-.015-.507-.008-.76.007-.278.026-.555.05-.831.015-.17.032-.34.052-.509.037-.294.043-.352.018-.173.175-1.283-.31-2.577-1.676-2.952-1.12-.308-2.775.384-2.952,1.676-.312,2.279-.676,4.91.714,6.936,1.42,2.069,4.117,3.252,6.599,2.913,2.631-.359,4.376-2.414,5.264-4.787.406-1.086.618-2.264.848-3.398.28-1.376.642-2.851.605-4.261-.084-3.147-1.913-5.7-3.081-8.505-.498-1.196-1.59-2.051-2.952-1.676-1.129.31-2.178,1.748-1.676,2.952h0Z"/><path class="f" d="M35.449,252.088c.795,3.486,2.509,6.793,4.385,9.812,1.855,2.984,4.019,5.867,6.495,8.366,2.424,2.447,5.154,4.339,8.559,5.044,3.076.636,6.328.809,9.454.489,1.289-.132,2.4-1.009,2.4-2.4,0-1.196-1.103-2.533-2.4-2.4-2.579.264-5.282.231-7.835-.25-2.939-.554-4.989-2.007-7.084-4.184-2.166-2.251-4.034-4.771-5.659-7.435-1.583-2.595-3.006-5.336-3.686-8.317-.687-3.01-5.316-1.736-4.629,1.276h0Z"/><path class="e" d="M107.722,232.651c3.37,1.972,16.733,9.949,25.526,15.281.43-2.3.998-5.337,1.455-7.782,5.629,2.895,9.009,5.077,13.118,8.721,1.642,1.456,2.965,4.021,3.675,6.097,1.523,4.453,2.873,10.863,2.016,16.669l-.099.671c-2.929,6.327-8.002,13.061-13.464,17.39-6.278.118-12.149-.589-15.252-1.152-3.583-.65-6.791-2.498-9.786-4.568-7-4.837-13.112-10.401-18.394-17.357-.545-.718-.848-1.614-.964-2.507s.105-1.874.765-2.487c0,0,.76-.706,1.908-1.774-.742-.584-1.266-1.012-1.487-1.224-1.086-1.041-1.731-1.754-2.31-3.142-.296-.71-.222-1.649-.045-2.42.245-1.065,1.067-3.023,3.555-2.644,0,0,.723.11,1.737.264-1.953-1.434-3.395-2.507-3.906-2.917-.23-.184-.466-.382-.703-.592-1.336-1.18-2.736-2.737-3.439-4.231-.829-1.76-.388-3.568.643-4.936,1.34-1.78,3.678-2.373,6.774-1.408-.562-1.659.449-3.134,1.19-3.951,1.935-2.137,5.495-1.151,7.012-.277.125.072.285.165.477.278Z"/><path class="f" d="M155.827,272.276c.547-3.972.341-7.89-.402-11.826-.644-3.414-1.597-6.946-3.346-9.973-1.731-2.997-4.532-5.108-7.291-7.11-2.826-2.051-5.878-3.745-8.978-5.342-2.742-1.413-5.172,2.728-2.423,4.145,2.831,1.459,5.628,2.995,8.243,4.819,2.201,1.535,4.686,3.253,6.102,5.572,1.536,2.516,2.298,5.469,2.897,8.331.687,3.282,1.028,6.768.568,10.108-.177,1.282.31,2.577,1.676,2.952,1.121.308,2.774-.384,2.952-1.676h0Z"/><rect class="h" x="70.292" y="214.783" width="82.944" height="45.973" rx="5.003" ry="5.003" transform="translate(-142.493 303.942) rotate(-79.412)"/><path class="f" d="M85.829,277.546c8.397,1.57,16.794,3.139,25.192,4.709,3.35.626,6.695,1.302,10.054,1.879,3.773.649,7.525-1.214,8.728-4.995.187-.588.273-1.213.386-1.819l4.382-23.443,6.114-32.708,2.078-11.115c.522-2.795,1.334-5.613-.093-8.317-2.04-3.865-6.531-4.035-10.311-4.742-5.292-.989-10.583-1.978-15.875-2.967l-12.926-2.416c-1.82-.34-3.593-.606-5.395.099-2.448.957-4.158,3.058-4.659,5.629-1.317,6.756-2.53,13.535-3.795,20.301-2.067,11.059-4.135,22.119-6.202,33.178-1.116,5.969-2.342,11.93-3.349,17.919-.673,3.999,1.592,7.902,5.672,8.807,3.01.668,4.295-3.958,1.276-4.629s-2.251-3.27-1.848-5.425l1.883-10.074,5.824-31.155c1.566-8.378,3.132-16.757,4.698-25.135.354-1.894.419-4.842,2.87-5.105.82-.088,1.717.212,2.513.361l5.702,1.066c9.041,1.69,18.082,3.38,27.123,5.07,1.564.292,3.038,1.115,2.872,2.969-.035.392-.141.791-.214,1.178l-1.576,8.432c-1.88,10.059-3.761,20.119-5.641,30.178l-5.099,27.279c-.289,1.546-.533,3.109-.869,4.647-.786,3.603-4.984,1.931-7.432,1.473-9.528-1.781-19.056-3.562-28.584-5.343l-2.223-.416c-1.273-.238-2.589.353-2.952,1.676-.321,1.169.396,2.713,1.676,2.952Z"/><path class="e" d="M136.84,251.513l.061-1.358c-8.544-5.232-27.018-16.261-29.655-17.782-1.517-.874-5.077-1.86-7.012.277-.737.814-1.743,2.279-1.198,3.928-.405-.104-.646-.164-.646-.164-2.776-.686-4.878-.056-6.121,1.595-1.031,1.369-1.471,3.176-.643,4.936s2.624,3.608,4.143,4.823c.511.409,1.953,1.482,3.905,2.916-1.01-.153-1.736-.263-1.736-.263-2.489-.378-3.311,1.58-3.555,2.644-.177.771-.251,1.71.045,2.42.579,1.388,1.225,2.101,2.31,3.142.221.211.743.638,1.482,1.22-1.139,1.063-1.905,1.777-1.905,1.777-.655.611-.883,1.597-.765,2.484.117.896.425,1.794.962,2.515,5.289,6.956,11.4,12.52,18.402,17.358,2.987,2.064,6.197,3.911,9.787,4.561,2.235.411,7.118.53,10.475.105,0,0,1.357-30.301,1.663-37.134Z"/><path class="f" d="M111.3,203.194c-1.974-.369-3.947-.741-5.921-1.11-.645-.12-1.267-.099-1.849.242-.498.291-.973.862-1.103,1.434-.14.614-.11,1.304.242,1.849.323.5.827.989,1.434,1.103,1.974.369,3.947.741,5.921,1.11.645.12,1.267.099,1.849-.242.498-.291.973-.862,1.103-1.434.14-.614.11-1.304-.242-1.849-.323-.5-.827-.989-1.434-1.103h0Z"/><path class="f" d="M138.112,248.083c-9.611-5.883-19.272-11.698-28.995-17.397-2.329-1.365-5.222-2.259-7.899-1.394-3.521,1.137-5.801,5.349-4.133,8.802,1.04,2.153,3.521,3.626,5.378,5.025,2.257,1.701,4.539,3.368,6.826,5.028,5.123,3.717,10.257,7.434,15.515,10.96,2.573,1.725,4.978-2.431,2.423-4.145-4.164-2.792-8.24-5.721-12.31-8.646-2.32-1.667-4.633-3.344-6.934-5.038-1.005-.74-2.007-1.483-3.004-2.233-.378-.284-.755-.569-1.13-.856-.1-.077-.591-.455-.37-.283.229.178-.298-.233-.369-.29-.617-.487-1.589-1.119-1.812-1.796-.085-.257.048-.583.186-.833.158-.286.236-.392.241-.399.182-.227.37-.435.62-.584,1.527-.909,3.379.257,4.626.99,4.045,2.378,8.069,4.792,12.095,7.203,5.553,3.325,11.104,6.654,16.625,10.033,2.642,1.617,5.056-2.533,2.423-4.145h0Z"/><path class="f" d="M99.028,234.101c-2.663-.603-5.432-.464-7.608,1.347-2.064,1.717-3.105,4.711-2.402,7.323.979,3.639,4.297,6.169,7.187,8.32,5.347,3.98,10.76,7.873,16.169,11.768,2.286,1.646,4.566,3.302,6.879,4.911,1.065.74,2.666.195,3.284-.861.699-1.194.206-2.542-.861-3.284-4.303-2.992-8.531-6.094-12.774-9.17-2.511-1.82-5.019-3.643-7.519-5.477-.899-.659-1.797-1.32-2.692-1.985-.321-.239-.641-.477-.96-.719-.116-.087-.23-.177-.346-.263-.388-.287.501.426.106.08-1.365-1.195-4.134-3.21-3.89-5.316.252-2.178,2.408-2.441,4.152-2.047,3.008.681,4.292-3.946,1.276-4.629h0Z"/><path class="f" d="M97.939,248.023c-3.744-.418-6.211,2.981-6.108,6.457.082,2.79,2.154,5.038,4.22,6.692,3.987,3.189,8.119,6.205,12.211,9.257,2.121,1.583,4.246,3.16,6.366,4.745,1.039.777,2.681.169,3.284-.861.717-1.225.18-2.505-.861-3.284-3.528-2.637-7.066-5.259-10.588-7.902-1.835-1.377-3.666-2.757-5.486-4.153-.138-.106-.489-.377-.152-.116-.17-.132-.34-.263-.51-.396-.291-.227-.582-.455-.87-.685-.343-.274-.687-.548-1.009-.845-.917-.847-2.014-1.876-1.738-3.226.047-.23.12-.467.21-.683-.236.567.314-.465.032-.038.12-.183.083-.158.182-.186.104-.03.425-.019.817.024,1.29.144,2.4-1.206,2.4-2.4,0-1.417-1.106-2.255-2.4-2.4h0Z"/><path class="f" d="M94.619,259.93c-1.395,1.518-1.727,3.413-1.277,5.393.453,1.994,1.828,3.505,3.086,5.045,2.41,2.954,5.047,5.72,7.873,8.279,2.853,2.584,5.897,4.965,9.054,7.165,3.226,2.249,6.788,4.34,10.71,5.045,3.612.65,7.478.625,11.113.19,1.287-.154,2.4-.993,2.4-2.4,0-1.178-1.104-2.555-2.4-2.4-1.877.224-3.769.289-5.658.261-1.631-.024-3.246-.08-4.607-.364-4.266-.89-7.931-3.535-11.369-6.085-3.319-2.462-6.443-5.2-9.326-8.161-1.486-1.525-2.907-3.114-4.257-4.76-.475-.579-2.782-2.906-1.945-3.817,2.087-2.271-1.299-5.675-3.394-3.394h0Z"/><path class="f" d="M152.854,267.091c-1.476,4.884-4.177,9.446-7.299,13.454-3.103,3.984-6.844,7.721-11.373,10.047-2.749,1.412-.323,5.555,2.423,4.145,5.069-2.604,9.261-6.821,12.721-11.282,3.508-4.524,6.493-9.581,8.158-15.087.896-2.963-3.736-4.23-4.629-1.276h0Z"/></g></g></svg>